<svg xmlns="http://www.w3.org/2000/svg" viewBox="0 0 242.66 57.39"><defs><style>.cls-1{fill:#fff;}.cls-2{fill:#e78967;}</style></defs><title>Asset 1</title><g id="Layer_2" data-name="Layer 2"><g id="Layer_1-2" data-name="Layer 1"><path class="cls-1" d="M43.8,44q-4.21-4.34-4.21-11.43T43.8,21a14.6,14.6,0,0,1,10.93-4.33,15.67,15.67,0,0,1,9.36,2.72,13.13,13.13,0,0,1,5,7.71H60.71q-1.5-3.82-6-3.83a6.35,6.35,0,0,0-5.29,2.47,10.7,10.7,0,0,0-1.9,6.78,10.71,10.71,0,0,0,1.91,6.74,6.31,6.31,0,0,0,5.29,2.47,5.88,5.88,0,0,0,6-3.88h8.43A13.88,13.88,0,0,1,64,45.52a15.08,15.08,0,0,1-9.29,2.83A14.58,14.58,0,0,1,43.8,44Z"/><path class="cls-1" d="M77,43.83a16.08,16.08,0,0,1-4.13-11.39A16,16,0,0,1,77,21.1a13.65,13.65,0,0,1,10.43-4.41A10.76,10.76,0,0,1,97,21.9V17.14h7.76V47.85H97V42.69a10.87,10.87,0,0,1-9.7,5.6A13.44,13.44,0,0,1,77,43.83Zm17.61-4.71A8.89,8.89,0,0,0,97,32.54a8.91,8.91,0,0,0-2.44-6.67,8,8,0,0,0-11.31-.07l-.08.07a8.86,8.86,0,0,0-2.41,6.6,9,9,0,0,0,2.44,6.65,7.87,7.87,0,0,0,11.13.24l.24-.24Z"/><path class="cls-1" d="M115.15,44q-4.22-4.34-4.21-11.43t4.21-11.48a14.59,14.59,0,0,1,10.93-4.37,15.63,15.63,0,0,1,9.37,2.72,13.18,13.18,0,0,1,5,7.71h-8.39q-1.5-3.82-6-3.83a6.35,6.35,0,0,0-5.29,2.47,10.7,10.7,0,0,0-1.9,6.78,10.71,10.71,0,0,0,1.91,6.74,6.31,6.31,0,0,0,5.29,2.47,5.88,5.88,0,0,0,6-3.88h8.43a13.88,13.88,0,0,1-5.13,7.65,15.08,15.08,0,0,1-9.29,2.83A14.58,14.58,0,0,1,115.15,44Z"/><path class="cls-1" d="M158.29,41.31H162v6.54h-4.93q-4.71,0-7.26-2.16t-2.56-7.15v-15H144v-6.4h3.27V9.54h7.82v7.6h6.87v6.4h-6.87v15a2.71,2.71,0,0,0,.72,2.14A3.75,3.75,0,0,0,158.29,41.31Z"/><path class="cls-1" d="M189.28,17.14h7.82V47.85h-7.82V43.19q-2.94,5-9.59,5a11.33,11.33,0,0,1-8.54-3.46q-3.33-3.46-3.33-9.62v-18h7.77V34a7.76,7.76,0,0,0,1.82,5.5,7.41,7.41,0,0,0,10,0A7.72,7.72,0,0,0,189.27,34Z"/><path class="cls-1" d="M203.69,26.12a8.3,8.3,0,0,1,3.38-6.71,16.27,16.27,0,0,1,18,0,9.43,9.43,0,0,1,3.6,7.29h-8q-.33-3.89-4.77-3.88a5.79,5.79,0,0,0-3.44.89,2.84,2.84,0,0,0-1.22,2.44,2.72,2.72,0,0,0,1.82,2.39,17.76,17.76,0,0,0,4.44,1.39q2.59.5,5.18,1.25a9.88,9.88,0,0,1,4.41,2.66,7,7,0,0,1,1.83,5.07,8.07,8.07,0,0,1-3.52,6.76,16.8,16.8,0,0,1-17.94,0,9.48,9.48,0,0,1-3.83-7.4h8c.29,2.59,1.94,3.88,4.93,3.88a5.79,5.79,0,0,0,3.49-1,3,3,0,0,0,1.33-2.55,2.78,2.78,0,0,0-1.79-2.42,17.33,17.33,0,0,0-4.43-1.41q-2.61-.5-5.18-1.22A9.69,9.69,0,0,1,205.57,31,6.62,6.62,0,0,1,203.69,26.12Z"/><path class="cls-2" d="M242.66,43.41a4.22,4.22,0,0,1-1.3,3.16,4.36,4.36,0,0,1-3.16,1.28,4.47,4.47,0,0,1-3.13-7.6A4.31,4.31,0,0,1,238.2,39a4.39,4.39,0,0,1,3.16,1.27A4.23,4.23,0,0,1,242.66,43.41Z"/><path class="cls-1" d="M0,13.63V32.88a2.36,2.36,0,0,0,1.18,2l6.5,3.73a1.83,1.83,0,0,0,2.75-1.59V17.66a2.36,2.36,0,0,0-1.22-2.07L2.73,12a1.84,1.84,0,0,0-2.5.72A1.92,1.92,0,0,0,0,13.63Z"/><path class="cls-1" d="M19.27.26,12.76,4a2.36,2.36,0,0,0-1.18,2V51.34a2.36,2.36,0,0,0,1.18,2l6.5,3.75a1.84,1.84,0,0,0,2.52-.63,1.82,1.82,0,0,0,.27-1V1.85A1.85,1.85,0,0,0,20.22,0,1.89,1.89,0,0,0,19.27.26Z"/><path class="cls-1" d="M30.85,6,24.36,9.75a2.36,2.36,0,0,0-1.18,2.05V43.1a1.83,1.83,0,0,0,2.75,1.59l6.5-3.75a2.36,2.36,0,0,0,1.18-2V7.59A1.85,1.85,0,0,0,30.85,6Z"/></g></g></svg>