<?xml version="1.0" encoding="utf-8"?>
<!-- Generator: Adobe Illustrator 16.0.0, SVG Export Plug-In . SVG Version: 6.00 Build 0)  -->
<!DOCTYPE svg PUBLIC "-//W3C//DTD SVG 1.1//EN" "http://www.w3.org/Graphics/SVG/1.1/DTD/svg11.dtd">
<svg version="1.1" id="Layer_1" xmlns="http://www.w3.org/2000/svg" xmlns:xlink="http://www.w3.org/1999/xlink" x="0px" y="0px"
	 width="200px" height="200px" viewBox="0 0 200 200" enable-background="new 0 0 200 200" xml:space="preserve">
<g>
	<g>
		<rect x="20.498" y="39.605" fill="#474F59" width="96.052" height="129.771"/>
		<g>
			<g>
				<rect x="30.881" y="50.602" fill="#CCCBCA" width="19.626" height="2.056"/>
				<rect x="30.881" y="66.243" fill="#CCCBCA" width="5.538" height="2.056"/>
				<rect x="53.929" y="50.602" fill="#CCCBCA" width="7.804" height="2.056"/>
				<rect x="37.857" y="66.243" fill="#CCCBCA" width="19.963" height="2.056"/>
				<rect x="36.419" y="55.944" fill="#CCCBCA" width="8.8" height="2.048"/>
				<rect x="36.419" y="82.281" fill="#CCCBCA" width="8.8" height="2.052"/>
				<rect x="30.881" y="113.985" fill="#CCCBCA" width="14.338" height="2.025"/>
				<rect x="36.419" y="87.644" fill="#CCCBCA" width="3.627" height="2.025"/>
				<rect x="47.294" y="82.281" fill="#CCCBCA" width="23" height="2.052"/>
				<rect x="45.821" y="98.313" fill="#CCCBCA" width="8.005" height="2.057"/>
				<rect x="41.097" y="156.327" fill="#CCCBCA" width="8.003" height="2.054"/>
				<rect x="55.933" y="98.313" fill="#CCCBCA" width="12.994" height="2.057"/>
				<rect x="70.819" y="119.318" fill="#CCCBCA" width="6.633" height="2.024"/>
				<rect x="47.541" y="145.654" fill="#CCCBCA" width="15.535" height="2.025"/>
				<rect x="52.568" y="156.327" fill="#CCCBCA" width="18.256" height="2.054"/>
				<rect x="85.388" y="130.016" fill="#CCCBCA" width="6.633" height="2.023"/>
				<rect x="72.158" y="98.313" fill="#CCCBCA" width="15.641" height="2.057"/>
				<rect x="72.903" y="82.281" fill="#CCCBCA" width="16.54" height="2.052"/>
				<rect x="92.803" y="82.281" fill="#CCCBCA" width="10.131" height="2.052"/>
				<rect x="36.419" y="71.612" fill="#CCCBCA" width="13.125" height="2.023"/>
				<rect x="36.419" y="76.944" fill="#CCCBCA" width="18.626" height="2.026"/>
				<rect x="41.396" y="87.644" fill="#CCCBCA" width="21.333" height="2.025"/>
				<rect x="36.419" y="124.654" fill="#CCCBCA" width="21.334" height="2.052"/>
				<rect x="44.239" y="130.016" fill="#CCCBCA" width="15.615" height="2.023"/>
				<rect x="56.377" y="150.994" fill="#CCCBCA" width="41.49" height="2.051"/>
				<rect x="76.385" y="156.327" fill="#CCCBCA" width="9.087" height="2.054"/>
				<rect x="62.376" y="130.016" fill="#CCCBCA" width="20.328" height="2.023"/>
				<rect x="68.976" y="145.654" fill="#CCCBCA" width="20.341" height="2.025"/>
				<rect x="41.396" y="92.983" fill="#CCCBCA" width="6.934" height="2.031"/>
				<rect x="41.396" y="103.679" fill="#CCCBCA" width="7.537" height="2.025"/>
				<rect x="36.419" y="119.318" fill="#CCCBCA" width="31.712" height="2.024"/>
				<rect x="36.419" y="130.016" fill="#CCCBCA" width="5.067" height="2.023"/>
				<rect x="30.881" y="145.654" fill="#CCCBCA" width="14.218" height="2.025"/>
				<rect x="36.419" y="150.993" fill="#CCCBCA" width="16.193" height="2.052"/>
				<rect x="50.507" y="92.983" fill="#CCCBCA" width="41.67" height="2.031"/>
				<rect x="40.846" y="135.354" fill="#CCCBCA" width="13.329" height="2.021"/>
				<rect x="58.748" y="135.354" fill="#CCCBCA" width="36.839" height="2.021"/>
				<rect x="64.8" y="87.644" fill="#CCCBCA" width="3.817" height="2.025"/>
				<rect x="71.49" y="87.644" fill="#CCCBCA" width="7.157" height="2.025"/>
				<rect x="57.026" y="76.944" fill="#CCCBCA" width="18.625" height="2.026"/>
				<rect x="76.935" y="76.944" fill="#CCCBCA" width="15.29" height="2.026"/>
				<rect x="97.87" y="76.944" fill="#CCCBCA" width="8.291" height="2.026"/>
				<rect x="53.837" y="71.612" fill="#CCCBCA" width="20.175" height="2.023"/>
				<rect x="48.469" y="55.944" fill="#CCCBCA" width="19.977" height="2.048"/>
			</g>
		</g>
		<rect x="20.498" y="29.209" fill="#232E38" width="96.052" height="10.396"/>
	</g>
	<g>
		<g>
			<path fill="#E6E5E5" d="M171.021,103.533v73.047c0,5.227-4.237,9.482-9.465,9.482c-5.209,0-9.446-4.256-9.446-9.482V87.644
				c0-6.054-4.938-10.997-10.989-10.997c-6.054,0-10.971,4.943-10.971,10.997v21.471h1.506V87.644c0-5.222,4.253-9.477,9.465-9.477
				c5.22,0,9.465,4.254,9.465,9.477v88.936c0,6.055,4.919,10.976,10.971,10.976c6.055,0,10.989-4.921,10.989-10.976v-73.047H171.021
				z"/>
			<rect x="129.035" y="109.115" fill="#CCCBCA" width="3.726" height="6.896"/>
			<g>
				<rect x="169.923" y="88.659" fill="#E6E5E5" width="3.719" height="4.468"/>
				<rect x="168.814" y="93.127" fill="#CCCBCA" width="5.953" height="10.406"/>
			</g>
		</g>
		<g>
			<rect x="61.808" y="116.056" fill="#CCCBCA" width="138.192" height="53.32"/>
			<g>
				<g>
					<rect x="66.347" y="120.623" fill="#FFFFFF" width="6.893" height="6.87"/>
					<rect x="179.514" y="129.67" fill="#FFFFFF" width="6.891" height="6.871"/>
					<rect x="170.475" y="129.67" fill="#FFFFFF" width="6.877" height="6.871"/>
					<rect x="161.418" y="129.67" fill="#FFFFFF" width="6.873" height="6.871"/>
					<rect x="152.356" y="129.67" fill="#FFFFFF" width="6.893" height="6.871"/>
					<rect x="143.308" y="129.67" fill="#FFFFFF" width="6.883" height="6.871"/>
					<rect x="134.26" y="129.67" fill="#FFFFFF" width="6.877" height="6.871"/>
					<rect x="125.199" y="129.67" fill="#FFFFFF" width="6.894" height="6.871"/>
					<rect x="116.143" y="129.67" fill="#FFFFFF" width="6.894" height="6.871"/>
					<rect x="107.102" y="129.67" fill="#FFFFFF" width="6.876" height="6.871"/>
					<rect x="98.042" y="129.67" fill="#FFFFFF" width="6.882" height="6.871"/>
					<rect x="88.988" y="129.67" fill="#FFFFFF" width="6.892" height="6.871"/>
					<rect x="79.944" y="129.67" fill="#FFFFFF" width="6.877" height="6.871"/>
					<rect x="82.119" y="138.704" fill="#FFFFFF" width="6.879" height="6.874"/>
					<rect x="77.696" y="147.77" fill="#FFFFFF" width="6.88" height="6.878"/>
					<rect x="86.738" y="147.77" fill="#FFFFFF" width="6.896" height="6.878"/>
					<rect x="95.794" y="147.77" fill="#FFFFFF" width="6.878" height="6.878"/>
					<rect x="104.852" y="147.77" fill="#FFFFFF" width="6.878" height="6.878"/>
					<rect x="113.892" y="147.77" fill="#FFFFFF" width="6.894" height="6.878"/>
					<rect x="122.952" y="147.77" fill="#FFFFFF" width="6.873" height="6.878"/>
					<rect x="132.006" y="147.77" fill="#FFFFFF" width="6.874" height="6.878"/>
					<rect x="141.045" y="147.77" fill="#FFFFFF" width="6.894" height="6.878"/>
					<rect x="150.103" y="147.77" fill="#FFFFFF" width="6.893" height="6.878"/>
					<rect x="159.162" y="147.77" fill="#FFFFFF" width="6.875" height="6.878"/>
					<rect x="168.204" y="147.77" fill="#FFFFFF" width="6.889" height="6.878"/>
					<rect x="177.242" y="147.77" fill="#FFFFFF" width="18.205" height="6.878"/>
					<rect x="91.175" y="138.704" fill="#FFFFFF" width="6.878" height="6.874"/>
					<rect x="100.218" y="138.704" fill="#FFFFFF" width="6.895" height="6.874"/>
					<rect x="109.274" y="138.704" fill="#FFFFFF" width="6.872" height="6.874"/>
					<rect x="118.327" y="138.704" fill="#FFFFFF" width="6.879" height="6.874"/>
					<rect x="127.367" y="138.704" fill="#FFFFFF" width="6.893" height="6.874"/>
					<rect x="136.423" y="138.704" fill="#FFFFFF" width="6.876" height="6.874"/>
					<rect x="145.477" y="138.704" fill="#FFFFFF" width="6.876" height="6.874"/>
					<rect x="154.518" y="138.704" fill="#FFFFFF" width="6.891" height="6.874"/>
					<rect x="163.569" y="138.704" fill="#FFFFFF" width="6.895" height="6.874"/>
					<rect x="172.625" y="138.704" fill="#FFFFFF" width="6.878" height="6.874"/>
					<rect x="181.669" y="138.704" fill="#FFFFFF" width="6.888" height="6.874"/>
					<rect x="75.406" y="120.623" fill="#FFFFFF" width="6.89" height="6.87"/>
					<rect x="84.462" y="120.623" fill="#FFFFFF" width="6.877" height="6.87"/>
					<rect x="93.519" y="120.623" fill="#FFFFFF" width="6.877" height="6.87"/>
					<rect x="102.557" y="120.623" fill="#FFFFFF" width="6.896" height="6.87"/>
					<rect x="111.617" y="120.623" fill="#FFFFFF" width="6.876" height="6.87"/>
					<rect x="120.678" y="120.623" fill="#FFFFFF" width="6.87" height="6.87"/>
					<rect x="129.717" y="120.623" fill="#FFFFFF" width="6.889" height="6.87"/>
					<rect x="138.772" y="120.623" fill="#FFFFFF" width="6.89" height="6.87"/>
					<rect x="147.828" y="120.623" fill="#FFFFFF" width="6.877" height="6.87"/>
					<rect x="156.867" y="120.623" fill="#FFFFFF" width="6.897" height="6.87"/>
					<rect x="165.929" y="120.623" fill="#FFFFFF" width="6.89" height="6.87"/>
					<rect x="174.984" y="120.623" fill="#FFFFFF" width="6.877" height="6.87"/>
					<rect x="184.025" y="120.623" fill="#FFFFFF" width="11.418" height="6.87"/>
					<rect x="66.347" y="129.664" fill="#FFFFFF" width="11.42" height="6.872"/>
					<rect x="66.347" y="138.704" fill="#FFFFFF" width="13.614" height="6.874"/>
					<rect x="66.347" y="147.77" fill="#FFFFFF" width="9.177" height="6.878"/>
					<rect x="66.347" y="156.813" fill="#FFFFFF" width="6.895" height="8.02"/>
					<rect x="75.383" y="156.813" fill="#FFFFFF" width="6.88" height="8.02"/>
					<rect x="84.402" y="156.813" fill="#FFFFFF" width="6.895" height="8.02"/>
					<rect x="93.434" y="156.813" fill="#FFFFFF" width="9.234" height="8.02"/>
					<rect x="104.846" y="156.813" fill="#FFFFFF" width="43.093" height="8.02"/>
					<rect x="150.102" y="156.813" fill="#FFFFFF" width="9.245" height="8.02"/>
					<rect x="161.492" y="156.813" fill="#FFFFFF" width="6.883" height="8.02"/>
					<rect x="170.536" y="161.097" fill="#FFFFFF" width="6.892" height="3.735"/>
					<rect x="179.558" y="161.314" fill="#FFFFFF" width="6.876" height="3.518"/>
					<rect x="179.558" y="156.792" fill="#FFFFFF" width="6.876" height="3.52"/>
					<rect x="188.566" y="161.097" fill="#FFFFFF" width="6.879" height="3.735"/>
					<polygon fill="#FFFFFF" points="190.719,145.578 190.719,136.541 188.569,136.541 188.569,129.67 195.447,129.67 
						195.447,145.578 					"/>
				</g>
			</g>
		</g>
	</g>
	<g>
		<rect x="79.731" y="12.445" fill="#E6E5E5" width="55.896" height="33.513"/>
		<g>
			<g>
				<path fill="#353F49" d="M90.936,33.671v-8.938h1.817v3.526h3.542v-3.526h1.818v8.938h-1.818v-3.918h-3.542v3.918H90.936z"/>
				<path fill="#353F49" d="M101.989,33.671v-7.442h-2.656v-1.496h7.125v1.496h-2.65v7.442H101.989z"/>
				<path fill="#353F49" d="M107.606,33.671v-8.938h2.712l1.619,6.106l1.615-6.106h2.719v8.938h-1.692v-7.054l-1.778,7.054h-1.744
					l-1.771-7.054v7.054H107.606z"/>
				<path fill="#353F49" d="M118.104,33.671v-8.876h1.817v7.386h4.5v1.491H118.104z"/>
			</g>
		</g>
	</g>
	<g>
		<rect x="143.969" y="51.817" fill="#353F49" width="40.057" height="18.044"/>
		<g>
			<g>
				<path fill="#FFFFFF" d="M160.038,61.735l1.323,0.419c-0.203,0.75-0.537,1.31-1.014,1.673c-0.478,0.364-1.078,0.549-1.815,0.549
					c-0.903,0-1.637-0.321-2.221-0.933c-0.581-0.616-0.874-1.482-0.874-2.541c0-1.137,0.293-2.014,0.879-2.651
					c0.586-0.623,1.345-0.951,2.301-0.951c0.84,0,1.518,0.267,2.032,0.748c0.308,0.305,0.55,0.72,0.696,1.27l-1.361,0.309
					c-0.085-0.332-0.244-0.627-0.504-0.83c-0.261-0.203-0.568-0.319-0.923-0.319c-0.518,0-0.925,0.181-1.236,0.549
					c-0.311,0.366-0.474,0.952-0.474,1.763c0,0.875,0.16,1.487,0.469,1.855c0.308,0.369,0.708,0.557,1.201,0.557
					c0.372,0,0.682-0.13,0.95-0.358C159.734,62.613,159.925,62.248,160.038,61.735z"/>
				<path fill="#FFFFFF" d="M164.037,63.269V61.5h-1.794v-1.218h1.794v-1.768h1.189v1.768h1.783V61.5h-1.783v1.768H164.037z"/>
				<path fill="#FFFFFF" d="M169.598,63.269V61.5h-1.795v-1.218h1.795v-1.768h1.188v1.768h1.784V61.5h-1.784v1.768H169.598z"/>
			</g>
		</g>
	</g>
	<g>
		<circle fill="#F77B55" cx="20.498" cy="167.057" r="20.498"/>
		<g>
			<g>
				<path fill="#FFFFFF" d="M7.658,171.818v-9.496h3.08c1.166,0,1.928,0.043,2.272,0.154c0.549,0.149,0.994,0.438,1.364,0.935
					c0.371,0.461,0.557,1.073,0.557,1.832c0,0.58-0.106,1.089-0.315,1.481c-0.223,0.394-0.481,0.69-0.815,0.91
					c-0.321,0.254-0.646,0.379-0.991,0.473c-0.456,0.074-1.111,0.113-1.98,0.113H9.578v3.598H7.658z M9.578,163.924v2.694h1.051
					c0.759,0,1.261-0.04,1.507-0.152c0.26-0.085,0.458-0.248,0.596-0.455c0.152-0.208,0.229-0.448,0.229-0.744
					c0-0.354-0.101-0.626-0.302-0.842c-0.217-0.224-0.463-0.37-0.772-0.419c-0.238-0.064-0.687-0.082-1.376-0.082H9.578z"/>
				<path fill="#FFFFFF" d="M16.506,171.818v-9.496h1.919v3.73h3.746v-3.73h1.92v9.496h-1.92v-4.17h-3.746v4.17H16.506z"/>
				<path fill="#FFFFFF" d="M26.066,171.818v-9.496h3.064c1.166,0,1.928,0.043,2.286,0.154c0.536,0.149,0.996,0.438,1.366,0.935
					c0.354,0.461,0.541,1.073,0.541,1.832c0,0.58-0.105,1.089-0.313,1.481c-0.209,0.394-0.482,0.69-0.803,0.91
					c-0.335,0.254-0.661,0.379-0.99,0.473c-0.462,0.074-1.127,0.113-1.995,0.113h-1.25v3.598H26.066z M27.972,163.924v2.694h1.051
					c0.758,0,1.26-0.04,1.52-0.152c0.247-0.085,0.445-0.248,0.598-0.455c0.138-0.208,0.214-0.448,0.214-0.744
					c0-0.354-0.102-0.626-0.304-0.842c-0.201-0.224-0.462-0.37-0.771-0.419c-0.223-0.064-0.687-0.082-1.375-0.082H27.972z"/>
			</g>
		</g>
	</g>
</g>
</svg>
