<svg xmlns="http://www.w3.org/2000/svg" viewBox="0 0 200 200"><title>product</title><rect width="200" height="200" style="fill:none"/><polygon points="47.36 102.46 94.51 133.89 94.51 71.02 47.36 102.46" style="fill:#d9d8d7"/><polygon points="141.66 102.46 94.51 133.89 94.51 71.02 141.66 102.46" style="fill:#e6e5e5"/><polygon points="94.51 71.02 47.36 102.47 21.5 85.23 68.66 53.8 94.51 71.02" style="fill:#f2f2f2"/><polygon points="94.51 71.02 141.66 102.46 167.51 85.23 120.36 53.79 94.51 71.02" style="fill:#f2f2f2"/><polygon points="47.36 102.46 47.36 157.48 94.51 188.92 94.51 133.89 47.36 102.46" style="fill:#dd8f73"/><polygon points="141.66 102.46 141.66 157.48 94.51 188.92 94.51 133.89 141.66 102.46" style="fill:#cf886b"/><polygon points="141.66 102.46 141.66 157.48 109.68 178.81 94.51 133.89 141.66 102.46" style="fill:#cf886b"/><polygon points="167.51 119.69 120.36 151.13 94.51 133.89 141.66 102.46 167.51 119.69" style="fill:#f2f2f2"/><polygon points="21.5 119.69 68.66 151.13 94.51 133.89 47.36 102.46 21.5 119.69" style="fill:#f2f2f2"/><path d="M95.85,131l-2.61-.07c.06-2.35.2-4.71.41-7l2.6.23C96,126.36,95.91,128.67,95.85,131Zm1.23-13.67-2.58-.4c.35-2.31.79-4.64,1.29-6.92l2.54.56C97.85,112.76,97.42,115,97.08,117.29ZM100,103.88l-2.5-.72c.65-2.25,1.37-4.5,2.15-6.69l2.45.88C101.36,99.48,100.65,101.68,100,103.88ZM104.63,91l-2.39-1c.93-2.15,1.93-4.29,3-6.37l2.33,1.18C106.51,86.78,105.53,88.86,104.63,91Zm6.22-12.24L108.6,77.4c1.19-2,2.46-4,3.76-5.94l2.15,1.47C113.25,74.81,112,76.75,110.85,78.73Zm7.71-11.35-2.06-1.6c1.43-1.85,2.94-3.67,4.48-5.42l2,1.73C121.43,63.79,120,65.57,118.56,67.37Zm9.08-10.3-1.84-1.84c1.65-1.65,3.38-3.28,5.13-4.81l1.72,2C130.95,53.88,129.26,55.46,127.64,57.08ZM137.95,48l-1.6-2.06c1.85-1.43,3.76-2.82,5.69-4.13L143.5,44C141.62,45.25,139.75,46.6,137.95,48Zm11.36-7.72L148,38c2-1.19,4.09-2.33,6.17-3.38L155.33,37C153.31,38,151.28,39.12,149.31,40.28Zm12.25-6.22-1-2.4c2.14-.92,4.34-1.79,6.55-2.57l.88,2.45C165.8,32.32,163.65,33.17,161.56,34.07Z" transform="translate(0 0)" style="fill:#474f59"/><polygon points="145.99 23.47 147.7 42.06 200 11.08 145.99 23.47" style="fill:#e6e5e5"/><polygon points="150.91 26.94 168.91 39.66 200 11.08 150.91 26.94" style="fill:#f2f2f2"/><polygon points="135.03 15.72 145.99 23.47 200 11.08 135.03 15.72" style="fill:#f2f2f2"/><polygon points="147.7 42.06 150.91 26.94 161.1 34.13 147.7 42.06" style="fill:#cccbca"/><path d="M27.49,56.55A11.6,11.6,0,0,0,15.9,68.14,11.6,11.6,0,0,0,4.32,56.55,11.6,11.6,0,0,0,15.9,45,11.6,11.6,0,0,0,27.49,56.55Z" transform="translate(0 0)" style="fill:#e6e5e5"/><path d="M193.85,102.46a10.44,10.44,0,0,0-10.43,10.43A10.44,10.44,0,0,0,173,102.46,10.44,10.44,0,0,0,183.42,92,10.45,10.45,0,0,0,193.85,102.46Z" transform="translate(0 0)" style="fill:#e6e5e5"/><path d="M102.34,46.92A6.09,6.09,0,0,0,96.25,53a6.09,6.09,0,0,0-6.08-6.08,6.09,6.09,0,0,0,6.08-6.09A6.09,6.09,0,0,0,102.34,46.92Z" transform="translate(0 0)" style="fill:#e6e5e5"/><path d="M78.87,17.76a2.61,2.61,0,0,0-2.61,2.61,2.61,2.61,0,0,0-2.61-2.61,2.61,2.61,0,0,0,2.61-2.61A2.61,2.61,0,0,0,78.87,17.76Z" transform="translate(0 0)" style="fill:#e6e5e5"/><path d="M8.69,94.25A4.35,4.35,0,0,0,4.34,98.6,4.35,4.35,0,0,0,0,94.25,4.35,4.35,0,0,0,4.34,89.9,4.35,4.35,0,0,0,8.69,94.25Z" transform="translate(0 0)" style="fill:#e6e5e5"/></svg>