<svg xmlns="http://www.w3.org/2000/svg" viewBox="0 0 200 200"><title>design</title><rect width="200" height="200" style="fill:none"/><path d="M178.7,33.35V161.84H31a16.51,16.51,0,0,1-16.5-16.5v-112Z" style="fill:#fce8a1"/><path d="M162.45,145.59H29.65v-96h132.8ZM30.14,145.1H161.95v-95H30.14Z" style="fill:#fff"/><rect x="29.9" y="137.75" width="132.3" height="0.5" style="fill:#fff"/><rect x="29.9" y="130.41" width="132.3" height="0.5" style="fill:#fff"/><rect x="29.9" y="123.05" width="132.3" height="0.5" style="fill:#fff"/><rect x="29.9" y="115.72" width="132.3" height="0.49" style="fill:#fff"/><rect x="29.9" y="108.36" width="132.3" height="0.49" style="fill:#fff"/><rect x="29.9" y="101.04" width="132.3" height="0.49" style="fill:#fff"/><rect x="29.9" y="93.67" width="132.3" height="0.49" style="fill:#fff"/><rect x="29.9" y="86.31" width="132.3" height="0.5" style="fill:#fff"/><rect x="29.9" y="78.98" width="132.3" height="0.49" style="fill:#fff"/><rect x="29.9" y="71.63" width="132.3" height="0.49" style="fill:#fff"/><rect x="29.9" y="64.29" width="132.3" height="0.5" style="fill:#fff"/><rect x="29.9" y="56.94" width="132.3" height="0.49" style="fill:#fff"/><rect x="154.6" y="49.85" width="0.5" height="95.5" style="fill:#fff"/><rect x="147.25" y="49.85" width="0.49" height="95.5" style="fill:#fff"/><rect x="139.91" y="49.85" width="0.49" height="95.5" style="fill:#fff"/><rect x="132.55" y="49.85" width="0.49" height="95.5" style="fill:#fff"/><rect x="125.21" y="49.85" width="0.5" height="95.5" style="fill:#fff"/><rect x="117.86" y="49.85" width="0.5" height="95.5" style="fill:#fff"/><rect x="110.52" y="49.85" width="0.49" height="95.5" style="fill:#fff"/><rect x="103.17" y="49.85" width="0.49" height="95.5" style="fill:#fff"/><rect x="95.78" y="49.85" width="0.49" height="95.5" style="fill:#fff"/><rect x="88.43" y="49.85" width="0.5" height="95.5" style="fill:#fff"/><rect x="81.08" y="49.85" width="0.49" height="95.5" style="fill:#fff"/><rect x="73.74" y="49.85" width="0.49" height="95.5" style="fill:#fff"/><rect x="66.39" y="49.85" width="0.5" height="95.5" style="fill:#fff"/><rect x="59.04" y="49.85" width="0.49" height="95.5" style="fill:#fff"/><rect x="51.69" y="49.85" width="0.49" height="95.5" style="fill:#fff"/><rect x="44.35" y="49.85" width="0.49" height="95.5" style="fill:#fff"/><rect x="37" y="49.85" width="0.49" height="95.5" style="fill:#fff"/><path d="M163.26,146.4H28.83V48.79H163.26ZM31,144.29H161.14V50.91H31Z" style="fill:#fff"/><polygon points="165.88 50.91 161.14 50.91 161.14 46.17 163.26 46.17 163.26 48.79 165.88 48.79 165.88 50.91" style="fill:#fff"/><polygon points="163.26 149.02 161.14 149.02 161.14 144.28 165.88 144.28 165.88 146.4 163.26 146.4 163.26 149.02" style="fill:#fff"/><polygon points="30.95 149.02 28.83 149.02 28.83 146.4 26.22 146.4 26.22 144.28 30.95 144.28 30.95 149.02" style="fill:#fff"/><polygon points="30.95 50.91 26.22 50.91 26.22 48.79 28.83 48.79 28.83 46.17 30.95 46.17 30.95 50.91" style="fill:#fff"/><path d="M99.43,131.72H92.68l-1.42-7.07a27.4,27.4,0,0,1-4.59-1.22l-4.76,5.4-5.85-3.37,2.31-6.82A28.36,28.36,0,0,1,75,115.28l-6.82,2.31-3.38-5.86,5.4-4.75A27,27,0,0,1,69,102.39L61.93,101V94.22L69,92.8a27.12,27.12,0,0,1,1.22-4.59l-5.41-4.75,3.38-5.85L75,79.92a27.32,27.32,0,0,1,3.36-3.36l-2.31-6.82,5.85-3.39,4.76,5.41a27.49,27.49,0,0,1,4.59-1.21l1.42-7.08h6.76l1.42,7.07a27.53,27.53,0,0,1,4.58,1.21l4.75-5.4L116,69.74l-2.3,6.81a27.65,27.65,0,0,1,3.35,3.36l6.82-2.3,3.38,5.85-5.4,4.74a28,28,0,0,1,1.22,4.6l7.06,1.42V101l-7.06,1.42a27.72,27.72,0,0,1-1.22,4.59l5.4,4.75-3.38,5.86-6.82-2.31a28.22,28.22,0,0,1-3.36,3.36l2.31,6.81-5.85,3.38-4.75-5.4a27.32,27.32,0,0,1-4.58,1.22Zm-5-2.12h3.28l1.37-6.82.74-.11a25.24,25.24,0,0,0,5.56-1.47l.69-.27,4.58,5.21,2.84-1.64-2.22-6.56.58-.46a25.83,25.83,0,0,0,4.07-4.08l.46-.58,6.57,2.22,1.64-2.84-5.2-4.58.27-.69a25.23,25.23,0,0,0,1.48-5.56l.11-.74,6.8-1.37V96l-6.81-1.37-.11-.74a25.44,25.44,0,0,0-1.48-5.57l-.27-.69,5.2-4.57-1.63-2.83-6.58,2.22-.46-.58a25.86,25.86,0,0,0-4.07-4.08l-.58-.46,2.22-6.56-2.84-1.64L106,74.28l-.69-.27a25.45,25.45,0,0,0-5.56-1.47l-.74-.11L97.69,65.6H94.41L93,72.42l-.73.11A25.26,25.26,0,0,0,86.75,74l-.69.27-4.58-5.21-2.85,1.64,2.22,6.57-.58.46a25.22,25.22,0,0,0-4.07,4.07l-.46.58-6.58-2.22L67.51,83l5.21,4.58-.27.69A25.57,25.57,0,0,0,71,93.85l-.11.74L64.05,96v3.28l6.81,1.37.11.74a25.22,25.22,0,0,0,1.48,5.56l.28.69-5.21,4.58L69.16,115l6.57-2.22.46.58a25.61,25.61,0,0,0,4.07,4.07l.58.46-2.22,6.58,2.85,1.64,4.58-5.21.69.27a25.58,25.58,0,0,0,5.57,1.48l.74.11Z" style="fill:#fff"/><path d="M96.08,117a19.4,19.4,0,1,1,19.38-19.42A19.44,19.44,0,0,1,96.08,117Zm0-36.68a17.28,17.28,0,1,0,17.25,17.26A17.31,17.31,0,0,0,96.08,80.33Z" style="fill:#fff"/><path d="M96.05,102.34a4.74,4.74,0,1,1,4.74-4.74A4.75,4.75,0,0,1,96.05,102.34Zm0-7.35a2.62,2.62,0,1,0,2.62,2.61A2.62,2.62,0,0,0,96.05,95Z" style="fill:#fff"/><path d="M31,16.85v112a16.51,16.51,0,0,0-16.51,16.51v-112A16.5,16.5,0,0,1,31,16.85Z" style="fill:#353f49"/><path d="M105.22,183.15H200V88.36ZM139.43,169l46.41-46.42V169Z" style="fill:#e78967"/><rect x="197.46" y="177.8" width="2.54" height="1.23" style="fill:#fff"/><rect x="197.46" y="173.05" width="2.54" height="1.24" style="fill:#fff"/><rect x="197.46" y="168.31" width="2.54" height="1.24" style="fill:#fff"/><rect x="197.46" y="163.58" width="2.54" height="1.23" style="fill:#fff"/><rect x="197.46" y="158.84" width="2.54" height="1.24" style="fill:#fff"/><rect x="197.46" y="154.1" width="2.54" height="1.23" style="fill:#fff"/><rect x="197.46" y="149.36" width="2.54" height="1.23" style="fill:#fff"/><rect x="197.46" y="144.62" width="2.54" height="1.23" style="fill:#fff"/><rect x="197.46" y="139.88" width="2.54" height="1.24" style="fill:#fff"/><rect x="197.46" y="135.14" width="2.54" height="1.23" style="fill:#fff"/><rect x="197.46" y="130.4" width="2.54" height="1.23" style="fill:#fff"/><rect x="197.46" y="125.66" width="2.54" height="1.23" style="fill:#fff"/><rect x="197.46" y="120.92" width="2.54" height="1.23" style="fill:#fff"/><rect x="197.46" y="116.18" width="2.54" height="1.23" style="fill:#fff"/><rect x="197.46" y="111.44" width="2.54" height="1.23" style="fill:#fff"/><rect x="197.46" y="106.7" width="2.54" height="1.24" style="fill:#fff"/><rect x="197.46" y="101.96" width="2.54" height="1.24" style="fill:#fff"/><rect x="197.46" y="97.22" width="2.54" height="1.23" style="fill:#fff"/><rect x="197.46" y="92.48" width="2.54" height="1.23" style="fill:#fff"/><polygon points="2.56 72.77 0 81.16 8.39 81.16 5.84 72.77 2.56 72.77" style="fill:#f2f2f2"/><polygon points="4.81 72.77 5.76 81.16 8.39 81.16 5.84 72.77 4.81 72.77" style="fill:#cccbca"/><rect y="81.16" width="8.4" height="92.09" style="fill:#ffdb79"/><rect x="5.76" y="81.16" width="2.64" height="92.09" style="fill:#fab83e"/><polygon points="5.83 72.77 4.2 67.37 2.54 72.77 5.83 72.77" style="fill:#656a73"/><polygon points="5.83 72.77 4.2 67.37 4.81 72.77 5.83 72.77" style="fill:#232e38"/><rect y="173.24" width="8.4" height="3.07" style="fill:#f2f2f2"/><rect x="5.76" y="173.24" width="2.64" height="3.07" style="fill:#cccbca"/><path d="M8.4,179a4.26,4.26,0,0,1-1.22,3,4.25,4.25,0,0,1-3,1.22h0A4.18,4.18,0,0,1,0,179v-2.64H8.4Z" style="fill:#f77b55"/><path d="M5.76,176.31a4.2,4.2,0,0,1-4.2,4.19,4,4,0,0,1-1.32-.23,4.11,4.11,0,0,0,4,2.87,4.25,4.25,0,0,0,3-1.22,4.26,4.26,0,0,0,1.22-3v-2.64H5.76Z" style="fill:#ee643c"/></svg>