<svg xmlns="http://www.w3.org/2000/svg" viewBox="0 0 200 200"><title>idea</title><rect x="91.03" width="2.72" height="10.17" style="fill:#474f59"/><polygon points="71.77 2.31 74.44 1.74 76.55 11.7 73.89 12.26 71.77 2.31" style="fill:#474f59"/><polygon points="53.42 8.57 55.91 7.47 60.05 16.76 57.55 17.86 53.42 8.57" style="fill:#474f59"/><polygon points="36.78 18.51 38.97 16.91 44.95 25.14 42.74 26.74 36.78 18.51" style="fill:#474f59"/><polygon points="22.55 31.7 24.37 29.68 31.93 36.48 30.1 38.51 22.55 31.7" style="fill:#474f59"/><polygon points="11.38 47.56 12.74 45.2 21.55 50.28 20.18 52.66 11.38 47.56" style="fill:#474f59"/><polygon points="3.75 65.39 4.59 62.8 14.26 65.94 13.43 68.54 3.75 65.39" style="fill:#474f59"/><polygon points="0 84.42 0.28 81.7 10.39 82.77 10.11 85.48 0 84.42" style="fill:#474f59"/><polygon points="0 101.1 10.11 100.04 10.39 102.75 0.28 103.82 0 101.1" style="fill:#474f59"/><polygon points="3.75 120.13 13.43 116.99 14.26 119.58 4.59 122.72 3.75 120.13" style="fill:#474f59"/><rect x="18.99" y="135.24" width="10.17" height="2.73" transform="translate(-72.68 30.34) rotate(-30)" style="fill:#474f59"/><polygon points="22.55 153.82 30.11 147.01 31.93 149.04 24.37 155.84 22.55 153.82" style="fill:#474f59"/><polygon points="36.78 167.01 42.75 158.78 44.95 160.37 38.98 168.6 36.78 167.01" style="fill:#474f59"/><polygon points="53.42 176.94 57.55 167.66 60.05 168.77 55.91 178.06 53.42 176.94" style="fill:#474f59"/><polygon points="124.75 168.77 127.23 167.66 131.37 176.94 128.87 178.06 124.75 168.77" style="fill:#474f59"/><polygon points="139.83 160.37 142.04 158.78 148.03 167.01 145.81 168.6 139.83 160.37" style="fill:#474f59"/><polygon points="152.85 149.04 154.68 147.01 162.24 153.82 160.42 155.84 152.85 149.04" style="fill:#474f59"/><rect x="174.57" y="131.52" width="2.72" height="10.17" transform="translate(-37.9 220.79) rotate(-60.03)" style="fill:#474f59"/><polygon points="170.52 119.58 171.36 117 181.03 120.13 180.19 122.72 170.52 119.58" style="fill:#474f59"/><polygon points="174.4 102.75 174.68 100.05 184.78 101.1 184.51 103.82 174.4 102.75" style="fill:#474f59"/><polygon points="174.4 82.77 184.5 81.7 184.79 84.42 174.68 85.48 174.4 82.77" style="fill:#474f59"/><polygon points="170.52 65.94 180.19 62.8 181.03 65.39 171.37 68.54 170.52 65.94" style="fill:#474f59"/><polygon points="163.24 50.28 172.04 45.2 173.41 47.56 164.6 52.66 163.24 50.28" style="fill:#474f59"/><polygon points="152.87 36.48 160.42 29.68 162.24 31.7 154.69 38.51 152.87 36.48" style="fill:#474f59"/><polygon points="139.84 25.14 145.81 16.91 148.03 18.52 142.05 26.74 139.84 25.14" style="fill:#474f59"/><polygon points="124.75 16.76 128.87 7.47 131.37 8.57 127.24 17.86 124.75 16.76" style="fill:#474f59"/><polygon points="108.24 11.7 110.34 1.74 113.02 2.31 110.9 12.26 108.24 11.7" style="fill:#474f59"/><path d="M152,92.76a52,52,0,1,1-52-52A52,52,0,0,1,152,92.76Z" transform="translate(-7.61)" style="fill:#fce8a1"/><path d="M119.22,126.46,100,131.3l-19.22-4.85a6.38,6.38,0,0,1,.52-1.31l.22-.4,18.48-32,18.48,32,.22.4A6.29,6.29,0,0,1,119.22,126.46Z" transform="translate(-7.61)" style="fill:#fff"/><polygon points="92.39 92.76 98.79 127.14 98.87 128.19 110.86 124.75 92.39 92.76" style="fill:#d9d8d7"/><polygon points="92.39 92.76 85.75 104.26 99.03 104.26 92.39 92.76" style="fill:#474f59"/><polygon points="92.39 92.76 94.53 104.26 99.03 104.26 92.39 92.76" style="fill:#353f49"/><rect x="72.93" y="128.19" width="12.97" height="43.98" style="fill:#ff916e"/><rect x="85.9" y="128.19" width="12.97" height="43.98" style="fill:#e5896a"/><rect x="98.87" y="128.19" width="12.98" height="43.98" style="fill:#e28160"/><circle cx="79.42" cy="128.19" r="6.49" style="fill:#ff916e"/><path d="M106.48,128.19a6.49,6.49,0,1,1-6.49-6.49A6.49,6.49,0,0,1,106.48,128.19Z" transform="translate(-7.61)" style="fill:#e5896a"/><circle cx="105.36" cy="128.19" r="6.48" style="fill:#e28160"/><rect x="71.89" y="172.17" width="41.25" height="13.91" style="fill:#f2f2f2"/><rect x="98.87" y="172.17" width="14.27" height="13.91" style="fill:#d9d8d7"/><path d="M119.45,192.22a7.78,7.78,0,0,1-7.78,7.78H88.32a7.78,7.78,0,0,1-7.78-7.78v-6.13h38.91v6.13Z" transform="translate(-7.61)" style="fill:#474f59"/><path d="M106.47,186.09v6.13A7.78,7.78,0,0,1,98.69,200h13a7.78,7.78,0,0,0,7.78-7.78v-6.13Z" transform="translate(-7.61)" style="fill:#353f49"/></svg>