<svg xmlns="http://www.w3.org/2000/svg" viewBox="0 0 363 243.7"><title>business-strategy</title><line x1="324.26" y1="153.48" x2="324.26" y2="165.64" style="fill:none;stroke:#414042;stroke-miterlimit:10;stroke-width:1.5px"/><rect x="309.9" y="163.73" width="28.63" height="79.14" style="fill:#d0ccce"/><rect x="309.9" y="163.73" width="28.63" height="79.14" style="fill:none;stroke:#414042;stroke-miterlimit:10;stroke-width:1.5px"/><line x1="312.19" y1="203.2" x2="336.32" y2="203.2" style="fill:none;stroke:#414042;stroke-miterlimit:10;stroke-width:1.5px"/><line x1="312.19" y1="200.86" x2="336.32" y2="200.86" style="fill:none;stroke:#414042;stroke-miterlimit:10;stroke-width:1.5px"/><line x1="312.19" y1="198.52" x2="336.32" y2="198.52" style="fill:none;stroke:#414042;stroke-miterlimit:10;stroke-width:1.5px"/><line x1="312.19" y1="196.18" x2="336.32" y2="196.18" style="fill:none;stroke:#414042;stroke-miterlimit:10;stroke-width:1.5px"/><line x1="312.19" y1="193.84" x2="336.32" y2="193.84" style="fill:none;stroke:#414042;stroke-miterlimit:10;stroke-width:1.5px"/><line x1="312.19" y1="191.5" x2="336.32" y2="191.5" style="fill:none;stroke:#414042;stroke-miterlimit:10;stroke-width:1.5px"/><line x1="312.19" y1="189.16" x2="336.32" y2="189.16" style="fill:none;stroke:#414042;stroke-miterlimit:10;stroke-width:1.5px"/><line x1="312.19" y1="186.82" x2="336.32" y2="186.82" style="fill:none;stroke:#414042;stroke-miterlimit:10;stroke-width:1.5px"/><line x1="312.19" y1="184.48" x2="336.32" y2="184.48" style="fill:none;stroke:#414042;stroke-miterlimit:10;stroke-width:1.5px"/><line x1="312.19" y1="182.14" x2="336.32" y2="182.14" style="fill:none;stroke:#414042;stroke-miterlimit:10;stroke-width:1.5px"/><line x1="312.19" y1="179.79" x2="336.32" y2="179.79" style="fill:none;stroke:#414042;stroke-miterlimit:10;stroke-width:1.5px"/><line x1="312.19" y1="177.45" x2="336.32" y2="177.45" style="fill:none;stroke:#414042;stroke-miterlimit:10;stroke-width:1.5px"/><line x1="312.19" y1="175.11" x2="336.32" y2="175.11" style="fill:none;stroke:#414042;stroke-miterlimit:10;stroke-width:1.5px"/><line x1="312.19" y1="172.77" x2="336.32" y2="172.77" style="fill:none;stroke:#414042;stroke-miterlimit:10;stroke-width:1.5px"/><line x1="312.19" y1="170.43" x2="336.32" y2="170.43" style="fill:none;stroke:#414042;stroke-miterlimit:10;stroke-width:1.5px"/><line x1="312.19" y1="168.09" x2="336.32" y2="168.09" style="fill:none;stroke:#414042;stroke-miterlimit:10;stroke-width:1.5px"/><line x1="312.19" y1="235.9" x2="336.32" y2="235.9" style="fill:none;stroke:#414042;stroke-miterlimit:10;stroke-width:1.5px"/><line x1="312.19" y1="233.64" x2="336.32" y2="233.64" style="fill:none;stroke:#414042;stroke-miterlimit:10;stroke-width:1.5px"/><line x1="312.19" y1="231.3" x2="336.32" y2="231.3" style="fill:none;stroke:#414042;stroke-miterlimit:10;stroke-width:1.5px"/><line x1="312.19" y1="228.95" x2="336.32" y2="228.95" style="fill:none;stroke:#414042;stroke-miterlimit:10;stroke-width:1.5px"/><line x1="312.19" y1="226.61" x2="336.32" y2="226.61" style="fill:none;stroke:#414042;stroke-miterlimit:10;stroke-width:1.5px"/><line x1="312.19" y1="224.27" x2="336.32" y2="224.27" style="fill:none;stroke:#414042;stroke-miterlimit:10;stroke-width:1.5px"/><line x1="312.19" y1="221.93" x2="336.32" y2="221.93" style="fill:none;stroke:#414042;stroke-miterlimit:10;stroke-width:1.5px"/><line x1="312.19" y1="219.59" x2="336.32" y2="219.59" style="fill:none;stroke:#414042;stroke-miterlimit:10;stroke-width:1.5px"/><line x1="312.19" y1="217.25" x2="336.32" y2="217.25" style="fill:none;stroke:#414042;stroke-miterlimit:10;stroke-width:1.5px"/><line x1="312.19" y1="214.91" x2="336.32" y2="214.91" style="fill:none;stroke:#414042;stroke-miterlimit:10;stroke-width:1.5px"/><line x1="312.19" y1="212.57" x2="336.32" y2="212.57" style="fill:none;stroke:#414042;stroke-miterlimit:10;stroke-width:1.5px"/><line x1="312.19" y1="210.23" x2="336.32" y2="210.23" style="fill:none;stroke:#414042;stroke-miterlimit:10;stroke-width:1.5px"/><line x1="312.19" y1="207.89" x2="336.32" y2="207.89" style="fill:none;stroke:#414042;stroke-miterlimit:10;stroke-width:1.5px"/><line x1="312.19" y1="205.55" x2="336.32" y2="205.55" style="fill:none;stroke:#414042;stroke-miterlimit:10;stroke-width:1.5px"/><rect x="319.86" y="237.76" width="7.32" height="5.11" style="fill:none;stroke:#414042;stroke-miterlimit:10;stroke-width:1.5px"/><line x1="323.52" y1="237.76" x2="323.52" y2="242.87" style="fill:none;stroke:#414042;stroke-miterlimit:10;stroke-width:1.5px"/><polygon points="325.89 231.9 325.89 225.93 321.92 225.93 321.92 162.98 309.15 162.98 309.15 243.62 311.54 243.62 319.11 243.62 321.92 243.62 321.92 231.9 325.89 231.9" style="fill:#231f20;opacity:0.30000001192092896;isolation:isolate"/><rect x="275.48" y="139.1" width="42.69" height="103.77" style="fill:#d0ccce"/><rect x="275.48" y="139.1" width="42.69" height="88.79" style="fill:#fec1a0"/><polygon points="284.44 139.1 275.48 148.06 275.48 200.96 318.17 158.27 318.17 140.15 317.12 139.1 284.44 139.1" style="fill:#ffe6d9"/><polygon points="275.48 223.03 276.46 224.01 318.17 182.3 318.17 164.23 275.48 206.92 275.48 223.03" style="fill:#ffe6d9"/><rect x="275.48" y="139.1" width="42.69" height="103.77" style="fill:none;stroke:#414042;stroke-miterlimit:10;stroke-width:1.5px"/><line x1="286.15" y1="139.04" x2="286.15" y2="226.89" style="fill:none;stroke:#414042;stroke-miterlimit:10;stroke-width:1.5px"/><line x1="296.82" y1="139.04" x2="296.82" y2="226.89" style="fill:none;stroke:#414042;stroke-miterlimit:10;stroke-width:1.5px"/><line x1="307.5" y1="139.04" x2="307.5" y2="226.89" style="fill:none;stroke:#414042;stroke-miterlimit:10;stroke-width:1.5px"/><line x1="275.48" y1="170.01" x2="318.17" y2="170.01" style="fill:none;stroke:#414042;stroke-miterlimit:10;stroke-width:1.5px"/><line x1="275.48" y1="200.92" x2="318.17" y2="200.92" style="fill:none;stroke:#414042;stroke-miterlimit:10;stroke-width:1.5px"/><rect x="271.02" y="226.68" width="51.12" height="4.47" style="fill:#d0ccce"/><rect x="271.02" y="226.68" width="51.12" height="4.47" style="fill:none;stroke:#414042;stroke-miterlimit:10;stroke-width:1.5px"/><rect x="271.26" y="137.51" width="51.12" height="5.38" style="fill:#d0ccce"/><rect x="271.26" y="137.51" width="51.12" height="5.38" style="fill:none;stroke:#414042;stroke-miterlimit:10;stroke-width:1.5px"/><rect x="278.2" y="133.56" width="37.45" height="3.94" style="fill:#f1f2f2"/><rect x="278.2" y="133.56" width="37.45" height="3.94" style="fill:none;stroke:#414042;stroke-miterlimit:10;stroke-width:1.5px"/><rect x="286.1" y="234.86" width="21.69" height="8.01" style="fill:none;stroke:#414042;stroke-miterlimit:10;stroke-width:1.5px"/><line x1="296.93" y1="234.86" x2="296.93" y2="242.87" style="fill:none;stroke:#414042;stroke-miterlimit:10;stroke-width:1.5px"/><polygon points="155.18 238.25 99.95 238.25 107.04 217.66 148.34 217.66 155.18 238.25" style="fill:#fffffe"/><polygon points="100.94 233.83 153.02 230.77 148.59 218.79 106.54 218.79 100.94 233.83" style="fill:#bcbec0"/><polyline points="99.95 238.25 107.04 217.66 148.34 217.66 155.18 238.25" style="fill:none;stroke:#414042;stroke-miterlimit:10;stroke-width:1.5px"/><rect x="63.43" y="148.21" width="128.26" height="68.73" rx="2.03" ry="2.03" style="fill:#535151"/><path d="M191.7,213.24v7.83a5.23,5.23,0,0,1-5.41,5H68.85a5.23,5.23,0,0,1-5.41-5v-7.83Z" transform="translate(0 0.05)" style="fill:#fffffe"/><rect x="68.18" y="152.88" width="118.77" height="55.8" style="fill:#ecebeb"/><rect x="95.55" y="238.25" width="64.02" height="4.62" style="fill:#f1f2f2"/><path d="M151.33,238.2h5.94a2.31,2.31,0,0,1,2.31,2.31h0a2.31,2.31,0,0,1-2.31,2.31H97.86a2.31,2.31,0,0,1-2.31-2.31h0a2.31,2.31,0,0,1,2.31-2.31h23.08" transform="translate(0 0.05)" style="fill:none;stroke:#414042;stroke-miterlimit:10;stroke-width:1.5px"/><rect x="63.43" y="148.21" width="128.26" height="77.96" rx="2.03" ry="2.03" style="fill:none;stroke:#414042;stroke-miterlimit:10;stroke-width:1.5px"/><line x1="63.43" y1="213.28" x2="191.7" y2="213.28" style="fill:none;stroke:#414042;stroke-miterlimit:10;stroke-width:1.5px"/><g style="opacity:0.30000001192092896"><path d="M178.39,204.42v-4a3.58,3.58,0,0,0,.26.29,5.09,5.09,0,0,0,3.6,1.5h.45a22.72,22.72,0,0,0,9.74-2.95V179.52a18.57,18.57,0,0,0-10.25,4.75,16.26,16.26,0,0,0-3.8,6.41V178.34a28.61,28.61,0,0,0,14.05-4.1v-24a2.78,2.78,0,0,0-2.78-2.78H148.94c-.05.71-.09,1.43-.09,2.16a28.82,28.82,0,0,0,28,28.77v14a17.22,17.22,0,0,0-4.28-8c-5.57-5.57-15-5.22-16.93-5.08l-.11-.11-.13.13h-.12l-.61.06-.06.61h0l-.13.13.11.11c-.14,2-.5,11.36,5.08,16.93,3.55,3.55,8.7,4.69,12.4,5h.45a5.08,5.08,0,0,0,4.34-2.44v4.65H147.38a1.57,1.57,0,0,0-1.58,1.56s0,0,0,.06v7.93a1.57,1.57,0,0,0,1.57,1.57h3l2.15,11.37h37.14a2.78,2.78,0,0,0,2.78-2.78V204.42Zm12.55,19.66a1.28,1.28,0,0,1-1.28,1.28h-.58a5.25,5.25,0,0,0,1.86-1.75Z" transform="translate(0 0.05)" style="fill:#231f20"/><path d="M159.58,242.82v-.32a3,3,0,0,0,0-4v-.33h-.33a3,3,0,0,0-2-.75H155.7l-2.7-8.28,2.73,14.43h1.58a3,3,0,0,0,2-.75Z" transform="translate(0 0.05)" style="fill:#231f20"/></g><line x1="181.64" y1="161.93" x2="181.64" y2="217.92" style="fill:none;stroke:#414042;stroke-miterlimit:10;stroke-width:1.5px"/><polygon points="202.98 242.87 160.31 242.87 154.05 209.8 209.24 209.8 202.98 242.87" style="fill:#aca39e"/><polygon points="205.87 209.8 200.15 240.04 159.77 240.04 160.31 242.87 202.98 242.87 209.24 209.8 205.87 209.8" style="fill:#817a77"/><polygon points="157.46 227.83 207.7 217.92 209.24 209.8 154.05 209.8 157.46 227.83" style="fill:#231f20;opacity:0.30000001192092896;isolation:isolate"/><polygon points="202.98 242.87 160.31 242.87 154.05 209.8 209.24 209.8 202.98 242.87" style="fill:none;stroke:#414042;stroke-miterlimit:10;stroke-width:1.5px"/><rect x="150.55" y="205.22" width="62.18" height="9.57" rx="1.31" ry="1.31" style="fill:#aca39e"/><path d="M210.88,205.17H152.4a1.85,1.85,0,0,0-1.85,1.85h0v1H208a1.85,1.85,0,0,1,1.85,1.85h0v4.9h1a1.85,1.85,0,0,0,1.85-1.85h0V207a1.85,1.85,0,0,0-1.87-1.83Z" transform="translate(0 0.05)" style="fill:#dedad8"/><rect x="150.55" y="205.22" width="62.18" height="9.57" rx="0.82" ry="0.82" style="fill:none;stroke:#414042;stroke-miterlimit:10;stroke-width:1.5px"/><path d="M203.4,180s1.11,10.74-4.83,16.68c-3.38,3.38-8.31,4.48-11.93,4.79a4.35,4.35,0,0,1-4.71-4.71c.32-3.63,1.42-8.56,4.79-11.93C192.66,178.86,203.4,180,203.4,180Z" transform="translate(0 0.05)" style="fill:#e78967"/><path d="M203.4,180s1.11,10.74-4.83,16.68c-3.38,3.38-8.31,4.48-11.93,4.79a4.35,4.35,0,0,1-4.71-4.71c.32-3.63,1.42-8.56,4.79-11.93C192.66,178.86,203.4,180,203.4,180Z" transform="translate(0 0.05)" style="fill:none;stroke:#414042;stroke-miterlimit:10;stroke-width:1.5px"/><line x1="183.19" y1="200.24" x2="203.76" y2="179.67" style="fill:none;stroke:#414042;stroke-miterlimit:10;stroke-width:1.5px"/><line x1="194.19" y1="189.24" x2="194.19" y2="180.82" style="fill:none;stroke:#414042;stroke-miterlimit:10;stroke-width:1.5px"/><line x1="186.74" y1="196.68" x2="186.74" y2="184.85" style="fill:none;stroke:#414042;stroke-miterlimit:10;stroke-width:1.5px"/><line x1="201.32" y1="192.85" x2="190.64" y2="192.79" style="fill:none;stroke:#414042;stroke-miterlimit:10;stroke-width:1.5px"/><path d="M159.4,180s-1.11,10.74,4.83,16.68c3.38,3.38,8.31,4.48,11.93,4.79a4.35,4.35,0,0,0,4.71-4.71c-.32-3.63-1.42-8.56-4.79-11.93C170.14,178.86,159.4,180,159.4,180Z" transform="translate(0 0.05)" style="fill:#e78967"/><path d="M159.4,180s-1.11,10.74,4.83,16.68c3.38,3.38,8.31,4.48,11.93,4.79a4.35,4.35,0,0,0,4.71-4.71c-.32-3.63-1.42-8.56-4.79-11.93C170.14,178.86,159.4,180,159.4,180Z" transform="translate(0 0.05)" style="fill:none;stroke:#414042;stroke-miterlimit:10;stroke-width:1.5px"/><line x1="179.62" y1="200.24" x2="159.05" y2="179.67" style="fill:none;stroke:#414042;stroke-miterlimit:10;stroke-width:1.5px"/><line x1="168.62" y1="189.24" x2="168.62" y2="180.82" style="fill:none;stroke:#414042;stroke-miterlimit:10;stroke-width:1.5px"/><line x1="176.06" y1="196.68" x2="176.06" y2="184.85" style="fill:none;stroke:#414042;stroke-miterlimit:10;stroke-width:1.5px"/><line x1="161.48" y1="192.85" x2="172.17" y2="192.79" style="fill:none;stroke:#414042;stroke-miterlimit:10;stroke-width:1.5px"/><circle cx="181.64" cy="149.62" r="28.04" style="fill:#fde99d"/><circle cx="181.64" cy="149.62" r="21.57" style="fill:#fef2c4"/><circle cx="181.64" cy="149.62" r="28.04" style="fill:none;stroke:#414042;stroke-miterlimit:10;stroke-width:1.5px"/><path d="M180.36,162.32v-2.26a14.12,14.12,0,0,1-7.26-3.57L176,153a12.54,12.54,0,0,0,4.37,2.7v-4.62a11,11,0,0,1-4.78-2.25,5.27,5.27,0,0,1-1.52-4.06,5.89,5.89,0,0,1,1.74-4.37,7.54,7.54,0,0,1,4.56-2.06v-1.52h3.29v1.58a14.23,14.23,0,0,1,6.17,2.57l-2.54,3.66a11.85,11.85,0,0,0-3.63-1.86v4.47a11.66,11.66,0,0,1,4.94,2.33,5.3,5.3,0,0,1,1.6,4.12,5.88,5.88,0,0,1-1.78,4.4,7.87,7.87,0,0,1-4.76,2.08v2.17Zm0-19.69a1.72,1.72,0,0,0-1.33,1.71,2,2,0,0,0,1.33,1.89Zm4.87,11.29a1.71,1.71,0,0,0-.34-1.09,3.07,3.07,0,0,0-1.24-.8v3.81a1.93,1.93,0,0,0,1.57-1.92Z" transform="translate(0 0.05)" style="fill:#535151"/><line x1="181.64" y1="111.08" x2="181.64" y2="120.08" style="fill:none;stroke:#414042;stroke-miterlimit:10;stroke-width:1.5px"/><line x1="190.19" y1="117.84" x2="189.31" y2="121.09" style="fill:none;stroke:#414042;stroke-miterlimit:10;stroke-width:1.5px"/><line x1="200.97" y1="116.27" x2="196.45" y2="124.06" style="fill:none;stroke:#414042;stroke-miterlimit:10;stroke-width:1.5px"/><line x1="205.54" y1="125.83" x2="202.58" y2="128.78" style="fill:none;stroke:#414042;stroke-miterlimit:10;stroke-width:1.5px"/><line x1="215.08" y1="130.45" x2="207.27" y2="134.93" style="fill:none;stroke:#414042;stroke-miterlimit:10;stroke-width:1.5px"/><line x1="214.47" y1="141.54" x2="210.2" y2="142.09" style="fill:none;stroke:#414042;stroke-miterlimit:10;stroke-width:1.5px"/><line x1="220.18" y1="149.8" x2="211.18" y2="149.76" style="fill:none;stroke:#414042;stroke-miterlimit:10;stroke-width:1.5px"/><line x1="214.9" y1="158.72" x2="210.13" y2="157.42" style="fill:none;stroke:#414042;stroke-miterlimit:10;stroke-width:1.5px"/><line x1="214.9" y1="169.1" x2="207.13" y2="164.55" style="fill:none;stroke:#414042;stroke-miterlimit:10;stroke-width:1.5px"/><line x1="205.54" y1="173.86" x2="202.38" y2="170.65" style="fill:none;stroke:#414042;stroke-miterlimit:10;stroke-width:1.5px"/><line x1="157.98" y1="172.72" x2="160.51" y2="170.25" style="fill:none;stroke:#414042;stroke-miterlimit:10;stroke-width:1.5px"/><line x1="148.03" y1="168.46" x2="155.88" y2="164.06" style="fill:none;stroke:#414042;stroke-miterlimit:10;stroke-width:1.5px"/><line x1="148.9" y1="157.98" x2="153.01" y2="156.88" style="fill:none;stroke:#414042;stroke-miterlimit:10;stroke-width:1.5px"/><line x1="143.11" y1="149.07" x2="152.11" y2="149.19" style="fill:none;stroke:#414042;stroke-miterlimit:10;stroke-width:1.5px"/><line x1="148.9" y1="140.31" x2="153.23" y2="141.54" style="fill:none;stroke:#414042;stroke-miterlimit:10;stroke-width:1.5px"/><line x1="148.58" y1="129.82" x2="156.3" y2="134.44" style="fill:none;stroke:#414042;stroke-miterlimit:10;stroke-width:1.5px"/><line x1="157.98" y1="125.15" x2="161.11" y2="128.39" style="fill:none;stroke:#414042;stroke-miterlimit:10;stroke-width:1.5px"/><line x1="162.96" y1="115.91" x2="167.32" y2="123.78" style="fill:none;stroke:#414042;stroke-miterlimit:10;stroke-width:1.5px"/><line x1="173.48" y1="116.75" x2="174.52" y2="120.95" style="fill:none;stroke:#414042;stroke-miterlimit:10;stroke-width:1.5px"/><line x1="231.56" y1="136.9" x2="241.65" y2="136.9" style="fill:none;stroke:#414042;stroke-miterlimit:10;stroke-width:1.5px"/><line x1="231.56" y1="142.24" x2="237.93" y2="142.24" style="fill:none;stroke:#414042;stroke-miterlimit:10;stroke-width:1.5px"/><line x1="231.56" y1="139.57" x2="241.65" y2="139.57" style="fill:none;stroke:#414042;stroke-miterlimit:10;stroke-width:1.5px"/><polyline points="229.15 137.68 225.38 141.45 223.37 139.45" style="fill:none;stroke:#414042;stroke-miterlimit:10;stroke-width:1.5px"/><line x1="121.96" y1="124.44" x2="132.05" y2="124.44" style="fill:none;stroke:#414042;stroke-miterlimit:10;stroke-width:1.5px"/><line x1="121.96" y1="129.77" x2="128.33" y2="129.77" style="fill:none;stroke:#414042;stroke-miterlimit:10;stroke-width:1.5px"/><line x1="121.96" y1="127.11" x2="132.05" y2="127.11" style="fill:none;stroke:#414042;stroke-miterlimit:10;stroke-width:1.5px"/><polyline points="119.55 125.22 115.77 128.99 113.77 126.99" style="fill:none;stroke:#414042;stroke-miterlimit:10;stroke-width:1.5px"/><path d="M334.32,140.72q.4,5.51.4,11.11" transform="translate(0 0.05)" style="fill:none;stroke:#414042;stroke-miterlimit:10;stroke-width:1.5px"/><path d="M32.56,151.83A151.09,151.09,0,0,1,333.19,130.2" transform="translate(0 0.05)" style="fill:none;stroke:#414042;stroke-miterlimit:10;stroke-width:1.5px"/><path d="M33.13,165q-.14-1.68-.25-3.37" transform="translate(0 0.05)" style="fill:none;stroke:#414042;stroke-miterlimit:10;stroke-width:1.5px"/><path d="M37.82,191.49q-.7-2.6-1.32-5.23t-1.19-5.59" transform="translate(0 0.05)" style="fill:none;stroke:#414042;stroke-miterlimit:10;stroke-width:1.5px"/><line x1="227.01" y1="116.76" x2="221.88" y2="116.76" style="fill:none;stroke:#414042;stroke-miterlimit:10;stroke-width:1.5px"/><line x1="224.45" y1="119.32" x2="224.45" y2="114.19" style="fill:none;stroke:#414042;stroke-miterlimit:10;stroke-width:1.5px"/><line x1="110.59" y1="104.57" x2="105.45" y2="104.57" style="fill:none;stroke:#414042;stroke-miterlimit:10;stroke-width:1.5px"/><line x1="108.02" y1="107.14" x2="108.02" y2="102" style="fill:none;stroke:#414042;stroke-miterlimit:10;stroke-width:1.5px"/><line x1="309.78" y1="119.65" x2="305.19" y2="119.65" style="fill:none;stroke:#414042;stroke-miterlimit:10;stroke-width:1.5px"/><line x1="307.49" y1="121.95" x2="307.49" y2="117.36" style="fill:none;stroke:#414042;stroke-miterlimit:10;stroke-width:1.5px"/><line x1="199.81" y1="44.57" x2="195.63" y2="44.57" style="fill:none;stroke:#414042;stroke-miterlimit:10;stroke-width:1.5px"/><line x1="197.72" y1="46.66" x2="197.72" y2="42.48" style="fill:none;stroke:#414042;stroke-miterlimit:10;stroke-width:1.5px"/><line x1="104.24" y1="64.67" x2="100.48" y2="64.67" style="fill:none;stroke:#414042;stroke-miterlimit:10;stroke-width:1.5px"/><line x1="102.36" y1="66.56" x2="102.36" y2="62.79" style="fill:none;stroke:#414042;stroke-miterlimit:10;stroke-width:1.5px"/><line x1="52.72" y1="115.71" x2="48.95" y2="115.71" style="fill:none;stroke:#414042;stroke-miterlimit:10;stroke-width:1.5px"/><line x1="50.83" y1="117.59" x2="50.83" y2="113.83" style="fill:none;stroke:#414042;stroke-miterlimit:10;stroke-width:1.5px"/><line x1="235.9" y1="116.76" x2="233.5" y2="116.76" style="fill:none;stroke:#414042;stroke-miterlimit:10;stroke-width:1.5px"/><line x1="252.73" y1="116.76" x2="237.5" y2="116.76" style="fill:none;stroke:#414042;stroke-miterlimit:10;stroke-width:1.5px"/><line x1="278.2" y1="109.8" x2="244.11" y2="109.8" style="fill:none;stroke:#414042;stroke-miterlimit:10;stroke-width:1.5px"/><line x1="283.9" y1="97.7" x2="267.23" y2="97.7" style="fill:none;stroke:#414042;stroke-miterlimit:10;stroke-width:1.5px"/><line x1="229.38" y1="116.76" x2="231.62" y2="116.76" style="fill:none;stroke:#414042;stroke-miterlimit:10;stroke-width:1.5px"/><line x1="84.15" y1="87.63" x2="81.76" y2="87.63" style="fill:none;stroke:#414042;stroke-miterlimit:10;stroke-width:1.5px"/><line x1="111.9" y1="87.63" x2="85.76" y2="87.63" style="fill:none;stroke:#414042;stroke-miterlimit:10;stroke-width:1.5px"/><line x1="77.63" y1="87.63" x2="79.87" y2="87.63" style="fill:none;stroke:#414042;stroke-miterlimit:10;stroke-width:1.5px"/><line x1="144.56" y1="63.59" x2="142.17" y2="63.59" style="fill:none;stroke:#414042;stroke-miterlimit:10;stroke-width:1.5px"/><line x1="172.31" y1="63.59" x2="146.17" y2="63.59" style="fill:none;stroke:#414042;stroke-miterlimit:10;stroke-width:1.5px"/><line x1="138.04" y1="63.59" x2="140.28" y2="63.59" style="fill:none;stroke:#414042;stroke-miterlimit:10;stroke-width:1.5px"/><circle cx="161.07" cy="29.82" r="2.35" style="fill:none;stroke:#414042;stroke-miterlimit:10;stroke-width:1.5px"/><circle cx="240.78" cy="96.26" r="1.87" style="fill:none;stroke:#414042;stroke-miterlimit:10;stroke-width:1.5px"/><circle cx="121.77" cy="87.63" r="1.87" style="fill:none;stroke:#414042;stroke-miterlimit:10;stroke-width:1.5px"/><path d="M53,216.75H28v7.63A21.62,21.62,0,0,0,33.67,239h0v3.81H47.34V239h0A21.62,21.62,0,0,0,53,224.38Z" transform="translate(0 0.05)" style="fill:#aca39e"/><path d="M47.89,216.75v7.63A21.62,21.62,0,0,1,42.18,239h0v3.81h3V239h0a21.62,21.62,0,0,0,5.71-14.63v-7.63Z" transform="translate(0 0.05)" style="fill:#dedad8"/><path d="M53,216.75H28v7.63A21.62,21.62,0,0,0,33.67,239h0v3.81H47.34V239h0A21.62,21.62,0,0,0,53,224.38Z" transform="translate(0 0.05)" style="fill:none;stroke:#414042;stroke-miterlimit:10;stroke-width:1.5px"/><path d="M29.24,231.18H25.11a5.38,5.38,0,0,1-5.36-5.36h0a5.38,5.38,0,0,1,5.36-5.36h2.65" transform="translate(0 0.05)" style="fill:none;stroke:#414042;stroke-miterlimit:10;stroke-width:1.5px"/><path d="M37.33,214v-1.5a4,4,0,0,1,4-4H45a1.45,1.45,0,0,0,1.45-1.45h0A1.45,1.45,0,0,0,45,205.6H33.41a1.32,1.32,0,0,1-1.32-1.32h0A1.32,1.32,0,0,1,33.41,203h4.9" transform="translate(0 0.05)" style="fill:none;stroke:#414042;stroke-miterlimit:10;stroke-width:1.5px"/><path d="M40.32,203.26h4.21A1.48,1.48,0,0,0,46,201.77h0a1.48,1.48,0,0,0-1.48-1.48H33.7a1.61,1.61,0,0,1-1.61-1.61h0a1.61,1.61,0,0,1,1.61-1.61H49.45" transform="translate(0 0.05)" style="fill:none;stroke:#414042;stroke-miterlimit:10;stroke-width:1.5px"/><circle cx="240.71" cy="58.64" r="17.53" style="fill:#e78967"/><path d="M240.71,41a17.43,17.43,0,0,0-8.66,2.3A17.52,17.52,0,0,1,245,75.57,17.52,17.52,0,0,0,240.72,41Z" transform="translate(0 0.05)" style="fill:#ad674d"/><circle cx="240.71" cy="58.64" r="17.53" style="fill:none;stroke:#414042;stroke-miterlimit:10;stroke-width:1.5px"/><line x1="240.27" y1="32.18" x2="240.27" y2="38.92" style="fill:none;stroke:#414042;stroke-miterlimit:10;stroke-width:1.5px"/><line x1="246.34" y1="36.1" x2="245.38" y2="39.48" style="fill:none;stroke:#414042;stroke-miterlimit:10;stroke-width:1.5px"/><line x1="253.53" y1="35.49" x2="250.17" y2="41.33" style="fill:none;stroke:#414042;stroke-miterlimit:10;stroke-width:1.5px"/><line x1="256.7" y1="41.98" x2="254.32" y2="44.36" style="fill:none;stroke:#414042;stroke-miterlimit:10;stroke-width:1.5px"/><line x1="263.38" y1="44.98" x2="257.54" y2="48.37" style="fill:none;stroke:#414042;stroke-miterlimit:10;stroke-width:1.5px"/><line x1="263.15" y1="52.11" x2="259.63" y2="53.06" style="fill:none;stroke:#414042;stroke-miterlimit:10;stroke-width:1.5px"/><line x1="267.17" y1="58.12" x2="260.42" y2="58.14" style="fill:none;stroke:#414042;stroke-miterlimit:10;stroke-width:1.5px"/><line x1="263.15" y1="64.11" x2="259.88" y2="63.25" style="fill:none;stroke:#414042;stroke-miterlimit:10;stroke-width:1.5px"/><line x1="263.9" y1="71.39" x2="258.04" y2="68.05" style="fill:none;stroke:#414042;stroke-miterlimit:10;stroke-width:1.5px"/><line x1="257.19" y1="74.2" x2="255.02" y2="72.2" style="fill:none;stroke:#414042;stroke-miterlimit:10;stroke-width:1.5px"/><line x1="254.44" y1="81.27" x2="251.03" y2="75.44" style="fill:none;stroke:#414042;stroke-miterlimit:10;stroke-width:1.5px"/><line x1="247.23" y1="80.79" x2="246.34" y2="77.54" style="fill:none;stroke:#414042;stroke-miterlimit:10;stroke-width:1.5px"/><line x1="241.31" y1="85.1" x2="241.27" y2="78.35" style="fill:none;stroke:#414042;stroke-miterlimit:10;stroke-width:1.5px"/><line x1="235.38" y1="80.79" x2="236.16" y2="77.83" style="fill:none;stroke:#414042;stroke-miterlimit:10;stroke-width:1.5px"/><line x1="228.02" y1="81.87" x2="231.35" y2="76" style="fill:none;stroke:#414042;stroke-miterlimit:10;stroke-width:1.5px"/><line x1="224.82" y1="75.4" x2="227.19" y2="73" style="fill:none;stroke:#414042;stroke-miterlimit:10;stroke-width:1.5px"/><line x1="218.12" y1="72.43" x2="223.94" y2="69.01" style="fill:none;stroke:#414042;stroke-miterlimit:10;stroke-width:1.5px"/><line x1="218.24" y1="65.23" x2="221.83" y2="64.33" style="fill:none;stroke:#414042;stroke-miterlimit:10;stroke-width:1.5px"/><line x1="214.25" y1="59.32" x2="221" y2="59.26" style="fill:none;stroke:#414042;stroke-miterlimit:10;stroke-width:1.5px"/><line x1="218.12" y1="53.27" x2="221.51" y2="54.15" style="fill:none;stroke:#414042;stroke-miterlimit:10;stroke-width:1.5px"/><line x1="217.44" y1="46.02" x2="223.32" y2="49.34" style="fill:none;stroke:#414042;stroke-miterlimit:10;stroke-width:1.5px"/><line x1="223.9" y1="42.8" x2="226.31" y2="45.16" style="fill:none;stroke:#414042;stroke-miterlimit:10;stroke-width:1.5px"/><line x1="226.85" y1="36.1" x2="230.28" y2="41.9" style="fill:none;stroke:#414042;stroke-miterlimit:10;stroke-width:1.5px"/><line x1="234.11" y1="36.74" x2="234.96" y2="39.77" style="fill:none;stroke:#414042;stroke-miterlimit:10;stroke-width:1.5px"/><path d="M201.69,95.62a5.11,5.11,0,0,0-2.51.68,3.37,3.37,0,0,0,0-.44,3.42,3.42,0,0,0-3.42-3.42h-.44a4.43,4.43,0,0,0-7-1.71,6.64,6.64,0,0,0-11.89,5.8,4.53,4.53,0,0,0-2.9,4.23h33.33A5.16,5.16,0,0,0,201.69,95.62Z" transform="translate(0 0.05)" style="fill:#fff"/><path d="M201.69,95.62a5.17,5.17,0,0,0-2.51.68,3.37,3.37,0,0,0,0-.44,3.42,3.42,0,0,0-3.42-3.42h-.44a4.43,4.43,0,0,0-7-1.71,6.64,6.64,0,0,0-11.89,5.8,4.53,4.53,0,0,0-2.9,4.23h33.33A5.16,5.16,0,0,0,201.69,95.62Z" transform="translate(0 0.05)" style="fill:none;stroke:#414042;stroke-miterlimit:10;stroke-width:1.5px"/><path d="M127.84,41.74a7.1,7.1,0,0,0-.93.07,4.43,4.43,0,0,0-7.33-3,6.64,6.64,0,0,0-11.89,5.8,4.54,4.54,0,0,0-2.9,4.23H134.9a7.06,7.06,0,0,0-7-7.1Z" transform="translate(0 0.05)" style="fill:#fff"/><path d="M127.84,41.74a7.1,7.1,0,0,0-.93.07,4.43,4.43,0,0,0-7.33-3,6.64,6.64,0,0,0-11.89,5.8,4.54,4.54,0,0,0-2.9,4.23H134.9a7.06,7.06,0,0,0-7-7.1Z" transform="translate(0 0.05)" style="fill:none;stroke:#414042;stroke-miterlimit:10;stroke-width:1.5px"/><path d="M119.13,43.52a4.07,4.07,0,0,1,1.14-5.26" transform="translate(0 0.05)" style="fill:none;stroke:#414042;stroke-miterlimit:10;stroke-width:1.5px"/><path d="M306.41,91.78a5.79,5.79,0,0,0-.76.06,3.62,3.62,0,0,0-6-2.48,5.43,5.43,0,0,0-9.73,4.74,3.71,3.71,0,0,0-2.38,3.46h24.64A5.78,5.78,0,0,0,306.41,91.78Z" transform="translate(0 0.05)" style="fill:#fff"/><path d="M306.41,91.78a5.79,5.79,0,0,0-.76.06,3.62,3.62,0,0,0-6-2.48,5.43,5.43,0,0,0-9.73,4.74,3.71,3.71,0,0,0-2.38,3.46h24.64A5.78,5.78,0,0,0,306.41,91.78Z" transform="translate(0 0.05)" style="fill:none;stroke:#414042;stroke-miterlimit:10;stroke-width:1.5px"/><path d="M299.29,93.24a3.33,3.33,0,0,1,.93-4.3" transform="translate(0 0.05)" style="fill:none;stroke:#414042;stroke-miterlimit:10;stroke-width:1.5px"/><path d="M198.14,64.34a3.74,3.74,0,0,0-7.1-1.67.16.16,0,0,1-.3,0,4.75,4.75,0,0,0-9.45.71H175.7" transform="translate(0 0.05)" style="fill:none;stroke:#414042;stroke-miterlimit:10;stroke-width:1.5px"/><path d="M62,139.15a3.74,3.74,0,0,0-7.1-1.67.16.16,0,0,1-.3,0,4.75,4.75,0,0,0-9.45.71H39.61" transform="translate(0 0.05)" style="fill:none;stroke:#414042;stroke-miterlimit:10;stroke-width:1.5px"/><path d="M151.51,106.49a6.49,6.49,0,0,0-12.32-2.89.27.27,0,0,1-.51-.06,8.24,8.24,0,0,0-16.39,1.23l-9.69-.06" transform="translate(0 0.05)" style="fill:none;stroke:#414042;stroke-miterlimit:10;stroke-width:1.5px"/><path d="M291.1,230.33A49,49,0,0,1,281.32,201V183.49l6.69-4.14h.11V153a1.81,1.81,0,0,0-1.81-1.81h-4.48A1.81,1.81,0,0,0,280,153v5.38h-5.3v67.57h-4.46v6h4.46v11.72h16.44V230.33Z" transform="translate(0 0.05)" style="fill:#231f20;opacity:0.30000001192092896;isolation:isolate"/><path d="M277.78,153v6.11H266.44V153a1.06,1.06,0,0,0-1.06-1.06H258.6a1.06,1.06,0,0,0-1.06,1.06v6.11H246.21V153a1.06,1.06,0,0,0-1.06-1.06h-4.48a1.06,1.06,0,0,0-1.06,1.06v25.6h44.76V153a1.06,1.06,0,0,0-1.06-1.06h-4.48A1.06,1.06,0,0,0,277.78,153Z" transform="translate(0 0.05)" style="fill:#535151"/><polygon points="277.46 183.19 245.75 183.19 239.61 178.65 284.37 178.65 277.46 183.19" style="fill:#535151"/><rect x="235.78" y="231.13" width="51.65" height="11.74" style="fill:#535151"/><path d="M287.42,231.08H235.78a49.47,49.47,0,0,0,10-29.79V183.14h31.69v18.15a49.47,49.47,0,0,0,10,29.79Z" transform="translate(0 0.05)" style="fill:#535151"/><rect x="240.78" y="231.13" width="6.67" height="11.74" style="fill:#8b8b8b"/><path d="M254.09,183.14h-3.33v18.15a49.47,49.47,0,0,1-10,29.79h6.67c6.48-8.58,6.65-19,6.65-29.79Z" transform="translate(0 0.05)" style="fill:#8b8b8b"/><polyline points="284.65 178.74 277.46 183.19 245.75 183.19 239.36 178.74" style="fill:none;stroke:#414042;stroke-miterlimit:10;stroke-width:1.5px"/><path d="M277.78,153v6.11H266.44V153a1.06,1.06,0,0,0-1.06-1.06H258.6a1.06,1.06,0,0,0-1.06,1.06v6.11H246.21V153a1.06,1.06,0,0,0-1.06-1.06h-4.48a1.06,1.06,0,0,0-1.06,1.06v25.6h44.76V153a1.06,1.06,0,0,0-1.06-1.06h-4.48A1.06,1.06,0,0,0,277.78,153Z" transform="translate(0 0.05)" style="fill:none;stroke:#414042;stroke-miterlimit:10;stroke-width:1.5px"/><rect x="235.78" y="231.13" width="51.65" height="11.74" style="fill:none;stroke:#414042;stroke-miterlimit:10;stroke-width:1.5px"/><path d="M235.9,230.84h0a49.47,49.47,0,0,0,10-29.79V182.9h31.69V201a49.47,49.47,0,0,0,10,29.79h0" transform="translate(0 0.05)" style="fill:none;stroke:#414042;stroke-miterlimit:10;stroke-width:1.5px"/><g style="opacity:0.30000001192092896"><rect x="185.36" y="230.43" width="10.04" height="13.19" style="fill:#231f20"/><polygon points="206.8 221.83 196.76 221.83 196.76 243.62 203.6 243.62 206.8 226.71 206.8 221.83" style="fill:#231f20"/></g><rect x="189.11" y="231.18" width="8.54" height="11.69" style="fill:#e78967"/><rect x="189.11" y="231.18" width="8.54" height="11.69" style="fill:none;stroke:#414042;stroke-miterlimit:10;stroke-width:1.5px"/><rect x="200.51" y="222.58" width="8.54" height="20.29" style="fill:#fffffe"/><rect x="200.51" y="222.58" width="8.54" height="20.29" style="fill:none;stroke:#414042;stroke-miterlimit:10;stroke-width:1.5px"/><rect x="211.91" y="227.26" width="8.54" height="15.61" style="fill:#fec1a0"/><rect x="211.91" y="227.26" width="8.54" height="15.61" style="fill:none;stroke:#414042;stroke-miterlimit:10;stroke-width:1.5px"/><rect x="223.32" y="212.62" width="8.54" height="30.25" style="fill:#fde99d"/><rect x="223.32" y="212.62" width="8.54" height="30.25" style="fill:none;stroke:#414042;stroke-miterlimit:10;stroke-width:1.5px"/><path d="M238.58,188.77h-22a2.14,2.14,0,0,0-2.13,2.13v10.92a2.14,2.14,0,0,0,2.13,2.13h8.51l1.49,2.58a1.14,1.14,0,0,0,2,0l1.49-2.58h8.51a2.14,2.14,0,0,0,2.13-2.13V190.9A2.14,2.14,0,0,0,238.58,188.77Z" transform="translate(0 0.05)" style="fill:#e78967"/><path d="M238.58,188.77h-22a2.14,2.14,0,0,0-2.13,2.13h22a2.14,2.14,0,0,1,2.13,2.13v11a2.14,2.14,0,0,0,2.13-2.13v-11A2.14,2.14,0,0,0,238.58,188.77Z" transform="translate(0 0.05)" style="fill:#ad674d"/><path d="M238.58,188.77h-22a2.14,2.14,0,0,0-2.13,2.13v10.92a2.14,2.14,0,0,0,2.13,2.13h8.51l1.49,2.58a1.14,1.14,0,0,0,2,0l1.49-2.58h8.51a2.14,2.14,0,0,0,2.13-2.13V190.9A2.14,2.14,0,0,0,238.58,188.77Z" transform="translate(0 0.05)" style="fill:none;stroke:#414042;stroke-miterlimit:10;stroke-width:1.5px"/><line x1="222.6" y1="196.41" x2="232.45" y2="196.41" style="fill:none;stroke:#fff;stroke-miterlimit:10;stroke-width:1.5px"/><line x1="227.58" y1="200.95" x2="227.58" y2="191.87" style="fill:none;stroke:#fff;stroke-miterlimit:10;stroke-width:1.5px"/><path d="M73.8,158.08a8.62,8.62,0,0,0-8.56,7.68c-1.84-.29-4.52.07-5.5,3v15.17a1.53,1.53,0,0,0,.49,1.12,3.23,3.23,0,0,0-1,2.37v2.42a3.25,3.25,0,0,0,3.25,3.25h.37A20.06,20.06,0,0,0,77.26,211.4v1.82A23.68,23.68,0,0,0,59.77,236v6.78H107V236a23.67,23.67,0,0,0-18.31-23v-1.73a20.07,20.07,0,0,0,14-18.3,3.21,3.21,0,0,0,.79.11,3.25,3.25,0,0,0,3.25-3.25h0v-2.42a3.22,3.22,0,0,0-4-3.15v-8.84a8.62,8.62,0,0,0,6.93-8.44v-8.92Z" transform="translate(0 0.05)" style="fill:#231f20;opacity:0.30000001192092896;isolation:isolate"/><path d="M103.29,242.82V236A23,23,0,0,0,80.4,213.11h0A23,23,0,0,0,57.52,236v6.78Z" transform="translate(0 0.05)" style="fill:#e78967"/><path d="M80.41,213.15A23,23,0,0,0,57.52,236v5a22.89,22.89,0,1,1,45.77-1q0,.48,0,1v-5A23,23,0,0,0,80.41,213.15Z" transform="translate(0 0.05)" style="fill:#eca185"/><path d="M57.52,242.82V236a23,23,0,0,1,22.89-22.89h0A23,23,0,0,1,103.29,236v6.78" transform="translate(0 0.05)" style="fill:none;stroke:#414042;stroke-miterlimit:10;stroke-width:1.5px"/><line x1="69.38" y1="234.5" x2="69.38" y2="242.87" style="fill:none;stroke:#414042;stroke-miterlimit:10;stroke-width:1.5px"/><line x1="92.74" y1="234.5" x2="92.74" y2="242.87" style="fill:none;stroke:#414042;stroke-miterlimit:10;stroke-width:1.5px"/><rect x="75.01" y="201.93" width="9.98" height="20.52" rx="4.46" ry="4.46" style="fill:#ffe6d9"/><rect x="75.01" y="201.93" width="9.98" height="20.52" rx="4.46" ry="4.46" style="fill:none;stroke:#414042;stroke-miterlimit:10;stroke-width:1.5px"/><path d="M61.9,189.84a2.5,2.5,0,0,1-2.5,2.5h0a2.5,2.5,0,0,1-2.5-2.5v-2.42a2.49,2.49,0,0,1,2.48-2.5h0a2.5,2.5,0,0,1,2.5,2.5Z" transform="translate(0 0.05)" style="fill:#ffe6d9"/><path d="M61.9,189.84a2.5,2.5,0,0,1-2.5,2.5h0a2.5,2.5,0,0,1-2.5-2.5v-2.42a2.49,2.49,0,0,1,2.48-2.5h0a2.5,2.5,0,0,1,2.5,2.5Z" transform="translate(0 0.05)" style="fill:none;stroke:#414042;stroke-miterlimit:10;stroke-width:1.5px"/><path d="M103.07,189.84a2.5,2.5,0,0,1-2.5,2.5h0a2.5,2.5,0,0,1-2.5-2.5v-2.42a2.5,2.5,0,0,1,2.5-2.5h0a2.5,2.5,0,0,1,2.5,2.5Z" transform="translate(0 0.05)" style="fill:#ffe6d9"/><path d="M103.07,189.84a2.5,2.5,0,0,1-2.5,2.5h0a2.5,2.5,0,0,1-2.5-2.5v-2.42a2.5,2.5,0,0,1,2.5-2.5h0a2.5,2.5,0,0,1,2.5,2.5Z" transform="translate(0 0.05)" style="fill:none;stroke:#414042;stroke-miterlimit:10;stroke-width:1.5px"/><path d="M99.07,171.93v20.21a19.3,19.3,0,0,1-19.3,19.3h0a19.3,19.3,0,0,1-19.3-19.3h0V171.93Z" transform="translate(0 0.05)" style="fill:#ffe6d9"/><path d="M99.07,171.93v20.21a19.3,19.3,0,0,1-19.3,19.3h0a19.3,19.3,0,0,1-19.3-19.3h0V171.93Z" transform="translate(0 0.05)" style="fill:none;stroke:#414042;stroke-miterlimit:10;stroke-width:1.5px"/><path d="M106,158.83V167a7.86,7.86,0,0,1-7.86,7.86H66.87a3.93,3.93,0,0,0-3.93,3.93v5.15a.79.79,0,0,1-.79.79H58.24a.79.79,0,0,1-.78-.79V169c1.23-3.7,5.48-2.31,5.48-2.31a7.86,7.86,0,0,1,7.86-7.86H106Z" transform="translate(0 0.05)" style="fill:#535151"/><path d="M97.31,171.63a8.51,8.51,0,0,0,8.51-8.51v-4.29h-35A7.86,7.86,0,0,0,63,166.69h0s-4.25-1.39-5.48,2.31v15.32h1.71a.85.85,0,0,0,.85-.85h0v-7.59a4.26,4.26,0,0,1,4.25-4.25Z" transform="translate(0 0.05)" style="fill:#aca39e"/><path d="M106,158.83V167a7.86,7.86,0,0,1-7.86,7.86H66.87a3.93,3.93,0,0,0-3.93,3.93v5.15a.79.79,0,0,1-.79.79H58.24a.79.79,0,0,1-.78-.79V169c1.23-3.7,5.48-2.31,5.48-2.31a7.86,7.86,0,0,1,7.86-7.86H106Z" transform="translate(0 0.05)" style="fill:none;stroke:#414042;stroke-miterlimit:10;stroke-width:1.5px"/><path d="M79.8,189.34v4h1.14a1.4,1.4,0,0,1,1.4,1.4v.13a1.4,1.4,0,0,1-1.4,1.4H78.69" transform="translate(0 0.05)" style="fill:none;stroke:#414042;stroke-miterlimit:10;stroke-width:1.5px"/><line x1="69.35" y1="183.49" x2="75.76" y2="183.49" style="fill:none;stroke:#414042;stroke-miterlimit:10;stroke-width:1.5px"/><line x1="84.7" y1="183.49" x2="91.1" y2="183.49" style="fill:none;stroke:#414042;stroke-miterlimit:10;stroke-width:1.5px"/><circle cx="72.56" cy="186.51" r="1.62" style="fill:#414042"/><circle cx="87.9" cy="186.51" r="1.62" style="fill:#414042"/><path d="M85,201.06a5,5,0,0,1-10,0Z" transform="translate(0 0.05)" style="fill:#fff"/><path d="M85,201.06a5,5,0,0,1-10,0Z" transform="translate(0 0.05)" style="fill:none;stroke:#414042;stroke-miterlimit:10;stroke-width:1.5px"/><line x1="78.08" y1="208.33" x2="81.91" y2="208.33" style="fill:none;stroke:#414042;stroke-miterlimit:10;stroke-width:1.5px"/><circle cx="81.97" cy="103.5" r="1.07" style="fill:#414042"/><circle cx="86.68" cy="104.07" r="1.07" transform="translate(-36.3 160.87) rotate(-74.98)" style="fill:#414042"/><circle cx="91.05" cy="105.89" r="1.07" transform="translate(-46.2 131.75) rotate(-59.96)" style="fill:#414042"/><circle cx="94.82" cy="108.77" r="1.07" transform="translate(-49.13 98.83) rotate(-44.95)" style="fill:#414042"/><circle cx="97.7" cy="112.53" r="1.07" transform="matrix(0.87, -0.5, 0.5, 0.87, -43.12, 63.81)" style="fill:#414042"/><circle cx="99.51" cy="116.93" r="1.07" transform="translate(-26.74 29.59) rotate(-14.91)" style="fill:#414042"/><circle cx="100.12" cy="121.64" r="1.07" transform="translate(-21.71 221.59) rotate(-89.89)" style="fill:#414042"/><circle cx="99.5" cy="126.34" r="1.07" transform="translate(-48.44 189.47) rotate(-74.87)" style="fill:#414042"/><circle cx="97.67" cy="130.73" r="1.07" transform="translate(-64.43 149.58) rotate(-59.85)" style="fill:#414042"/><circle cx="94.77" cy="134.46" r="1.07" transform="translate(-67.24 106) rotate(-44.84)" style="fill:#414042"/><circle cx="91" cy="137.34" r="1.07" transform="translate(-56.25 63.49) rotate(-29.82)" style="fill:#414042"/><circle cx="72.82" cy="137.28" r="1.07" transform="translate(-82.45 131.08) rotate(-59.75)" style="fill:#414042"/><circle cx="69.07" cy="134.38" r="1.07" transform="translate(-74.57 87.58) rotate(-44.73)" style="fill:#414042"/><circle cx="66.19" cy="130.6" r="1.07" transform="translate(-56.03 50.03) rotate(-29.71)" style="fill:#414042"/><circle cx="64.4" cy="126.21" r="1.07" transform="matrix(0.97, -0.25, 0.25, 0.97, -29.9, 20.51)" style="fill:#414042"/><circle cx="63.81" cy="121.49" r="1.07" transform="translate(-58.03 184.68) rotate(-89.68)" style="fill:#414042"/><circle cx="64.46" cy="116.8" r="1.07" transform="translate(-65.23 148.12) rotate(-74.66)" style="fill:#414042"/><circle cx="66.29" cy="112.43" r="1.07" transform="translate(-64.23 112.86) rotate(-59.64)" style="fill:#414042"/><circle cx="69.22" cy="108.69" r="1.07" transform="translate(-56.39 80) rotate(-44.62)" style="fill:#414042"/><circle cx="73" cy="105.81" r="1.07" transform="translate(-42.75 49.94) rotate(-29.61)" style="fill:#414042"/><circle cx="77.39" cy="104.4" r="1.07" transform="translate(-23.61 22.67) rotate(-14.45)" style="fill:#414042"/><path d="M85.51,140.69v6.74a3.77,3.77,0,0,1-3.76,3.76h0A3.77,3.77,0,0,1,78,147.43v-6.74Z" transform="translate(0 0.05)" style="fill:#aca39e"/><path d="M85.51,140.69v6.74a3.77,3.77,0,0,1-3.76,3.76h0A3.77,3.77,0,0,1,78,147.43v-6.74Z" transform="translate(0 0.05)" style="fill:none;stroke:#414042;stroke-miterlimit:10;stroke-width:1.5px"/><path d="M95.53,121.57A13.63,13.63,0,1,0,75.32,133.5v6H88.49v-6A13.62,13.62,0,0,0,95.53,121.57Z" transform="translate(0 0.05)" style="fill:#fde99d"/><path d="M81.9,107.95a13.59,13.59,0,0,0-11,5.62,13.61,13.61,0,0,1,19,19,13.62,13.62,0,0,0-8-24.64Z" transform="translate(0 0.05)" style="fill:#fef2c4"/><path d="M95.53,121.57A13.63,13.63,0,1,0,75.32,133.5v6H88.49v-6A13.62,13.62,0,0,0,95.53,121.57Z" transform="translate(0 0.05)" style="fill:none;stroke:#414042;stroke-miterlimit:10;stroke-width:1.5px"/><rect x="75.23" y="138.86" width="13.47" height="3.7" style="fill:#aca39e"/><rect x="75.23" y="138.86" width="13.47" height="3.7" style="fill:none;stroke:#414042;stroke-miterlimit:10;stroke-width:1.5px"/><line x1="78.4" y1="144.72" x2="82.65" y2="144.72" style="fill:none;stroke:#414042;stroke-miterlimit:10;stroke-width:1.5px"/><line x1="81.75" y1="146.92" x2="86" y2="146.92" style="fill:none;stroke:#414042;stroke-miterlimit:10;stroke-width:1.5px"/><line x1="12.56" y1="242.87" x2="354.83" y2="242.87" style="fill:none;stroke:#414042;stroke-miterlimit:10;stroke-width:1.5px"/><line x1="357.99" y1="242.87" x2="363" y2="242.87" style="fill:none;stroke:#414042;stroke-miterlimit:10;stroke-width:1.5px"/><line x1="8.5" y1="242.87" y2="242.87" style="fill:none;stroke:#414042;stroke-miterlimit:10;stroke-width:1.5px"/><polygon points="239 66.21 232.45 59.67 235.17 56.96 239 60.78 247.45 52.32 250.17 55.03 239 66.21" style="fill:#fff"/></svg>