<svg xmlns="http://www.w3.org/2000/svg" viewBox="0 0 363 186.74"><title>creative-workspace</title><circle cx="181.88" cy="39.53" r="24.2" style="fill:#aca39e"/><circle cx="181.88" cy="39.53" r="24.2" style="fill:none;stroke:#414042;stroke-miterlimit:10;stroke-width:1.5px"/><circle cx="181.88" cy="39.53" r="21.37" style="fill:#f1f2f2"/><path d="M181.88,60.89a21.37,21.37,0,0,0,0-42.74Z" style="fill:#e6e7e8"/><circle cx="181.88" cy="20.98" r="1" style="fill:#414042"/><circle cx="186.67" cy="21.61" r="1" transform="translate(117.53 196.35) rotate(-75.02)" style="fill:#414042"/><circle cx="191.14" cy="23.46" r="1" transform="translate(75.34 177.33) rotate(-60.03)" style="fill:#414042"/><circle cx="194.98" cy="26.4" r="1" transform="translate(38.54 145.74) rotate(-45.05)" style="fill:#414042"/><circle cx="197.93" cy="30.24" r="1" transform="translate(11.48 103.22) rotate(-30.06)" style="fill:#414042"/><circle cx="199.78" cy="34.7" r="1" transform="matrix(0.97, -0.26, 0.26, 0.97, -2.15, 53.17)" style="fill:#414042"/><circle cx="200.42" cy="39.49" r="1" transform="translate(-0.07 0.34) rotate(-0.1)" style="fill:#414042"/><circle cx="199.8" cy="44.29" r="1" transform="translate(105.66 226) rotate(-75.11)" style="fill:#414042"/><circle cx="197.96" cy="48.76" r="1" transform="translate(57.09 196.14) rotate(-60.13)" style="fill:#414042"/><circle cx="195.02" cy="52.61" r="1" transform="translate(20.18 153.76) rotate(-45.15)" style="fill:#414042"/><circle cx="191.2" cy="55.56" r="1" transform="translate(-2.03 103.58) rotate(-30.16)" style="fill:#414042"/><circle cx="186.73" cy="57.42" r="1" transform="translate(-8.52 50.89) rotate(-15.18)" style="fill:#414042"/><circle cx="181.94" cy="58.07" r="1" transform="translate(-0.2 0.62) rotate(-0.19)" style="fill:#414042"/><circle cx="177.14" cy="57.46" r="1" transform="translate(76.37 214.06) rotate(-75.21)" style="fill:#414042"/><circle cx="172.67" cy="55.62" r="1" transform="translate(38.65 177.88) rotate(-60.23)" style="fill:#414042"/><circle cx="168.82" cy="52.69" r="1" transform="translate(12.53 135.47) rotate(-45.24)" style="fill:#414042"/><circle cx="165.86" cy="48.87" r="1" transform="translate(-2.03 90.23) rotate(-30.26)" style="fill:#414042"/><circle cx="163.99" cy="44.41" r="1" transform="matrix(0.96, -0.26, 0.26, 0.96, -5.91, 44.77)" style="fill:#414042"/><circle cx="163.34" cy="39.62" r="1" transform="translate(-0.2 0.83) rotate(-0.29)" style="fill:#414042"/><circle cx="163.94" cy="34.82" r="1" transform="translate(88.67 184.57) rotate(-75.31)" style="fill:#414042"/><circle cx="165.77" cy="30.34" r="1" transform="translate(57.33 159.34) rotate(-60.32)" style="fill:#414042"/><circle cx="168.69" cy="26.49" r="1" transform="translate(31.27 127.86) rotate(-45.34)" style="fill:#414042"/><circle cx="172.51" cy="23.52" r="1" transform="translate(11.76 90.4) rotate(-30.36)" style="fill:#414042"/><circle cx="176.96" cy="21.65" r="1" transform="translate(0.59 47.67) rotate(-15.37)" style="fill:#414042"/><circle cx="181.88" cy="39.53" r="21.37" style="fill:none;stroke:#414042;stroke-miterlimit:10;stroke-width:1.5px"/><line x1="181.94" y1="24.46" x2="181.85" y2="38.91" style="fill:none;stroke:#e78967;stroke-miterlimit:10;stroke-width:1.5px"/><line x1="175.18" y1="46.18" x2="181.76" y2="39.66" style="fill:none;stroke:#414042;stroke-miterlimit:10;stroke-width:1.5px"/><circle cx="181.88" cy="39.53" r="2.15" style="fill:#414042"/><line x1="131.45" y1="19.78" x2="133.85" y2="19.78" style="fill:none;stroke:#414042;stroke-miterlimit:10;stroke-width:1.5px"/><line x1="111.52" y1="19.78" x2="129.85" y2="19.78" style="fill:none;stroke:#414042;stroke-miterlimit:10;stroke-width:1.5px"/><line x1="137.97" y1="19.78" x2="135.73" y2="19.78" style="fill:none;stroke:#414042;stroke-miterlimit:10;stroke-width:1.5px"/><line x1="46.73" y1="129.42" x2="49.12" y2="129.42" style="fill:none;stroke:#414042;stroke-miterlimit:10;stroke-width:1.5px"/><line x1="26.8" y1="129.42" x2="45.12" y2="129.42" style="fill:none;stroke:#414042;stroke-miterlimit:10;stroke-width:1.5px"/><line x1="53.25" y1="129.42" x2="51.01" y2="129.42" style="fill:none;stroke:#414042;stroke-miterlimit:10;stroke-width:1.5px"/><line x1="219.08" y1="69.42" x2="221.48" y2="69.42" style="fill:none;stroke:#414042;stroke-miterlimit:10;stroke-width:1.5px"/><line x1="199.15" y1="69.42" x2="217.48" y2="69.42" style="fill:none;stroke:#414042;stroke-miterlimit:10;stroke-width:1.5px"/><line x1="260.37" y1="123.97" x2="278.7" y2="123.97" style="fill:none;stroke:#414042;stroke-miterlimit:10;stroke-width:1.5px"/><line x1="292.76" y1="123.97" x2="280.7" y2="123.97" style="fill:none;stroke:#414042;stroke-miterlimit:10;stroke-width:1.5px"/><line x1="225.6" y1="69.42" x2="223.36" y2="69.42" style="fill:none;stroke:#414042;stroke-miterlimit:10;stroke-width:1.5px"/><line x1="30.48" y1="38.62" x2="32.88" y2="38.62" style="fill:none;stroke:#414042;stroke-miterlimit:10;stroke-width:1.5px"/><line x1="10.56" y1="38.62" x2="28.88" y2="38.62" style="fill:none;stroke:#414042;stroke-miterlimit:10;stroke-width:1.5px"/><line x1="37.01" y1="38.62" x2="34.77" y2="38.62" style="fill:none;stroke:#414042;stroke-miterlimit:10;stroke-width:1.5px"/><line x1="248.77" y1="0.75" x2="251.16" y2="0.75" style="fill:none;stroke:#414042;stroke-miterlimit:10;stroke-width:1.5px"/><line x1="228.84" y1="0.75" x2="247.16" y2="0.75" style="fill:none;stroke:#414042;stroke-miterlimit:10;stroke-width:1.5px"/><line x1="255.29" y1="0.75" x2="253.05" y2="0.75" style="fill:none;stroke:#414042;stroke-miterlimit:10;stroke-width:1.5px"/><line x1="319.93" y1="102.05" x2="317.53" y2="102.05" style="fill:none;stroke:#414042;stroke-miterlimit:10;stroke-width:1.5px"/><line x1="347.68" y1="102.05" x2="321.53" y2="102.05" style="fill:none;stroke:#414042;stroke-miterlimit:10;stroke-width:1.5px"/><line x1="296.45" y1="81.66" x2="258.8" y2="81.66" style="fill:none;stroke:#414042;stroke-miterlimit:10;stroke-width:1.5px"/><line x1="313.41" y1="102.05" x2="315.65" y2="102.05" style="fill:none;stroke:#414042;stroke-miterlimit:10;stroke-width:1.5px"/><line x1="310.6" y1="101.94" x2="305.64" y2="101.94" style="fill:none;stroke:#414042;stroke-miterlimit:10;stroke-width:1.5px"/><line x1="308.12" y1="104.42" x2="308.12" y2="99.46" style="fill:none;stroke:#414042;stroke-miterlimit:10;stroke-width:1.5px"/><line x1="96.62" y1="108.68" x2="91.65" y2="108.68" style="fill:none;stroke:#414042;stroke-miterlimit:10;stroke-width:1.5px"/><line x1="94.13" y1="111.16" x2="94.13" y2="106.19" style="fill:none;stroke:#414042;stroke-miterlimit:10;stroke-width:1.5px"/><line x1="134.93" y1="65.44" x2="132.54" y2="65.44" style="fill:none;stroke:#414042;stroke-miterlimit:10;stroke-width:1.5px"/><line x1="162.68" y1="65.44" x2="136.54" y2="65.44" style="fill:none;stroke:#414042;stroke-miterlimit:10;stroke-width:1.5px"/><line x1="185.1" y1="8.44" x2="122.92" y2="8.44" style="fill:none;stroke:#414042;stroke-miterlimit:10;stroke-width:1.5px"/><line x1="128.41" y1="65.44" x2="130.65" y2="65.44" style="fill:none;stroke:#414042;stroke-miterlimit:10;stroke-width:1.5px"/><line x1="125.61" y1="65.33" x2="120.64" y2="65.33" style="fill:none;stroke:#414042;stroke-miterlimit:10;stroke-width:1.5px"/><line x1="123.12" y1="67.81" x2="123.12" y2="62.84" style="fill:none;stroke:#414042;stroke-miterlimit:10;stroke-width:1.5px"/><line x1="62.48" y1="129.42" x2="57.51" y2="129.42" style="fill:none;stroke:#414042;stroke-miterlimit:10;stroke-width:1.5px"/><line x1="60" y1="131.9" x2="60" y2="126.94" style="fill:none;stroke:#414042;stroke-miterlimit:10;stroke-width:1.5px"/><line x1="304.12" y1="81.66" x2="299.16" y2="81.66" style="fill:none;stroke:#414042;stroke-miterlimit:10;stroke-width:1.5px"/><line x1="301.64" y1="84.14" x2="301.64" y2="79.18" style="fill:none;stroke:#414042;stroke-miterlimit:10;stroke-width:1.5px"/><rect x="42.53" y="36.18" width="3.29" height="3.29" transform="translate(-13.81 42.32) rotate(-45)" style="fill:none;stroke:#414042;stroke-miterlimit:10;stroke-width:1.5px"/><rect x="192.33" y="6.8" width="3.29" height="3.29" transform="translate(50.85 139.64) rotate(-45)" style="fill:none;stroke:#414042;stroke-miterlimit:10;stroke-width:1.5px"/><rect x="297.33" y="122.33" width="3.29" height="3.29" transform="translate(-0.09 247.72) rotate(-45)" style="fill:none;stroke:#414042;stroke-miterlimit:10;stroke-width:1.5px"/><rect x="231.51" y="33.8" width="3.29" height="3.29" transform="translate(43.23 175.25) rotate(-45)" style="fill:none;stroke:#414042;stroke-miterlimit:10;stroke-width:1.5px"/><rect x="51.57" y="22.85" width="53.04" height="66" style="fill:#e6e7e8"/><rect x="56.06" y="28.43" width="44.07" height="54.84" style="fill:#e78967"/><polygon points="56.05 46.72 56.05 75.44 100.12 31.38 100.12 28.43 74.35 28.43 56.05 46.72" style="fill:#f1b8a4"/><polygon points="100.12 34.38 56.05 78.44 56.05 83.26 60.15 83.26 100.12 43.28 100.12 34.38" style="fill:#f1b8a4"/><rect x="51.57" y="22.85" width="53.04" height="66" style="fill:none;stroke:#414042;stroke-miterlimit:10;stroke-width:1.5px"/><rect x="56.06" y="28.43" width="44.07" height="54.84" style="fill:none;stroke:#414042;stroke-miterlimit:10;stroke-width:1.5px"/><line x1="64.49" y1="41.47" x2="91.69" y2="41.47" style="fill:none;stroke:#414042;stroke-miterlimit:10;stroke-width:1.5px"/><line x1="64.49" y1="47.39" x2="91.69" y2="47.39" style="fill:none;stroke:#414042;stroke-miterlimit:10;stroke-width:1.5px"/><line x1="64.49" y1="53.31" x2="91.69" y2="53.31" style="fill:none;stroke:#414042;stroke-miterlimit:10;stroke-width:1.5px"/><line x1="64.49" y1="59.23" x2="91.69" y2="59.23" style="fill:none;stroke:#414042;stroke-miterlimit:10;stroke-width:1.5px"/><line x1="64.49" y1="65.16" x2="91.69" y2="65.16" style="fill:none;stroke:#414042;stroke-miterlimit:10;stroke-width:1.5px"/><line x1="64.49" y1="71.08" x2="91.69" y2="71.08" style="fill:none;stroke:#414042;stroke-miterlimit:10;stroke-width:1.5px"/><rect x="238.73" y="60.83" width="105.66" height="4.5" style="fill:#d0ccce"/><rect x="238.73" y="60.83" width="105.66" height="4.5" style="fill:none;stroke:#414042;stroke-miterlimit:10;stroke-width:1.5px"/><rect x="310.97" y="9.25" width="7.8" height="52.38" transform="translate(18.31 147.03) rotate(-27.04)" style="fill:#e78967"/><rect x="314.03" y="19.54" width="2.71" height="33.1" transform="translate(18.07 147.33) rotate(-27.04)" style="fill:#fffffe"/><rect x="310.97" y="9.25" width="7.8" height="52.38" transform="translate(18.31 147.03) rotate(-27.04)" style="fill:none;stroke:#414042;stroke-miterlimit:10;stroke-width:1.5px"/><rect x="250.51" y="14.83" width="13.94" height="46" style="fill:#e78967"/><rect x="266.82" y="8.44" width="7.8" height="52.38" style="fill:#fde99d"/><rect x="269.53" y="18.9" width="2.71" height="33.1" style="fill:#fffffe"/><rect x="277.07" y="13.19" width="12.07" height="47.63" style="fill:#e6e7e8"/><rect x="291.18" y="13.19" width="8.3" height="47.63" style="fill:#535151"/><rect x="250.51" y="14.83" width="13.94" height="46" style="fill:none;stroke:#414042;stroke-miterlimit:10;stroke-width:1.5px"/><rect x="266.82" y="8.44" width="7.8" height="52.38" style="fill:none;stroke:#414042;stroke-miterlimit:10;stroke-width:1.5px"/><rect x="277.07" y="13.19" width="12.07" height="47.63" style="fill:none;stroke:#414042;stroke-miterlimit:10;stroke-width:1.5px"/><rect x="291.18" y="13.19" width="8.3" height="47.63" style="fill:none;stroke:#414042;stroke-miterlimit:10;stroke-width:1.5px"/><line x1="253.92" y1="20.32" x2="261.04" y2="20.32" style="fill:none;stroke:#414042;stroke-miterlimit:10;stroke-width:1.5px"/><line x1="253.92" y1="26.02" x2="261.04" y2="26.02" style="fill:none;stroke:#414042;stroke-miterlimit:10;stroke-width:1.5px"/><line x1="253.92" y1="31.72" x2="261.04" y2="31.72" style="fill:none;stroke:#414042;stroke-miterlimit:10;stroke-width:1.5px"/><line x1="253.92" y1="37.42" x2="261.04" y2="37.42" style="fill:none;stroke:#414042;stroke-miterlimit:10;stroke-width:1.5px"/><line x1="253.92" y1="43.13" x2="261.04" y2="43.13" style="fill:none;stroke:#414042;stroke-miterlimit:10;stroke-width:1.5px"/><line x1="253.92" y1="48.83" x2="261.04" y2="48.83" style="fill:none;stroke:#414042;stroke-miterlimit:10;stroke-width:1.5px"/><line x1="253.92" y1="54.53" x2="261.04" y2="54.53" style="fill:none;stroke:#414042;stroke-miterlimit:10;stroke-width:1.5px"/><circle cx="283.1" cy="21.75" r="4.28" style="fill:#e78967"/><circle cx="283.1" cy="50.25" r="4.28" style="fill:#e78967"/><path d="M59.31,182.6V169.43c0-3.6,2.35-6.54,5.23-6.54h0c2.88,0,5.23,2.94,5.23,6.54V182.6Z" style="fill:#757474"/><path d="M59.31,182.6V169.43c0-3.6,2.35-6.54,5.23-6.54v19.7Z" style="fill:#535151"/><path d="M59.31,182.6V169.43c0-3.6,2.35-6.54,5.23-6.54h0c2.88,0,5.23,2.94,5.23,6.54V182.6Z" style="fill:none;stroke:#414042;stroke-miterlimit:10;stroke-width:1.5px"/><line x1="44.41" y1="88.5" x2="78.58" y2="119.3" style="fill:none;stroke:#414042;stroke-miterlimit:10;stroke-width:1.5px"/><line x1="41.73" y1="91.47" x2="75.9" y2="122.27" style="fill:none;stroke:#414042;stroke-miterlimit:10;stroke-width:1.5px"/><line x1="62.73" y1="166.86" x2="76.07" y2="122.84" style="fill:none;stroke:#414042;stroke-miterlimit:10;stroke-width:1.5px"/><line x1="66.55" y1="168.02" x2="79.9" y2="124" style="fill:none;stroke:#414042;stroke-miterlimit:10;stroke-width:1.5px"/><path d="M29.57,94.16l9.59-2.49A4.64,4.64,0,0,0,42.48,86h0a4.64,4.64,0,0,0-5.64-3.32l-9.59,2.49a4.64,4.64,0,0,0-3.32,5.64h0A4.64,4.64,0,0,0,29.57,94.16Z" style="fill:#757474"/><path d="M29.57,94.16l9.59-2.49A4.64,4.64,0,0,0,42.48,86h0a4.64,4.64,0,0,0-5.64-3.32l-9.59,2.49a4.64,4.64,0,0,0-3.32,5.64h0A4.64,4.64,0,0,0,29.57,94.16Z" style="fill:none;stroke:#414042;stroke-miterlimit:10;stroke-width:1.5px"/><circle cx="16.57" cy="111.16" r="5.89" transform="translate(-94.83 96.29) rotate(-73.91)" style="fill:#fde99d"/><circle cx="16.57" cy="111.16" r="5.89" transform="translate(-94.83 96.29) rotate(-73.91)" style="fill:none;stroke:#414042;stroke-miterlimit:10;stroke-width:1.5px"/><path d="M17,85.83a6.45,6.45,0,0,1,12.4,3.57Z" style="fill:#757474"/><path d="M10.91,109.53a5.89,5.89,0,1,1,11,4.07l-11.16-3.22A5.84,5.84,0,0,1,10.91,109.53Z" style="fill:#231f20;opacity:0.30000000000000004"/><polygon points="3.23 107.32 29.67 114.94 32.15 94.88 11.54 88.94 3.23 107.32" style="fill:#757474"/><polygon points="14.04 89.66 16.26 90.3 7.95 108.68 5.73 108.04 14.04 89.66" style="fill:#bab9b9"/><rect x="20.48" y="78.82" width="4.16" height="21.47" transform="translate(114.86 92.68) rotate(106.09)" style="fill:#535151"/><path d="M17,85.83a6.45,6.45,0,0,1,12.4,3.57Z" style="fill:none;stroke:#414042;stroke-miterlimit:10;stroke-width:1.5px"/><polyline points="32.3 94.53 33.45 90.52 12.83 84.58 11.67 88.58" style="fill:none;stroke:#414042;stroke-miterlimit:10;stroke-width:1.5px"/><polygon points="3.23 107.32 29.67 114.94 32.15 94.88 11.54 88.94 3.23 107.32" style="fill:none;stroke:#414042;stroke-miterlimit:10;stroke-width:1.5px"/><circle cx="39.36" cy="86.84" r="5.18" transform="matrix(0.97, -0.25, 0.25, 0.97, -20.53, 12.65)" style="fill:#535151"/><circle cx="39.36" cy="86.84" r="5.18" transform="matrix(0.97, -0.25, 0.25, 0.97, -20.53, 12.65)" style="fill:none;stroke:#414042;stroke-miterlimit:10;stroke-width:1.5px"/><circle cx="39.36" cy="86.84" r="2.31" transform="translate(-20.53 12.65) rotate(-14.53)" style="fill:#f1f2f2"/><circle cx="78.45" cy="121.87" r="5.18" style="fill:#535151"/><circle cx="78.45" cy="121.87" r="5.18" style="fill:none;stroke:#414042;stroke-miterlimit:10;stroke-width:1.5px"/><circle cx="78.45" cy="121.87" r="2.31" style="fill:#f1f2f2"/><circle cx="64.49" cy="168.15" r="5.18" style="fill:#535151"/><circle cx="64.49" cy="168.15" r="5.18" style="fill:none;stroke:#414042;stroke-miterlimit:10;stroke-width:1.5px"/><circle cx="64.49" cy="168.15" r="2.31" style="fill:#f1f2f2"/><line x1="62.41" y1="104.72" x2="60" y2="107.93" style="fill:none;stroke:#414042;stroke-miterlimit:10;stroke-width:1.5px"/><line x1="69.78" y1="143.6" x2="73.23" y2="144.79" style="fill:none;stroke:#414042;stroke-miterlimit:10;stroke-width:1.5px"/><rect x="36.11" y="181.59" width="41.95" height="4.4" transform="translate(114.18 367.58) rotate(180)" style="fill:#535151"/><rect x="36.11" y="181.59" width="41.95" height="4.4" transform="translate(114.18 367.58) rotate(180)" style="fill:none;stroke:#414042;stroke-miterlimit:10;stroke-width:1.5px"/><path d="M44.68,179.52l3.37-28.14-3.23-.33-3.37,28.14,1.08,3.88a.1.1,0,0,0,.17,0Z" style="fill:#fff"/><polygon points="44.68 179.53 48.05 151.39 44.82 151.05 41.45 179.19 44.68 179.53" style="fill:#f1b8a4"/><polygon points="43.06 179.36 46.44 151.22 44.82 151.05 41.45 179.19 43.06 179.36" style="fill:#e78967"/><polygon points="47.72 154.88 48.14 151.39 44.73 151.04 44.31 154.53 47.72 154.88" style="fill:#fff"/><path d="M44.68,179.52l3.37-28.14-3.23-.33-3.37,28.14,1.08,3.88a.1.1,0,0,0,.17,0Z" style="fill:none;stroke:#414042;stroke-miterlimit:10;stroke-width:1.5px"/><line x1="44.4" y1="154.54" x2="47.23" y2="154.83" style="fill:none;stroke:#414042;stroke-miterlimit:10;stroke-width:1.5px"/><line x1="41.65" y1="179.21" x2="44.48" y2="179.5" style="fill:none;stroke:#414042;stroke-miterlimit:10;stroke-width:1.5px"/><path d="M38.32,180,42,146.39l-3.57-.4-3.72,33.6,1.2,4.63a.1.1,0,0,0,.19,0Z" style="fill:#fff"/><rect x="21.49" y="161.2" width="33.81" height="3.59" transform="translate(204.63 142.79) rotate(96.32)" style="fill:#f1b8a4"/><rect x="20.6" y="162" width="33.81" height="1.8" transform="translate(203.54 143.57) rotate(96.32)" style="fill:#e78967"/><rect x="37.93" y="146.38" width="4.19" height="3.79" transform="translate(191.81 124.82) rotate(96.32)" style="fill:#fff"/><path d="M38.32,180,42,146.39l-3.57-.4-3.72,33.6,1.2,4.63a.1.1,0,0,0,.19,0Z" style="fill:none;stroke:#414042;stroke-miterlimit:10;stroke-width:1.5px"/><line x1="38.01" y1="150.16" x2="41.13" y2="150.51" style="fill:none;stroke:#414042;stroke-miterlimit:10;stroke-width:1.5px"/><line x1="34.97" y1="179.62" x2="38.09" y2="179.97" style="fill:none;stroke:#414042;stroke-miterlimit:10;stroke-width:1.5px"/><path d="M44.18,179.13,33.81,148.07l-3.42,1.06L40.76,180.2l3,3.6a.1.1,0,0,0,.18-.06Z" style="fill:#fff"/><polygon points="44.18 179.13 33.81 148.07 30.39 149.13 40.76 180.2 44.18 179.13" style="fill:#f1b8a4"/><polygon points="42.47 179.67 32.1 148.6 30.39 149.13 40.76 180.2 42.47 179.67" style="fill:#e78967"/><polygon points="35.19 151.89 33.9 148.03 30.3 149.16 31.58 153.01 35.19 151.89" style="fill:#fff"/><path d="M44.18,179.13,33.81,148.07l-3.42,1.06L40.76,180.2l3,3.6a.1.1,0,0,0,.18-.06Z" style="fill:none;stroke:#414042;stroke-miterlimit:10;stroke-width:1.5px"/><line x1="31.68" y1="152.98" x2="34.67" y2="152.05" style="fill:none;stroke:#414042;stroke-miterlimit:10;stroke-width:1.5px"/><line x1="40.98" y1="180.13" x2="43.97" y2="179.2" style="fill:none;stroke:#414042;stroke-miterlimit:10;stroke-width:1.5px"/><polygon points="46.38 185.99 30.63 185.99 28.41 157.89 48.6 157.89 46.38 185.99" style="fill:#535151"/><polygon points="46.38 185.99 30.63 185.99 28.41 157.89 48.6 157.89 46.38 185.99" style="fill:#fde99d;stroke:#414042;stroke-miterlimit:10;stroke-width:1.5px"/><polygon points="48.19 163.09 48.48 159.36 28.52 159.36 28.82 163.09 48.19 163.09" style="fill:#231f20;opacity:0.30000000000000004"/><rect x="26.5" y="157.14" width="24" height="3.74" rx="0.43" ry="0.43" style="fill:#fde99d"/><rect x="26.5" y="157.14" width="24" height="1.74" rx="0.43" ry="0.43" style="fill:#fef2c4"/><rect x="26.5" y="157.14" width="24" height="3.74" rx="0.43" ry="0.43" style="fill:none;stroke:#414042;stroke-miterlimit:10;stroke-width:1.5px"/><path d="M327.09,149.81H324a13.74,13.74,0,0,1-13.72-13.72V125.65a3.69,3.69,0,1,1,7.38,0v10.44a6.35,6.35,0,0,0,6.34,6.35h3.11a3.69,3.69,0,0,1,0,7.38Z" style="fill:#e78967"/><path d="M325.62,148.17h3.11a3.64,3.64,0,0,0,1.64-.39,3.64,3.64,0,0,0,.37-1.25h-2.66a13.74,13.74,0,0,1-13.72-13.72V122.37a3.59,3.59,0,0,1,0-.37,3.16,3.16,0,0,0-2.08.36,3.64,3.64,0,0,0-.4,1.65v10.44A13.74,13.74,0,0,0,325.62,148.17Z" style="fill:#eca185"/><path d="M329.52,143.25h3.11a13.74,13.74,0,0,0,13.72-13.72V119.09a3.69,3.69,0,1,0-7.38,0v10.44a6.35,6.35,0,0,1-6.34,6.35h-3.11a3.69,3.69,0,0,0,0,7.38Z" style="fill:#e78967"/><path d="M344.72,128.26V117.55a3.8,3.8,0,0,0-.45-1.76,3.52,3.52,0,0,0-2.83-.16v10.11a13.92,13.92,0,0,1-13.72,14.08h-1.85a3.67,3.67,0,0,0,1.1,2.39,3.55,3.55,0,0,0,.92.13H331A13.92,13.92,0,0,0,344.72,128.26Z" style="fill:#eca185"/><path d="M327.09,149.81H324a13.74,13.74,0,0,1-13.72-13.72V125.65a3.69,3.69,0,1,1,7.38,0v10.44a6.35,6.35,0,0,0,6.34,6.35h3.11a3.69,3.69,0,0,1,0,7.38Z" style="fill:none;stroke:#414042;stroke-miterlimit:10;stroke-width:1.5px"/><path d="M329.52,143.25h3.11a13.74,13.74,0,0,0,13.72-13.72V119.09a3.69,3.69,0,1,0-7.38,0v10.44a6.35,6.35,0,0,1-6.34,6.35h-3.11a3.69,3.69,0,0,0,0,7.38Z" style="fill:none;stroke:#414042;stroke-miterlimit:10;stroke-width:1.5px"/><rect x="324.7" y="116.52" width="9.23" height="47.66" rx="3.23" ry="3.23" style="fill:#e78967"/><path d="M328.07,158.52V116.7a4.62,4.62,0,0,0-1.73.92v40.9c0,3.06,1.41,5.56,3.15,5.65h.31l.26,0a2.2,2.2,0,0,0,.39-.14C329.09,163.31,328.07,161.11,328.07,158.52Z" style="fill:#eca185"/><path d="M333.46,161.58a6.52,6.52,0,0,1-.75-3.06V118a4.62,4.62,0,0,0-2.46-1.4v41.9a6.12,6.12,0,0,0,2,4.63A4.65,4.65,0,0,0,333.46,161.58Z" style="fill:#eca185"/><rect x="324.7" y="116.52" width="9.23" height="47.66" rx="3.23" ry="3.23" style="fill:none;stroke:#414042;stroke-miterlimit:10;stroke-width:1.5px"/><path d="M335.23,186H323.14a8.74,8.74,0,0,1-8.69-7.85L312,153.74H346.4l-2.48,24.39A8.74,8.74,0,0,1,335.23,186Z" style="fill:#fde99d"/><polygon points="345.29 164.67 346.04 157.22 312.32 157.22 313.08 164.67 345.29 164.67" style="fill:#beaf76"/><path d="M335.23,186H323.14a8.74,8.74,0,0,1-8.69-7.85L312,153.74H346.4l-2.48,24.39A8.74,8.74,0,0,1,335.23,186Z" style="fill:none;stroke:#414042;stroke-miterlimit:10;stroke-width:1.5px"/><rect x="308.69" y="152.31" width="40.99" height="7.45" rx="1.81" ry="1.81" style="fill:#fde99d"/><rect x="308.69" y="152.31" width="40.99" height="7.45" rx="1.81" ry="1.81" style="fill:none;stroke:#414042;stroke-miterlimit:10;stroke-width:1.5px"/><line x1="324.7" y1="124.25" x2="328.61" y2="124.25" style="fill:none;stroke:#414042;stroke-miterlimit:10;stroke-width:1.5px"/><line x1="330.02" y1="130.11" x2="333.93" y2="130.11" style="fill:none;stroke:#414042;stroke-miterlimit:10;stroke-width:1.5px"/><line x1="324.7" y1="135.97" x2="328.61" y2="135.97" style="fill:none;stroke:#414042;stroke-miterlimit:10;stroke-width:1.5px"/><line x1="324.7" y1="147.08" x2="328.61" y2="147.08" style="fill:none;stroke:#414042;stroke-miterlimit:10;stroke-width:1.5px"/><line x1="313.03" y1="144.47" x2="316.94" y2="144.47" style="fill:none;stroke:#414042;stroke-miterlimit:10;stroke-width:1.5px"/><line x1="336.54" y1="140.35" x2="341.06" y2="140.35" style="fill:none;stroke:#414042;stroke-miterlimit:10;stroke-width:1.5px"/><line x1="341.88" y1="126.1" x2="346.4" y2="126.1" style="fill:none;stroke:#414042;stroke-miterlimit:10;stroke-width:1.5px"/><line x1="338.8" y1="120.39" x2="343.32" y2="120.39" style="fill:none;stroke:#414042;stroke-miterlimit:10;stroke-width:1.5px"/><line x1="337.92" y1="132.79" x2="342.44" y2="132.79" style="fill:none;stroke:#414042;stroke-miterlimit:10;stroke-width:1.5px"/><line x1="310.36" y1="133.45" x2="314.28" y2="133.45" style="fill:none;stroke:#414042;stroke-miterlimit:10;stroke-width:1.5px"/><line x1="314.41" y1="139.08" x2="318.32" y2="139.08" style="fill:none;stroke:#414042;stroke-miterlimit:10;stroke-width:1.5px"/><line x1="313.59" y1="127.07" x2="317.51" y2="127.09" style="fill:none;stroke:#414042;stroke-miterlimit:10;stroke-width:1.5px"/><line x1="330.02" y1="141.83" x2="333.93" y2="141.83" style="fill:none;stroke:#414042;stroke-miterlimit:10;stroke-width:1.5px"/><path d="M303.63,107.55" style="fill:none;stroke:#414042;stroke-miterlimit:10;stroke-width:1.5px"/><rect x="275.84" y="162.52" width="40.53" height="23.47" rx="3.21" ry="3.21" style="fill:#535151"/><rect x="275.84" y="162.52" width="40.53" height="19.82" rx="2.93" ry="2.93" style="fill:#757474"/><rect x="275.84" y="173.71" width="40.53" height="8.14" style="fill:#fec1a0"/><rect x="275.84" y="178.96" width="40.53" height="1.44" style="fill:#bf9178"/><rect x="275.84" y="175.79" width="40.53" height="1.44" style="fill:#bf9178"/><rect x="275.84" y="162.52" width="40.53" height="23.47" rx="3.21" ry="3.21" style="fill:none;stroke:#414042;stroke-miterlimit:10;stroke-width:1.5px"/><circle cx="292.22" cy="174.25" r="9.8" style="fill:#fde99d"/><circle cx="292.22" cy="174.25" r="7.75" style="fill:none;stroke:#414042;stroke-miterlimit:10;stroke-width:1.5px"/><circle cx="292.22" cy="174.25" r="5.62" style="fill:#fef6d8"/><circle cx="292.22" cy="174.25" r="3.88" style="fill:#fef2c4"/><circle cx="292.22" cy="174.25" r="2.26" style="fill:#fdedb1"/><circle cx="292.22" cy="174.25" r="1.46" style="fill:#beaf76"/><circle cx="292.22" cy="174.25" r="9.8" style="fill:none;stroke:#414042;stroke-miterlimit:10;stroke-width:1.5px"/><ellipse cx="289.05" cy="169.33" rx="2.62" ry="1.01" transform="translate(-44.19 203.55) rotate(-36.23)" style="fill:#fffffe"/><circle cx="281.46" cy="166.57" r="0.9" style="fill:#e78967"/><circle cx="300.51" cy="183.01" r="0.54" style="fill:#fffffe"/><rect x="304.68" y="165.11" width="9.21" height="4.7" style="fill:#d0ccce"/><polygon points="308.31 165.12 304.68 168.75 304.68 169.82 307.05 169.82 311.75 165.12 308.31 165.12" style="fill:#fffffe"/><polygon points="310.13 169.82 313.89 166.06 313.89 165.12 312.59 165.12 307.88 169.82 310.13 169.82" style="fill:#fffffe"/><line x1="303.06" y1="161.18" x2="309.22" y2="161.18" style="fill:none;stroke:#414042;stroke-miterlimit:10;stroke-width:1.5px"/><polygon points="212.38 180.79 150.14 180.79 158.13 157.58 204.67 157.58 212.38 180.79" style="fill:#fffffe"/><polygon points="151.25 175.81 209.95 172.35 204.96 158.85 157.56 158.85 151.25 175.81" style="fill:#bcbec0"/><polyline points="150.14 180.79 158.13 157.58 204.67 157.58 212.38 180.79" style="fill:none;stroke:#414042;stroke-miterlimit:10;stroke-width:1.5px"/><rect x="108.98" y="79.3" width="144.56" height="77.46" rx="2.29" ry="2.29" style="fill:#535151"/><path d="M253.54,152.66v8.82a5.89,5.89,0,0,1-6.1,5.66H115.08a5.89,5.89,0,0,1-6.1-5.66v-8.82Z" style="fill:#fffffe"/><rect x="114.33" y="84.57" width="133.85" height="62.89" style="fill:#fde99d"/><polygon points="149.47 84.57 114.33 119.71 114.33 147.46 154.22 147.46 217.11 84.57 149.47 84.57" style="fill:#fef2c4"/><polygon points="162.13 147.46 188.48 147.46 248.19 87.75 248.19 84.57 225.02 84.57 162.13 147.46" style="fill:#fef2c4"/><rect x="145.18" y="180.78" width="72.16" height="5.21" style="fill:#f1f2f2"/><path d="M208,180.78h6.69a2.6,2.6,0,0,1,2.6,2.6h0a2.6,2.6,0,0,1-2.6,2.6h-67a2.6,2.6,0,0,1-2.6-2.6h0a2.6,2.6,0,0,1,2.6-2.6h26" style="fill:none;stroke:#414042;stroke-miterlimit:10;stroke-width:1.5px"/><rect x="108.98" y="79.3" width="144.56" height="87.86" rx="2.29" ry="2.29" style="fill:none;stroke:#414042;stroke-miterlimit:10;stroke-width:1.5px"/><line x1="108.98" y1="152.65" x2="253.54" y2="152.65" style="fill:none;stroke:#414042;stroke-miterlimit:10;stroke-width:1.5px"/><rect x="244.66" y="159.04" width="14.97" height="37.99" rx="3.14" ry="3.14" transform="translate(430.18 -74.12) rotate(90)" style="fill:#fff"/><path d="M251.95,162.77h8.13a3.42,3.42,0,0,1,3.42,3.42v27.1a0,0,0,0,1,0,0h-15a0,0,0,0,1,0,0v-27.1A3.42,3.42,0,0,1,251.95,162.77Z" transform="translate(434.05 -77.98) rotate(90)" style="fill:#45c1e3"/><path d="M251.95,162.77h8.13a3.42,3.42,0,0,1,3.42,3.42v27.1a0,0,0,0,1,0,0h-15a0,0,0,0,1,0,0v-27.1A3.42,3.42,0,0,1,251.95,162.77Z" transform="translate(434.05 -77.98) rotate(90)" style="fill:#e6e7e8"/><path d="M268.09,175.39a2.22,2.22,0,0,1,2.22,2.22v7.84a2.22,2.22,0,0,0,1-1.83v-7.95a2.22,2.22,0,0,0-2.22-2.22h-28.3v1.94Z" style="fill:#fff"/><path d="M268.73,172.48A2.22,2.22,0,0,1,271,174.7v9.73a2.2,2.2,0,0,0,.32-1.14V172.77a2.22,2.22,0,0,0-2.22-2.22h-28.3v1.94Z" style="fill:#fff"/><path d="M271.28,183.3V172.77a2.21,2.21,0,0,0-.65-1.56v10.16a2.22,2.22,0,0,1-2.22,2.22H240.75v1.94h28.3A2.22,2.22,0,0,0,271.28,183.3Z" style="fill:#a7a9ac"/><line x1="263.55" y1="170.55" x2="263.55" y2="185.52" style="fill:none;stroke:#414042;stroke-miterlimit:10;stroke-width:1.5px"/><line x1="255.95" y1="170.55" x2="255.95" y2="185.52" style="fill:none;stroke:#414042;stroke-miterlimit:10;stroke-width:1.5px"/><line x1="248.35" y1="170.55" x2="248.35" y2="185.52" style="fill:none;stroke:#414042;stroke-miterlimit:10;stroke-width:2px"/><line x1="240.75" y1="170.55" x2="240.75" y2="185.52" style="fill:none;stroke:#414042;stroke-miterlimit:10;stroke-width:2px"/><rect x="244.66" y="159.04" width="14.97" height="37.99" rx="3.14" ry="3.14" transform="translate(430.18 -74.12) rotate(90)" style="fill:none;stroke:#414042;stroke-miterlimit:10;stroke-width:1.5px"/><polygon points="247.61 185.99 244.92 183.3 258.37 169.95 263.73 169.97 247.61 185.99" style="fill:#231f20;opacity:0.30000000000000004"/><rect x="244.68" y="148.72" width="14.97" height="37.99" rx="3.14" ry="3.14" transform="translate(192.45 -129.19) rotate(45)" style="fill:#fff"/><path d="M250.84,149.72H259a3.42,3.42,0,0,1,3.42,3.42v27.1a0,0,0,0,1,0,0h-15a0,0,0,0,1,0,0v-27.1a3.42,3.42,0,0,1,3.42-3.42Z" transform="translate(191.32 -131.92) rotate(45)" style="fill:#45c1e3"/><path d="M250.84,149.72H259a3.42,3.42,0,0,1,3.42,3.42v27.1a0,0,0,0,1,0,0h-15a0,0,0,0,1,0,0v-27.1a3.42,3.42,0,0,1,3.42-3.42Z" transform="translate(191.32 -131.92) rotate(45)" style="fill:#fde99d"/><path d="M261.57,154.57a2.22,2.22,0,0,1,3.14,0l5.55,5.55a2.22,2.22,0,0,0-.61-2L264,152.52a2.22,2.22,0,0,0-3.14,0l-20,20,1.37,1.37Z" style="fill:#fef2c4"/><path d="M260,152.06a2.22,2.22,0,0,1,3.14,0l6.88,6.88a2.2,2.2,0,0,0-.58-1L262,150.47a2.22,2.22,0,0,0-3.14,0l-20,20,1.37,1.37Z" style="fill:#fef2c4"/><path d="M269.42,157.91,262,150.47a2.21,2.21,0,0,0-1.56-.65l7.18,7.18a2.22,2.22,0,0,1,0,3.14L248,179.7l1.37,1.37,20-20A2.22,2.22,0,0,0,269.42,157.91Z" style="fill:#beaf76"/><line x1="254.93" y1="154.36" x2="265.52" y2="164.95" style="fill:none;stroke:#414042;stroke-miterlimit:10;stroke-width:1.5px"/><line x1="249.56" y1="159.73" x2="260.15" y2="170.32" style="fill:none;stroke:#414042;stroke-miterlimit:10;stroke-width:1.5px"/><line x1="243.82" y1="165.25" x2="254.41" y2="175.84" style="fill:none;stroke:#414042;stroke-miterlimit:10;stroke-width:1.5px"/><rect x="244.68" y="148.72" width="14.97" height="37.99" rx="3.14" ry="3.14" transform="translate(192.45 -129.19) rotate(45)" style="fill:none;stroke:#414042;stroke-miterlimit:10;stroke-width:1.5px"/><polygon points="250.89 185.94 247.09 185.94 247.09 161.54 250.89 157.77 250.89 185.94" style="fill:#231f20;opacity:0.30000000000000004"/><rect x="233.16" y="147.65" width="14.97" height="37.99" rx="3.14" ry="3.14" style="fill:#fff"/><path d="M236.58,147.51h8.13a3.42,3.42,0,0,1,3.42,3.42V178a0,0,0,0,1,0,0h-15a0,0,0,0,1,0,0v-27.1A3.42,3.42,0,0,1,236.58,147.51Z" style="fill:#45c1e3"/><path d="M236.58,147.51h8.13a3.42,3.42,0,0,1,3.42,3.42V178a0,0,0,0,1,0,0h-15a0,0,0,0,1,0,0v-27.1A3.42,3.42,0,0,1,236.58,147.51Z" style="fill:#e78967"/><path d="M238,150.7a2.22,2.22,0,0,1,2.22-2.22h7.84a2.22,2.22,0,0,0-1.83-1h-7.95a2.22,2.22,0,0,0-2.22,2.22V178H238Z" style="fill:#f1b8a4"/><path d="M235.09,150.06a2.22,2.22,0,0,1,2.22-2.22H247a2.2,2.2,0,0,0-1.14-.32H235.38a2.22,2.22,0,0,0-2.22,2.22V178h1.94Z" style="fill:#f1b8a4"/><circle cx="240.64" cy="181.89" r="1.43" style="fill:none;stroke:#414042;stroke-miterlimit:10;stroke-width:1.5px"/><path d="M245.91,147.51H235.38a2.21,2.21,0,0,0-1.56.65H244a2.22,2.22,0,0,1,2.22,2.22V178h1.94v-28.3A2.22,2.22,0,0,0,245.91,147.51Z" style="fill:#ad674d"/><line x1="233.16" y1="155.24" x2="248.13" y2="155.24" style="fill:none;stroke:#414042;stroke-miterlimit:10;stroke-width:1.5px"/><line x1="233.16" y1="162.84" x2="248.13" y2="162.84" style="fill:none;stroke:#414042;stroke-miterlimit:10;stroke-width:1.5px"/><line x1="233.16" y1="170.44" x2="248.13" y2="170.44" style="fill:none;stroke:#414042;stroke-miterlimit:10;stroke-width:1.5px"/><line x1="233.16" y1="178.03" x2="248.13" y2="178.03" style="fill:none;stroke:#414042;stroke-miterlimit:10;stroke-width:1.5px"/><rect x="233.16" y="147.65" width="14.97" height="37.99" rx="3.14" ry="3.14" style="fill:none;stroke:#414042;stroke-miterlimit:10;stroke-width:1.5px"/><path d="M106.9,158.86H80.81v7.94A22.49,22.49,0,0,0,86.75,182h0v4H101v-4h0a22.49,22.49,0,0,0,5.94-15.23Z" style="fill:#aca39e"/><path d="M101.54,158.86v7.94A22.49,22.49,0,0,1,95.6,182h0v4h3.07v-4h0a22.49,22.49,0,0,0,5.94-15.23v-7.94Z" style="fill:#dedad8"/><path d="M106.9,158.86H80.81v7.94A22.49,22.49,0,0,0,86.75,182h0v4H101v-4h0a22.49,22.49,0,0,0,5.94-15.23Z" style="fill:none;stroke:#414042;stroke-miterlimit:10;stroke-width:1.5px"/><path d="M82.13,173.88H77.84a5.6,5.6,0,0,1-5.58-5.58h0a5.6,5.6,0,0,1,5.58-5.58H80.6" style="fill:none;stroke:#414042;stroke-miterlimit:10;stroke-width:1.5px"/><path d="M90.56,156v-1.56a4.18,4.18,0,0,1,4.18-4.18h3.85a1.51,1.51,0,0,0,1.51-1.51h0a1.51,1.51,0,0,0-1.51-1.51H86.47a1.37,1.37,0,0,1-1.37-1.37h0a1.37,1.37,0,0,1,1.37-1.37h5.1" style="fill:none;stroke:#414042;stroke-miterlimit:10;stroke-width:1.5px"/><path d="M93.66,144.82H98a1.54,1.54,0,0,0,1.54-1.54h0A1.54,1.54,0,0,0,98,141.74H86.77a1.67,1.67,0,0,1-1.67-1.67h0a1.67,1.67,0,0,1,1.67-1.67h16.4" style="fill:none;stroke:#414042;stroke-miterlimit:10;stroke-width:1.5px"/><path d="M117.55,170.49h1.59l2.38-7.22-3.26-5.74h-.51l0,5.49a3.48,3.48,0,0,1,.63.32,1,1,0,1,1-1.48,0,3,3,0,0,1,.51-.34l.13-5.48H117l-3.34,5.71,2.33,7.23Z" style="fill:#f1f2f2"/><polygon points="119.16 169.73 119.55 168.29 115.63 168.29 116 169.72 117.57 169.72 117.59 169.72 119.16 169.73" style="fill:#bcbec0"/><line x1="117.59" y1="157.54" x2="117.59" y2="163.02" style="fill:none;stroke:#414042;stroke-miterlimit:10;stroke-width:1.5px"/><circle cx="117.59" cy="164.16" r="1.23" style="fill:none;stroke:#414042;stroke-miterlimit:10;stroke-width:1.5px"/><polyline points="117.49 157.54 116.99 157.54 113.65 163.25 115.98 170.49 117.55 170.49 117.57 170.5 119.14 170.5 121.52 163.28 118.27 157.54 117.76 157.54" style="fill:none;stroke:#414042;stroke-miterlimit:10;stroke-width:1.5px"/><rect x="114.11" y="169.97" width="6.95" height="12.54" style="fill:#757474"/><rect x="117.59" y="169.97" width="3.47" height="12.54" style="fill:#535151"/><polyline points="114.11 182.51 114.11 169.97 121.06 169.97 121.06 182.51" style="fill:none;stroke:#414042;stroke-miterlimit:10;stroke-width:1.5px"/><rect x="124.66" y="166.81" width="28.43" height="6.15" transform="translate(199.79 -40.91) rotate(55.38)" style="fill:#fde99d"/><rect x="126.06" y="167.55" width="28.43" height="2.74" transform="translate(199.6 -42.48) rotate(55.38)" style="fill:#fef6d8"/><line x1="136.01" y1="160.32" x2="134.47" y2="161.38" style="fill:none;stroke:#414042;stroke-miterlimit:10;stroke-width:1.5px"/><line x1="133.87" y1="157.22" x2="132.33" y2="158.28" style="fill:none;stroke:#414042;stroke-miterlimit:10;stroke-width:1.5px"/><line x1="138.15" y1="163.42" x2="136.62" y2="164.48" style="fill:none;stroke:#414042;stroke-miterlimit:10;stroke-width:1.5px"/><line x1="140.29" y1="166.52" x2="138.76" y2="167.58" style="fill:none;stroke:#414042;stroke-miterlimit:10;stroke-width:1.5px"/><line x1="142.43" y1="169.63" x2="140.9" y2="170.68" style="fill:none;stroke:#414042;stroke-miterlimit:10;stroke-width:1.5px"/><line x1="146.71" y1="175.83" x2="145.18" y2="176.88" style="fill:none;stroke:#414042;stroke-miterlimit:10;stroke-width:1.5px"/><line x1="144.57" y1="172.73" x2="143.04" y2="173.78" style="fill:none;stroke:#414042;stroke-miterlimit:10;stroke-width:1.5px"/><line x1="148.85" y1="178.93" x2="147.32" y2="179.98" style="fill:none;stroke:#414042;stroke-miterlimit:10;stroke-width:1.5px"/><path d="M124.66,166.81H151.6a1.48,1.48,0,0,1,1.48,1.48v3.19A1.48,1.48,0,0,1,151.6,173H124.66a0,0,0,0,1,0,0v-6.15a0,0,0,0,1,0,0Z" transform="translate(199.79 -40.91) rotate(55.38)" style="fill:none;stroke:#414042;stroke-miterlimit:10;stroke-width:1.5px"/><path d="M151.49,183.08h-7.77V154.65h0a11.14,11.14,0,0,1,7.77,10.62Z" style="fill:#dedad8"/><path d="M151.49,183.08h-7.77V154.65h0a11.14,11.14,0,0,1,7.77,10.62Z" style="fill:none;stroke:#414042;stroke-miterlimit:10;stroke-width:1.5px"/><line x1="149.46" y1="163.33" x2="149.46" y2="168.57" style="fill:none;stroke:#414042;stroke-miterlimit:10;stroke-width:1.5px"/><rect x="112.65" y="176.36" width="39.33" height="9.63" rx="4.11" ry="4.11" style="fill:#e78967"/><path d="M147.9,183.52H116.73a4.09,4.09,0,0,1-4-3.58,4.06,4.06,0,0,0,0,.5v1.47a4.09,4.09,0,0,0,4.08,4.08H147.9a4.09,4.09,0,0,0,4.08-4.08v-1.47a4.06,4.06,0,0,0,0-.5A4.09,4.09,0,0,1,147.9,183.52Z" style="fill:#ad674d"/><rect x="112.65" y="176.36" width="39.33" height="9.63" rx="4.11" ry="4.11" style="fill:none;stroke:#414042;stroke-miterlimit:10;stroke-width:1.5px"/><polygon points="139.24 79.31 118 79.31 118 94.8 123.74 100.54 139.24 100.54 139.24 79.31" style="fill:#e78967"/><polygon points="123.74 94.8 118 94.8 123.74 100.54 123.74 94.8" style="fill:#eca185"/><polyline points="123.74 100.54 123.74 94.8 118 94.8" style="fill:none;stroke:#414042;stroke-miterlimit:10;stroke-width:1.5px"/><polygon points="139.24 79.31 118 79.31 118 94.8 123.74 100.54 139.24 100.54 139.24 79.31" style="fill:none;stroke:#414042;stroke-miterlimit:10;stroke-width:1.5px"/><line x1="122.67" y1="84.69" x2="134.57" y2="84.69" style="fill:none;stroke:#414042;stroke-miterlimit:10;stroke-width:1.5px"/><line x1="122.67" y1="88.25" x2="134.57" y2="88.25" style="fill:none;stroke:#414042;stroke-miterlimit:10;stroke-width:1.5px"/><line x1="122.67" y1="91.8" x2="129.22" y2="91.8" style="fill:none;stroke:#414042;stroke-miterlimit:10;stroke-width:1.5px"/><polygon points="154.01 79.31 132.78 79.31 132.78 94.8 138.51 100.54 154.01 100.54 154.01 79.31" style="fill:#e6e7e8"/><polygon points="138.51 94.8 132.78 94.8 138.51 100.54 138.51 94.8" style="fill:#fffffe"/><polyline points="138.51 100.54 138.51 94.8 132.78 94.8" style="fill:none;stroke:#414042;stroke-miterlimit:10;stroke-width:1.5px"/><polygon points="154.01 79.31 132.78 79.31 132.78 94.8 138.51 100.54 154.01 100.54 154.01 79.31" style="fill:none;stroke:#414042;stroke-miterlimit:10;stroke-width:1.5px"/><line x1="137.45" y1="84.69" x2="149.34" y2="84.69" style="fill:none;stroke:#414042;stroke-miterlimit:10;stroke-width:1.5px"/><line x1="137.45" y1="88.25" x2="149.34" y2="88.25" style="fill:none;stroke:#414042;stroke-miterlimit:10;stroke-width:1.5px"/><line x1="137.45" y1="91.8" x2="144" y2="91.8" style="fill:none;stroke:#414042;stroke-miterlimit:10;stroke-width:1.5px"/><line x1="12.56" y1="185.99" x2="354.83" y2="185.99" style="fill:none;stroke:#414042;stroke-miterlimit:10;stroke-width:1.5px"/><line x1="357.99" y1="185.99" x2="363" y2="185.99" style="fill:none;stroke:#414042;stroke-miterlimit:10;stroke-width:1.5px"/><line x1="8.5" y1="185.99" y2="185.99" style="fill:none;stroke:#414042;stroke-miterlimit:10;stroke-width:1.5px"/></svg>