<svg xmlns="http://www.w3.org/2000/svg" viewBox="0 0 364.04 182.05"><title>ecommerce</title><path d="M363.29,142.63a19.8,19.8,0,1,0-37,9.83h0l17,27.89a.59.59,0,0,0,1,0l16.39-27.88h0A19.69,19.69,0,0,0,363.29,142.63Zm-19.8,13.27a13.27,13.27,0,1,1,13.27-13.27A13.27,13.27,0,0,1,343.48,155.9Z" style="fill:#e78967"/><path d="M360,142.65a16.51,16.51,0,1,0-16.51,16.51A16.51,16.51,0,0,0,360,142.65ZM343.48,155.9a13.27,13.27,0,1,1,13.27-13.27A13.27,13.27,0,0,1,343.48,155.9Z" style="fill:#ad674d"/><path d="M363.29,142.63a19.8,19.8,0,1,0-37,9.83l17,27.89a.59.59,0,0,0,1,0l16.36-27.88A19.69,19.69,0,0,0,363.29,142.63Zm-19.8,13.27a13.27,13.27,0,1,1,13.27-13.27A13.27,13.27,0,0,1,343.48,155.9Z" style="fill:none;stroke:#414042;stroke-miterlimit:10;stroke-width:1.5px"/><polygon points="218.42 42.07 215.01 47.67 215.09 54.23 209.04 56.75 205.25 62.11 198.87 60.59 192.66 62.7 188.39 57.72 182.13 55.77 181.6 49.24 177.68 43.98 181.09 38.38 181.01 31.82 187.06 29.3 190.85 23.95 197.23 25.47 203.44 23.36 207.71 28.34 213.97 30.28 214.5 36.82 218.42 42.07" style="fill:#fde99d"/><path d="M218.24,42.38l-3.14,5.17a.53.53,0,0,0-.08.28l.07,6a.53.53,0,0,1-.32.49l-5.58,2.33a.53.53,0,0,0-.23.18l-3.49,4.94a.53.53,0,0,1-.55.21L199,60.62a.53.53,0,0,0-.29,0L193,62.58a.53.53,0,0,1-.57-.16l-3.94-4.59a.53.53,0,0,0-.24-.16l-5.78-1.8a.53.53,0,0,1-.37-.46l-.49-6a.53.53,0,0,0-.1-.27l-3.61-4.85a.53.53,0,0,1,0-.59L181,38.51a.53.53,0,0,0,.08-.28l-.07-6a.53.53,0,0,1,.32-.49l5.58-2.33a.53.53,0,0,0,.23-.18l3.49-4.94a.53.53,0,0,1,.55-.21l5.89,1.4a.53.53,0,0,0,.29,0l5.73-1.95a.53.53,0,0,1,.57.16l3.94,4.59a.53.53,0,0,0,.24.16l5.78,1.8a.53.53,0,0,1,.37.46l.49,6a.53.53,0,0,0,.1.27l3.61,4.85A.53.53,0,0,1,218.24,42.38Z" style="fill:none;stroke:#414042;stroke-miterlimit:10;stroke-width:1.5px"/><circle cx="198.05" cy="42.94" r="14.27" transform="translate(-1.79 9.31) rotate(-2.68)" style="fill:#fef2c4"/><path d="M196,36.2a3.78,3.78,0,0,1,0,5.05,3.3,3.3,0,0,1-4.83,0,3.78,3.78,0,0,1,0-5.05,3.31,3.31,0,0,1,4.83,0Zm9.11-.66L193.67,51.2h-2.89l11.47-15.65ZM194.52,39.9a1.78,1.78,0,0,0,.36-1.13,1.71,1.71,0,0,0-.38-1.13,1.16,1.16,0,0,0-.93-.46,1.1,1.1,0,0,0-.91.46,1.78,1.78,0,0,0-.36,1.13,1.71,1.71,0,0,0,.38,1.13,1.16,1.16,0,0,0,.93.46A1.1,1.1,0,0,0,194.52,39.9Zm10.39,5.37a3.78,3.78,0,0,1,0,5.05,3.31,3.31,0,0,1-4.83,0,3.78,3.78,0,0,1,0-5.05,3.3,3.3,0,0,1,4.83,0ZM203.46,49a1.79,1.79,0,0,0,.36-1.13,1.71,1.71,0,0,0-.38-1.13,1.17,1.17,0,0,0-.93-.46,1.1,1.1,0,0,0-.91.46,1.78,1.78,0,0,0-.36,1.13,1.71,1.71,0,0,0,.38,1.13,1.16,1.16,0,0,0,.93.46A1.11,1.11,0,0,0,203.46,49Z" style="fill:#535151"/><line x1="198.05" y1="18.22" x2="198.05" y2="20.8" style="fill:none;stroke:#414042;stroke-miterlimit:10;stroke-width:1.5px"/><line x1="207.38" y1="17.28" x2="205.61" y2="22.13" style="fill:none;stroke:#414042;stroke-miterlimit:10;stroke-width:1.5px"/><line x1="213.92" y1="23.98" x2="212.27" y2="25.96" style="fill:none;stroke:#414042;stroke-miterlimit:10;stroke-width:1.5px"/><line x1="221.67" y1="29.25" x2="217.21" y2="31.84" style="fill:none;stroke:#414042;stroke-miterlimit:10;stroke-width:1.5px"/><line x1="222.39" y1="38.59" x2="219.85" y2="39.05" style="fill:none;stroke:#414042;stroke-miterlimit:10;stroke-width:1.5px"/><line x1="224.95" y1="47.61" x2="219.87" y2="46.72" style="fill:none;stroke:#414042;stroke-miterlimit:10;stroke-width:1.5px"/><line x1="219.25" y1="55.09" x2="217.26" y2="53.95" style="fill:none;stroke:#414042;stroke-miterlimit:10;stroke-width:1.5px"/><line x1="215.67" y1="63.78" x2="212.34" y2="59.85" style="fill:none;stroke:#414042;stroke-miterlimit:10;stroke-width:1.5px"/><line x1="206.49" y1="65.84" x2="205.71" y2="63.71" style="fill:none;stroke:#414042;stroke-miterlimit:10;stroke-width:1.5px"/><line x1="198.18" y1="70.23" x2="198.16" y2="65.08" style="fill:none;stroke:#414042;stroke-miterlimit:10;stroke-width:1.5px"/><line x1="189.72" y1="66.21" x2="190.59" y2="63.78" style="fill:none;stroke:#414042;stroke-miterlimit:10;stroke-width:1.5px"/><line x1="180.62" y1="63.95" x2="183.92" y2="59.98" style="fill:none;stroke:#414042;stroke-miterlimit:10;stroke-width:1.5px"/><line x1="176.72" y1="55.43" x2="178.95" y2="54.13" style="fill:none;stroke:#414042;stroke-miterlimit:10;stroke-width:1.5px"/><line x1="171.2" y1="47.86" x2="176.27" y2="46.93" style="fill:none;stroke:#414042;stroke-miterlimit:10;stroke-width:1.5px"/><line x1="173.68" y1="39.05" x2="176.22" y2="39.25" style="fill:none;stroke:#414042;stroke-miterlimit:10;stroke-width:1.5px"/><line x1="174.31" y1="29.47" x2="178.79" y2="32.02" style="fill:none;stroke:#414042;stroke-miterlimit:10;stroke-width:1.5px"/><line x1="182.27" y1="24.44" x2="183.68" y2="26.09" style="fill:none;stroke:#414042;stroke-miterlimit:10;stroke-width:1.5px"/><line x1="188.49" y1="17.37" x2="190.3" y2="22.2" style="fill:none;stroke:#414042;stroke-miterlimit:10;stroke-width:1.5px"/><path d="M53.44,39.72h76a3.91,3.91,0,0,1,3.91,3.91V181.3a0,0,0,0,1,0,0H49.53a0,0,0,0,1,0,0V43.63A3.91,3.91,0,0,1,53.44,39.72Z" style="fill:#fff"/><path d="M53.44,39.72h76a3.91,3.91,0,0,1,3.91,3.91v3.06a0,0,0,0,1,0,0H49.53a0,0,0,0,1,0,0V43.63A3.91,3.91,0,0,1,53.44,39.72Z" style="fill:#d0ccce"/><circle cx="55.86" cy="43.2" r="0.91" style="fill:#e78967"/><circle cx="59.27" cy="43.2" r="0.91" style="fill:#fde99d"/><circle cx="62.67" cy="43.2" r="0.91" style="fill:#535151"/><rect x="50.28" y="46.69" width="82.43" height="5.24" style="fill:#e3e0e2"/><path d="M81.32,48.34H64.68l1.24-4.2a2.56,2.56,0,0,1,2.46-1.83h9.25a2.56,2.56,0,0,1,2.46,1.83Z" style="fill:#e3e0e2"/><rect x="66.49" y="48.28" width="58.86" height="2.06" style="fill:#fffffe"/><rect x="58.36" y="171.52" width="66.98" height="7.22" style="fill:#e78967"/><rect x="58.36" y="160.29" width="23.17" height="6.87" transform="translate(139.89 327.44) rotate(180)" style="fill:#e6e7e8"/><rect x="58.36" y="67.11" width="31.87" height="30.83" style="fill:#fde99d"/><rect x="49.53" y="51.93" width="83.8" height="6.31" style="fill:#e78967"/><line x1="49.53" y1="51.93" x2="132.72" y2="51.93" style="fill:none;stroke:#414042;stroke-miterlimit:10;stroke-width:1.5px"/><path d="M49.53,181.3V43.2A3.48,3.48,0,0,1,53,39.72h76.84a3.48,3.48,0,0,1,3.48,3.48V181.3" style="fill:none;stroke:#414042;stroke-miterlimit:10;stroke-width:1.5px"/><rect x="58.36" y="100.9" width="31.76" height="13.43" style="fill:#fec1a0"/><rect x="96.99" y="67.63" width="28.36" height="2.01" style="fill:#e6e7e8"/><rect x="96.99" y="74.58" width="28.36" height="2.01" transform="translate(222.33 151.16) rotate(180)" style="fill:#e6e7e8"/><rect x="96.99" y="81.52" width="28.36" height="2.01" transform="translate(222.33 165.05) rotate(180)" style="fill:#e6e7e8"/><rect x="96.99" y="88.46" width="28.36" height="2.01" transform="translate(222.33 178.94) rotate(180)" style="fill:#e6e7e8"/><rect x="58.82" y="117.21" width="66.52" height="2.01" transform="translate(184.16 236.43) rotate(180)" style="fill:#e6e7e8"/><rect x="58.82" y="122.46" width="66.52" height="2.01" transform="translate(184.16 246.94) rotate(180)" style="fill:#e6e7e8"/><rect x="58.82" y="127.72" width="66.52" height="2.01" transform="translate(184.16 257.45) rotate(180)" style="fill:#e6e7e8"/><rect x="58.82" y="132.97" width="66.52" height="2.01" transform="translate(184.16 267.96) rotate(180)" style="fill:#e6e7e8"/><rect x="58.82" y="138.23" width="66.52" height="2.01" transform="translate(184.16 278.47) rotate(180)" style="fill:#e6e7e8"/><rect x="96.99" y="95.41" width="18.34" height="2.01" transform="translate(212.31 192.83) rotate(180)" style="fill:#e6e7e8"/><rect x="59.58" y="144.2" width="23.17" height="1.01" style="fill:#e6e7e8"/><rect x="59.58" y="148.98" width="23.17" height="1.01" style="fill:#e6e7e8"/><rect x="59.58" y="153.75" width="15.11" height="1.01" style="fill:#e6e7e8"/><circle cx="101.38" cy="107.61" r="5.46" style="fill:#d1d3d4"/><polyline points="96.98 105.7 100.92 109.63 108.55 102" style="fill:none;stroke:#414042;stroke-miterlimit:10;stroke-width:1.5px"/><circle cx="74.09" cy="81.85" r="2.97" style="fill:#e78967"/><path d="M88.24,96.6a.65.65,0,0,1-.46-.19l-7.32-7.32a.65.65,0,0,1,.92-.92l7.32,7.32a.65.65,0,0,1-.46,1.11Z" style="fill:#414042"/><path d="M74.12,82.48l5.7,14.29c.12.47.37.49.56,0l2.21-5.34a2.22,2.22,0,0,1,.48-.68l-8.85-8.85A.56.56,0,0,0,74.12,82.48Z" style="fill:#f1f2f2"/><path d="M89.05,87.53l-14.28-5.7a.56.56,0,0,0-.55.1l8.85,8.85a2.2,2.2,0,0,1,.68-.48l5.34-2.21C89.55,87.9,89.53,87.65,89.05,87.53Z" style="fill:#fff"/><line x1="74.09" y1="73.82" x2="74.09" y2="78.24" style="fill:none;stroke:#414042;stroke-miterlimit:10;stroke-width:1.5px"/><line x1="79.76" y1="76.16" x2="76.64" y2="79.29" style="fill:none;stroke:#414042;stroke-miterlimit:10;stroke-width:1.5px"/><line x1="82.12" y1="81.82" x2="77.7" y2="81.83" style="fill:none;stroke:#414042;stroke-miterlimit:10;stroke-width:1.5px"/><line x1="74.15" y1="89.88" x2="74.12" y2="85.45" style="fill:none;stroke:#414042;stroke-miterlimit:10;stroke-width:1.5px"/><line x1="68.46" y1="87.57" x2="71.57" y2="84.42" style="fill:none;stroke:#414042;stroke-miterlimit:10;stroke-width:1.5px"/><line x1="66.06" y1="81.93" x2="70.49" y2="81.88" style="fill:none;stroke:#414042;stroke-miterlimit:10;stroke-width:1.5px"/><line x1="68.35" y1="76.24" x2="71.51" y2="79.33" style="fill:none;stroke:#414042;stroke-miterlimit:10;stroke-width:1.5px"/><rect x="76.83" y="127.18" width="81.84" height="52.72" rx="3.19" ry="3.19" style="fill:#535151"/><rect x="80.31" y="131.1" width="74.89" height="47.93" rx="0.46" ry="0.46" style="fill:#fec1a0"/><rect x="76.83" y="127.18" width="81.84" height="52.72" rx="3.19" ry="3.19" style="fill:none;stroke:#414042;stroke-miterlimit:10;stroke-width:1.5px"/><circle cx="117.79" cy="129.14" r="0.78" style="fill:#414042"/><path d="M154.7,181.3H80.78a9.76,9.76,0,0,1-8.25-4.55h0a.25.25,0,0,1,.21-.39h90a.25.25,0,0,1,.21.39h0A9.76,9.76,0,0,1,154.7,181.3Z" style="fill:#e6e7e8"/><path d="M101.64,177.76h32.21a1.39,1.39,0,0,0,1.39-1.39h-35A1.39,1.39,0,0,0,101.64,177.76Z" style="fill:#bcbec0"/><path d="M154.7,181.3H80.78a9.76,9.76,0,0,1-8.25-4.55h0a.25.25,0,0,1,.21-.39h90a.25.25,0,0,1,.21.39h0A9.76,9.76,0,0,1,154.7,181.3Z" style="fill:none;stroke:#414042;stroke-miterlimit:10;stroke-width:1.5px"/><circle cx="42.39" cy="158.03" r="23.28" style="fill:#aca39e"/><circle cx="42.39" cy="158.03" r="23.28" style="fill:none;stroke:#414042;stroke-miterlimit:10;stroke-width:1.5px"/><circle cx="42.39" cy="158.03" r="19.15" style="fill:#fde99d"/><circle cx="42.39" cy="158.03" r="12.86" style="fill:#fef6d8"/><circle cx="42.39" cy="158.03" r="19.15" style="fill:none;stroke:#414042;stroke-miterlimit:10;stroke-width:1.5px"/><path d="M42.39,170.89a12.86,12.86,0,1,1,12.78-14.33" style="fill:none;stroke:#414042;stroke-miterlimit:10;stroke-width:1.5px"/><polygon points="52.8 154.13 55.13 156.17 57.17 153.85 57.29 155.7 55.25 158.03 52.93 155.99 52.8 154.13" style="fill:#414042"/><circle cx="42.39" cy="141.39" r="0.86" style="fill:#414042"/><circle cx="48.08" cy="142.39" r="0.86" transform="translate(-102.17 138.93) rotate(-70.02)" style="fill:#414042"/><circle cx="53.08" cy="145.27" r="0.86" transform="translate(-92.36 92.66) rotate(-50.04)" style="fill:#414042"/><circle cx="56.79" cy="149.69" r="0.86" transform="translate(-67.36 48.6) rotate(-30.07)" style="fill:#414042"/><circle cx="58.77" cy="155.11" r="0.86" transform="translate(-26.27 12.7) rotate(-10.09)" style="fill:#414042"/><circle cx="58.78" cy="160.88" r="0.86" transform="translate(-109.8 191.17) rotate(-80.11)" style="fill:#414042"/><circle cx="56.82" cy="166.31" r="0.86" transform="translate(-115.7 132.78) rotate(-60.14)" style="fill:#414042"/><circle cx="53.12" cy="170.74" r="0.86" transform="translate(-97.59 74.51) rotate(-40.16)" style="fill:#414042"/><circle cx="48.13" cy="173.64" r="0.86" transform="translate(-56.96 27.27) rotate(-20.18)" style="fill:#414042"/><circle cx="42.45" cy="174.66" r="0.86" transform="translate(-0.63 0.15) rotate(-0.21)" style="fill:#414042"/><circle cx="36.77" cy="173.68" r="0.86" transform="translate(-139.12 149.53) rotate(-70.23)" style="fill:#414042"/><circle cx="31.76" cy="170.82" r="0.86" transform="translate(-119.88 86.01) rotate(-50.25)" style="fill:#414042"/><circle cx="28.03" cy="166.41" r="0.86" transform="translate(-80.07 36.82) rotate(-30.27)" style="fill:#414042"/><circle cx="26.02" cy="161" r="0.86" transform="translate(-28.36 7.25) rotate(-10.3)" style="fill:#414042"/><circle cx="25.99" cy="155.23" r="0.86" transform="translate(-131.4 154.75) rotate(-80.32)" style="fill:#414042"/><circle cx="27.94" cy="149.79" r="0.86" transform="translate(-116.06 99.96) rotate(-60.35)" style="fill:#414042"/><circle cx="31.62" cy="145.35" r="0.86" transform="translate(-86.62 55.09) rotate(-40.37)" style="fill:#414042"/><circle cx="36.6" cy="142.43" r="0.86" transform="matrix(0.94, -0.35, 0.35, 0.94, -47.34, 21.68)" style="fill:#414042"/><path d="M42,161v1.28H34.5v-1.09l4-4.14a6.75,6.75,0,0,0,1-1.29,2.26,2.26,0,0,0,.38-1.11,1.28,1.28,0,0,0-.54-1.09,2.45,2.45,0,0,0-1.48-.4,3.84,3.84,0,0,0-1.5.33,4.85,4.85,0,0,0-1.42.92l-.6-1.08a6.87,6.87,0,0,1,1.79-1.05,5.17,5.17,0,0,1,1.91-.38,3.87,3.87,0,0,1,2.41.69,2.22,2.22,0,0,1,.91,1.86q0,1.37-1.92,3.36L36.36,161Z" style="fill:#e78967"/><path d="M50.73,158.39v1.27H49.14v2.65H47.81v-2.65H42.7v-1.09L46.38,152h1.39l-3.54,6.4h3.58v-2.64h1.33v2.64Z" style="fill:#e78967"/><rect x="96.32" y="143.2" width="42.84" height="14.6" rx="1.3" ry="1.3" style="fill:#414042"/><rect x="97.89" y="144.73" width="39.69" height="11.65" style="fill:#aca39e"/><rect x="101.77" y="147.69" width="32.39" height="6.19" rx="1" ry="1" style="fill:#535151"/><rect x="101.77" y="147.69" width="32.39" height="6.19" rx="1" ry="1" style="fill:none;stroke:#414042;stroke-miterlimit:10;stroke-width:1.5px"/><polygon points="130.72 147.66 104.44 147.66 100.59 157.56 134.57 157.56 130.72 147.66" style="fill:#231f20;opacity:0.30000000000000004"/><path d="M129.19,147.66l3.72,22.59a2,2,0,0,1-2,2.34H104.25a2,2,0,0,1-2-2.34L106,147.66Z" style="fill:#fde99d"/><path d="M125.9,147.79l2.3,18a3.79,3.79,0,0,0-4,4H110.55a4,4,0,0,0,.08-.4,3.74,3.74,0,0,0-4-4L109,147.79Z" style="fill:#fef6d8"/><path d="M117.42,148.69c3.89,0,7.29,2.32,7.61,5.43.35,3.4-3.05,6.4-7.64,6.4s-8-3-7.61-6.4C110.12,151,113.53,148.69,117.42,148.69Z" style="fill:#fde99d"/><path d="M117.39,162a2,2,0,1,1,0,4,2.16,2.16,0,0,1-2.3-2.07A2.2,2.2,0,0,1,117.39,162Z" style="fill:#fde99d"/><path d="M123.91,154.65h-1.12a4.9,4.9,0,0,1-1.63,2.91l-1.84-1.18a4.67,4.67,0,0,0,1.3-1.72h-2.29a4,4,0,0,1-1.12,1.89,3.13,3.13,0,0,1-2.09.62,3.29,3.29,0,0,1-2.2-.71,2.52,2.52,0,0,1-.91-1.8h-.75l.11-1.24h.77a5,5,0,0,1,1.39-2.22l1.7.9a4.29,4.29,0,0,0-1,1.32h2.18a4,4,0,0,1,1.13-1.79,3,3,0,0,1,1.94-.56,3.47,3.47,0,0,1,2.11.63,2.82,2.82,0,0,1,1.11,1.73h1.06Zm-9.76,0a.81.81,0,0,0,.83.52,1.08,1.08,0,0,0,1-.52Zm5.54-1.83a1,1,0,0,0-.52.13,1.13,1.13,0,0,0-.38.46h1.86A1,1,0,0,0,119.69,152.82Z" style="fill:#414042"/><path d="M129.19,147.66l3.72,22.59a2,2,0,0,1-2,2.34H104.25a2,2,0,0,1-2-2.34L106,147.66Z" style="fill:none;stroke:#414042;stroke-miterlimit:10;stroke-width:1.5px"/><path d="M314.91,145.66a4.78,4.78,0,0,0-6.75,0,4.79,4.79,0,0,0-6.75,6.79c1,1,2.94,1.5,5.78,1.5.53,0,.87,0,.87,0h.19s.34,0,.87,0h0c2.84,0,4.78-.5,5.78-1.5A4.79,4.79,0,0,0,314.91,145.66Zm-11.33,4.6a1.72,1.72,0,0,1,2.44-2.44,6.54,6.54,0,0,1,.49,3A5.72,5.72,0,0,1,303.58,150.26Zm9.16,0a5.72,5.72,0,0,1-2.93.59,6.48,6.48,0,0,1,.49-3,1.72,1.72,0,1,1,2.44,2.44Z" style="fill:#e78967"/><path d="M314.91,145.66a4.78,4.78,0,0,0-6.75,0,4.79,4.79,0,0,0-6.75,6.79c1,1,2.94,1.5,5.78,1.5.53,0,.87,0,.87,0h.19s.34,0,.87,0h0c2.84,0,4.78-.5,5.78-1.5A4.79,4.79,0,0,0,314.91,145.66Zm-11.33,4.6a1.72,1.72,0,0,1,2.44-2.44,6.54,6.54,0,0,1,.49,3A5.72,5.72,0,0,1,303.58,150.26Zm9.16,0a5.72,5.72,0,0,1-2.93.59,6.48,6.48,0,0,1,.49-3,1.72,1.72,0,1,1,2.44,2.44Z" style="fill:none;stroke:#414042;stroke-miterlimit:10;stroke-width:1.5px"/><rect x="293.14" y="156.29" width="28.39" height="24.34" style="fill:#aca39e"/><rect x="305.64" y="156.29" width="5.29" height="24.34" style="fill:#e78967"/><rect x="305.64" y="156.29" width="5.29" height="24.34" style="fill:none;stroke:#414042;stroke-miterlimit:10;stroke-width:1.5px"/><rect x="293.14" y="156.29" width="28.39" height="6.36" style="fill:#231f20;opacity:0.2"/><rect x="293.14" y="156.29" width="28.39" height="24.34" style="fill:none;stroke:#414042;stroke-miterlimit:10;stroke-width:1.5px"/><rect x="291" y="152.74" width="32.68" height="7.72" style="fill:#aca39e"/><rect x="305.64" y="152.74" width="5.29" height="7.72" style="fill:#e78967"/><rect x="305.64" y="152.74" width="5.29" height="7.72" style="fill:none;stroke:#414042;stroke-miterlimit:10;stroke-width:1.5px"/><rect x="291" y="152.74" width="32.68" height="7.72" style="fill:none;stroke:#414042;stroke-miterlimit:10;stroke-width:1.5px"/><rect x="251.1" y="140.11" width="34.79" height="35.04" style="fill:#fde99d"/><polyline points="251.1 175.15 251.1 140.11 285.89 140.11 285.89 175.15" style="fill:none;stroke:#414042;stroke-miterlimit:10;stroke-width:1.5px"/><circle cx="257.58" cy="146.31" r="1.92" style="fill:#beaf76"/><circle cx="279.4" cy="146.31" r="1.92" style="fill:#beaf76"/><path d="M257.58,147.16v-4.92a10.94,10.94,0,0,1,10.91-10.91h0a10.94,10.94,0,0,1,10.91,10.91v4.92" style="fill:none;stroke:#414042;stroke-miterlimit:10;stroke-width:1.5px"/><polygon points="285.89 175.15 251.1 175.15 250.25 180.81 286.74 180.81 285.89 175.15" style="fill:#fde99d"/><polyline points="260.86 175.15 251.1 175.15 250.25 180.81 286.74 180.81 285.89 175.15" style="fill:none;stroke:#414042;stroke-miterlimit:10;stroke-width:1.5px"/><rect x="262.22" y="155.68" width="36.14" height="25.62" style="fill:#e78967"/><rect x="295" y="155.68" width="3.36" height="25.62" style="fill:#ad674d"/><rect x="262.22" y="155.68" width="36.14" height="25.62" style="fill:none;stroke:#414042;stroke-miterlimit:10;stroke-width:1.5px"/><circle cx="269.65" cy="160.52" r="1.92" style="fill:#ad674d"/><circle cx="291.47" cy="160.52" r="1.92" style="fill:#ad674d"/><path d="M287.42,166.49a4.16,4.16,0,0,0-7.13-2.91,4.16,4.16,0,0,0-6,5.79l5.95,5.92,6.1-6,.24-.3A4.14,4.14,0,0,0,287.42,166.49Z" style="fill:#fff"/><path d="M269.65,160v4.92a10.94,10.94,0,0,0,10.91,10.91h0a10.94,10.94,0,0,0,10.91-10.91V160" style="fill:none;stroke:#414042;stroke-miterlimit:10;stroke-width:1.5px"/><rect x="143.44" y="99.53" width="108.65" height="81.77" style="fill:#fff"/><rect x="143.44" y="172.08" width="33.75" height="9.22" style="fill:#535151"/><rect x="217.45" y="172.08" width="34.38" height="9.22" transform="translate(469.27 353.38) rotate(180)" style="fill:#535151"/><rect x="143.44" y="99.53" width="108.65" height="81.77" style="fill:none;stroke:#414042;stroke-miterlimit:10;stroke-width:1.5px"/><rect x="181.82" y="112.32" width="31.17" height="65.22" style="fill:#fde99d"/><rect x="148.5" y="112.32" width="28.98" height="26.58" style="fill:#fde99d"/><polygon points="148.5 137.9 174.08 112.32 157.49 112.32 148.5 121.3 148.5 137.9" style="fill:#fef6d8"/><polygon points="159.21 138.9 177.48 120.63 177.48 112.72 151.3 138.9 159.21 138.9" style="fill:#fef6d8"/><rect x="148.5" y="142.85" width="28.98" height="26.58" style="fill:#fde99d"/><rect x="217.45" y="112.32" width="28.98" height="26.58" style="fill:#fde99d"/><rect x="217.45" y="142.85" width="28.98" height="26.58" style="fill:#fde99d"/><polygon points="148.5 168.16 173.81 142.85 157.22 142.85 148.5 151.56 148.5 168.16" style="fill:#fef6d8"/><polygon points="158.94 169.44 177.48 150.89 177.48 142.98 151.02 169.44 158.94 169.44" style="fill:#fef6d8"/><polygon points="217.45 137.78 242.91 112.32 226.32 112.32 217.45 121.19 217.45 137.78" style="fill:#fef6d8"/><polygon points="228.04 138.9 246.42 120.52 246.42 112.61 220.13 138.9 228.04 138.9" style="fill:#fef6d8"/><polygon points="217.45 167.47 242.06 142.85 225.47 142.85 217.45 150.88 217.45 167.47" style="fill:#fef6d8"/><polygon points="227.19 169.44 246.42 150.21 246.42 142.85 245.86 142.85 219.28 169.44 227.19 169.44" style="fill:#fef6d8"/><polygon points="181.82 148.12 212.99 116.95 212.99 112.32 201.03 112.32 181.82 131.53 181.82 148.12" style="fill:#fef6d8"/><polygon points="181.82 161.99 212.99 130.82 212.99 122.9 181.82 154.07 181.82 161.99" style="fill:#fef6d8"/><polygon points="140.23 110.13 143.46 100.38 252.22 99.89 255.87 110.11 140.23 110.13" style="fill:#fec1a0"/><path d="M145.73,118.13h0a5.26,5.26,0,0,1-5.24-5.24v-2.78H151v2.78A5.26,5.26,0,0,1,145.73,118.13Z" style="fill:#36d7b7"/><path d="M156.22,118.13h0a5.26,5.26,0,0,1-5.24-5.24v-2.78h10.49v2.78A5.26,5.26,0,0,1,156.22,118.13Z" style="fill:#36d7b7"/><path d="M166.71,118.13h0a5.26,5.26,0,0,1-5.24-5.24v-2.78H172v2.78A5.26,5.26,0,0,1,166.71,118.13Z" style="fill:#36d7b7"/><path d="M177.2,118.13h0a5.26,5.26,0,0,1-5.24-5.24v-2.78h10.49v2.78A5.26,5.26,0,0,1,177.2,118.13Z" style="fill:#36d7b7"/><path d="M187.69,118.13h0a5.26,5.26,0,0,1-5.24-5.24v-2.78h10.49v2.78A5.26,5.26,0,0,1,187.69,118.13Z" style="fill:#36d7b7"/><path d="M198.18,118.13h0a5.26,5.26,0,0,1-5.24-5.24v-2.78h10.49v2.78A5.26,5.26,0,0,1,198.18,118.13Z" style="fill:#36d7b7"/><path d="M208.67,118.13h0a5.26,5.26,0,0,1-5.24-5.24v-2.78h10.49v2.78A5.26,5.26,0,0,1,208.67,118.13Z" style="fill:#36d7b7"/><path d="M219.16,118.13h0a5.26,5.26,0,0,1-5.24-5.24v-2.78H224.4v2.78A5.26,5.26,0,0,1,219.16,118.13Z" style="fill:#36d7b7"/><path d="M229.64,118.13h0a5.26,5.26,0,0,1-5.24-5.24v-2.78h10.49v2.78A5.26,5.26,0,0,1,229.64,118.13Z" style="fill:#36d7b7"/><path d="M240.13,118.13h0a5.26,5.26,0,0,1-5.24-5.24v-2.78h10.49v2.78A5.26,5.26,0,0,1,240.13,118.13Z" style="fill:#36d7b7"/><path d="M250.05,118.13h0a5.26,5.26,0,0,1-5.24-5.24v-2.78H255.3v2.78A5.26,5.26,0,0,1,250.05,118.13Z" style="fill:#36d7b7"/><path d="M245.38,112.83H140.48v2.78a5.24,5.24,0,1,0,10.49,0,5.24,5.24,0,1,0,10.49,0,5.24,5.24,0,1,0,10.49,0,5.24,5.24,0,1,0,10.49,0,5.24,5.24,0,1,0,10.49,0,5.24,5.24,0,1,0,10.49,0,5.24,5.24,0,1,0,10.49,0,5.24,5.24,0,1,0,10.49,0,5.24,5.24,0,1,0,10.49,0,5.23,5.23,0,0,0,10.2,1.63,5.23,5.23,0,0,0,10.2-1.63v-2.78Z" style="fill:#414042;opacity:0.30000000000000004"/><path d="M145.73,118.13h0a5.26,5.26,0,0,1-5.24-5.24v-2.78H151v2.78A5.26,5.26,0,0,1,145.73,118.13Z" style="fill:#e78967"/><path d="M156.22,118.13h0a5.26,5.26,0,0,1-5.24-5.24v-2.78h10.49v2.78A5.26,5.26,0,0,1,156.22,118.13Z" style="fill:#fffffe"/><path d="M166.71,118.13h0a5.26,5.26,0,0,1-5.24-5.24v-2.78H172v2.78A5.26,5.26,0,0,1,166.71,118.13Z" style="fill:#e78967"/><path d="M177.2,118.13h0a5.26,5.26,0,0,1-5.24-5.24v-2.78h10.49v2.78A5.26,5.26,0,0,1,177.2,118.13Z" style="fill:#fffffe"/><path d="M187.69,118.13h0a5.26,5.26,0,0,1-5.24-5.24v-2.78h10.49v2.78A5.26,5.26,0,0,1,187.69,118.13Z" style="fill:#e78967"/><path d="M198.18,118.13h0a5.26,5.26,0,0,1-5.24-5.24v-2.78h10.49v2.78A5.26,5.26,0,0,1,198.18,118.13Z" style="fill:#fffffe"/><path d="M208.67,118.13h0a5.26,5.26,0,0,1-5.24-5.24v-2.78h10.49v2.78A5.26,5.26,0,0,1,208.67,118.13Z" style="fill:#e78967"/><path d="M219.16,118.13h0a5.26,5.26,0,0,1-5.24-5.24v-2.78H224.4v2.78A5.26,5.26,0,0,1,219.16,118.13Z" style="fill:#fffffe"/><path d="M229.64,118.13h0a5.26,5.26,0,0,1-5.24-5.24v-2.78h10.49v2.78A5.26,5.26,0,0,1,229.64,118.13Z" style="fill:#e78967"/><path d="M240.13,118.13h0a5.26,5.26,0,0,1-5.24-5.24v-2.78h10.49v2.78A5.26,5.26,0,0,1,240.13,118.13Z" style="fill:#fffffe"/><path d="M250.34,118.13h0a5.26,5.26,0,0,1-5.24-5.24v-2.78h10.49v2.78A5.26,5.26,0,0,1,250.34,118.13Z" style="fill:#e78967"/><path d="M145.73,118.13h0a5.26,5.26,0,0,1-5.24-5.24v-2.78H151v2.78A5.26,5.26,0,0,1,145.73,118.13Z" style="fill:none;stroke:#414042;stroke-miterlimit:10;stroke-width:1.5px"/><path d="M156.22,118.13h0a5.26,5.26,0,0,1-5.24-5.24v-2.78h10.49v2.78A5.26,5.26,0,0,1,156.22,118.13Z" style="fill:none;stroke:#414042;stroke-miterlimit:10;stroke-width:1.5px"/><path d="M166.71,118.13h0a5.26,5.26,0,0,1-5.24-5.24v-2.78H172v2.78A5.26,5.26,0,0,1,166.71,118.13Z" style="fill:none;stroke:#414042;stroke-miterlimit:10;stroke-width:1.5px"/><path d="M177.2,118.13h0a5.26,5.26,0,0,1-5.24-5.24v-2.78h10.49v2.78A5.26,5.26,0,0,1,177.2,118.13Z" style="fill:none;stroke:#414042;stroke-miterlimit:10;stroke-width:1.5px"/><path d="M187.69,118.13h0a5.26,5.26,0,0,1-5.24-5.24v-2.78h10.49v2.78A5.26,5.26,0,0,1,187.69,118.13Z" style="fill:none;stroke:#414042;stroke-miterlimit:10;stroke-width:1.5px"/><path d="M198.18,118.13h0a5.26,5.26,0,0,1-5.24-5.24v-2.78h10.49v2.78A5.26,5.26,0,0,1,198.18,118.13Z" style="fill:none;stroke:#414042;stroke-miterlimit:10;stroke-width:1.5px"/><path d="M208.67,118.13h0a5.26,5.26,0,0,1-5.24-5.24v-2.78h10.49v2.78A5.26,5.26,0,0,1,208.67,118.13Z" style="fill:none;stroke:#414042;stroke-miterlimit:10;stroke-width:1.5px"/><path d="M219.16,118.13h0a5.26,5.26,0,0,1-5.24-5.24v-2.78H224.4v2.78A5.26,5.26,0,0,1,219.16,118.13Z" style="fill:none;stroke:#414042;stroke-miterlimit:10;stroke-width:1.5px"/><path d="M229.64,118.13h0a5.26,5.26,0,0,1-5.24-5.24v-2.78h10.49v2.78A5.26,5.26,0,0,1,229.64,118.13Z" style="fill:none;stroke:#414042;stroke-miterlimit:10;stroke-width:1.5px"/><path d="M240.13,118.13h0a5.26,5.26,0,0,1-5.24-5.24v-2.78h10.49v2.78A5.26,5.26,0,0,1,240.13,118.13Z" style="fill:none;stroke:#414042;stroke-miterlimit:10;stroke-width:1.5px"/><path d="M250.62,118.13h0a5.26,5.26,0,0,1-5.24-5.24v-2.78h10.49v2.78A5.26,5.26,0,0,1,250.62,118.13Z" style="fill:none;stroke:#414042;stroke-miterlimit:10;stroke-width:1.5px"/><line x1="143.62" y1="99.89" x2="140.48" y2="109.71" style="fill:none;stroke:#414042;stroke-miterlimit:10;stroke-width:1.5px"/><line x1="255.87" y1="109.71" x2="251.82" y2="99.53" style="fill:none;stroke:#414042;stroke-miterlimit:10;stroke-width:1.5px"/><circle cx="186.94" cy="142.86" r="2.08" style="fill:#535151"/><circle cx="186.32" cy="142.24" r="0.72" style="fill:#fffffe"/><rect x="143.4" y="92.76" width="108.85" height="8.58" style="fill:#fffffe"/><rect x="143.4" y="92.76" width="108.85" height="5.15" style="fill:#bcbec0"/><rect x="143.4" y="92.76" width="108.85" height="8.58" style="fill:none;stroke:#414042;stroke-miterlimit:10;stroke-width:1.5px"/><rect x="141.97" y="91.17" width="111.72" height="4.29" style="fill:#fffffe"/><rect x="141.97" y="91.17" width="111.72" height="2.15" style="fill:#bcbec0"/><rect x="141.97" y="91.17" width="111.72" height="4.29" style="fill:none;stroke:#414042;stroke-miterlimit:10;stroke-width:1.5px"/><rect x="138.44" y="85.04" width="118.78" height="6.22" style="fill:#fffffe"/><rect x="138.44" y="85.04" width="118.78" height="6.22" style="fill:none;stroke:#414042;stroke-miterlimit:10;stroke-width:1.5px"/><path d="M268.27,21.38A5.34,5.34,0,0,0,258.13,19a.22.22,0,0,1-.42-.05,6.78,6.78,0,0,0-13.49,1l-8,0" style="fill:none;stroke:#414042;stroke-miterlimit:10;stroke-width:1.5px"/><path d="M31.27,29A4.59,4.59,0,0,1,40,27a.19.19,0,0,0,.36,0,5.83,5.83,0,0,1,11.59.87l6.85,0" style="fill:none;stroke:#414042;stroke-miterlimit:10;stroke-width:1.5px"/><path d="M25.14,95.39a4.19,4.19,0,0,0-8-1.87.18.18,0,0,1-.33,0,5.32,5.32,0,0,0-10.59.79L0,94.23" style="fill:none;stroke:#414042;stroke-miterlimit:10;stroke-width:1.5px"/><path d="M345.28,74.73a3.9,3.9,0,0,0-7.4-1.74.16.16,0,0,1-.31,0,5,5,0,0,0-9.85.74H321.9" style="fill:none;stroke:#414042;stroke-miterlimit:10;stroke-width:1.5px"/><path d="M172.29,67.24a7.1,7.1,0,0,0-.93.07,4.43,4.43,0,0,0-7.33-3,6.64,6.64,0,0,0-11.89,5.8,4.54,4.54,0,0,0-2.9,4.23h30.12A7.06,7.06,0,0,0,172.29,67.24Z" style="fill:#fff"/><path d="M172.29,67.24a7.1,7.1,0,0,0-.93.07,4.43,4.43,0,0,0-7.33-3,6.64,6.64,0,0,0-11.89,5.8,4.54,4.54,0,0,0-2.9,4.23h30.12A7.06,7.06,0,0,0,172.29,67.24Z" style="fill:none;stroke:#414042;stroke-miterlimit:10;stroke-width:1.5px"/><path d="M163.59,69a4.07,4.07,0,0,1,1.14-5.26" style="fill:none;stroke:#414042;stroke-miterlimit:10;stroke-width:1.5px"/><path d="M55.2,62.57a9.53,9.53,0,0,0-1.25.09,5.95,5.95,0,0,0-9.84-4.07,8.91,8.91,0,0,0-16,7.78A6.09,6.09,0,0,0,24.25,72H64.68A9.48,9.48,0,0,0,55.2,62.57Z" style="fill:#fff"/><path d="M55.2,62.57a9.53,9.53,0,0,0-1.25.09,5.95,5.95,0,0,0-9.84-4.07,8.91,8.91,0,0,0-16,7.78A6.09,6.09,0,0,0,24.25,72H64.68A9.48,9.48,0,0,0,55.2,62.57Z" style="fill:none;stroke:#414042;stroke-miterlimit:10;stroke-width:1.5px"/><path d="M43.51,65A5.47,5.47,0,0,1,45,57.91" style="fill:none;stroke:#414042;stroke-miterlimit:10;stroke-width:1.5px"/><path d="M292.7,96.7a6,6,0,0,0-.79.06,3.77,3.77,0,0,0-6.24-2.58,5.65,5.65,0,0,0-10.13,4.93,3.86,3.86,0,0,0-2.47,3.6h25.65A6,6,0,0,0,292.7,96.7Z" style="fill:#fff"/><path d="M292.7,96.7a6,6,0,0,0-.79.06,3.77,3.77,0,0,0-6.24-2.58,5.65,5.65,0,0,0-10.13,4.93,3.86,3.86,0,0,0-2.47,3.6h25.65A6,6,0,0,0,292.7,96.7Z" style="fill:none;stroke:#414042;stroke-miterlimit:10;stroke-width:1.5px"/><path d="M285.28,98.22a3.47,3.47,0,0,1,1-4.48" style="fill:none;stroke:#414042;stroke-miterlimit:10;stroke-width:1.5px"/><path d="M154.41,6.05a6,6,0,0,0-.79.06,3.77,3.77,0,0,0-6.24-2.58,5.65,5.65,0,0,0-10.13,4.93,3.86,3.86,0,0,0-2.47,3.6h25.65A6,6,0,0,0,154.41,6.05Z" style="fill:#fff"/><path d="M154.41,6.05a6,6,0,0,0-.79.06,3.77,3.77,0,0,0-6.24-2.58,5.65,5.65,0,0,0-10.13,4.93,3.86,3.86,0,0,0-2.47,3.6h25.65A6,6,0,0,0,154.41,6.05Z" style="fill:none;stroke:#414042;stroke-miterlimit:10;stroke-width:1.5px"/><path d="M147,7.57a3.47,3.47,0,0,1,1-4.48" style="fill:none;stroke:#414042;stroke-miterlimit:10;stroke-width:1.5px"/><path d="M300.53,51a6,6,0,0,1,.79.06,3.77,3.77,0,0,1,6.24-2.58,5.65,5.65,0,0,1,10.13,4.93,3.86,3.86,0,0,1,2.47,3.6H294.52A6,6,0,0,1,300.53,51Z" style="fill:#fff"/><path d="M300.53,51a6,6,0,0,1,.79.06,3.77,3.77,0,0,1,6.24-2.58,5.65,5.65,0,0,1,10.13,4.93,3.86,3.86,0,0,1,2.47,3.6H294.52A6,6,0,0,1,300.53,51Z" style="fill:none;stroke:#414042;stroke-miterlimit:10;stroke-width:1.5px"/><path d="M307.94,52.54a3.47,3.47,0,0,0-1-4.48" style="fill:none;stroke:#414042;stroke-miterlimit:10;stroke-width:1.5px"/><line x1="282.8" y1="74.3" x2="277.67" y2="74.3" style="fill:none;stroke:#414042;stroke-miterlimit:10;stroke-width:1.5px"/><line x1="280.23" y1="76.87" x2="280.23" y2="71.73" style="fill:none;stroke:#414042;stroke-miterlimit:10;stroke-width:1.5px"/><line x1="149.8" y1="30.54" x2="144.67" y2="30.54" style="fill:none;stroke:#414042;stroke-miterlimit:10;stroke-width:1.5px"/><line x1="147.24" y1="33.11" x2="147.24" y2="27.98" style="fill:none;stroke:#414042;stroke-miterlimit:10;stroke-width:1.5px"/><line x1="253.63" y1="34.54" x2="250.02" y2="34.54" style="fill:none;stroke:#414042;stroke-miterlimit:10;stroke-width:1.5px"/><line x1="251.82" y1="36.35" x2="251.82" y2="32.73" style="fill:none;stroke:#414042;stroke-miterlimit:10;stroke-width:1.5px"/><line x1="23.6" y1="41.32" x2="19.11" y2="41.32" style="fill:none;stroke:#414042;stroke-miterlimit:10;stroke-width:1.5px"/><line x1="21.35" y1="43.56" x2="21.35" y2="39.08" style="fill:none;stroke:#414042;stroke-miterlimit:10;stroke-width:1.5px"/><line x1="298.92" y1="130.22" x2="294.43" y2="130.22" style="fill:none;stroke:#414042;stroke-miterlimit:10;stroke-width:1.5px"/><line x1="296.68" y1="132.47" x2="296.68" y2="127.98" style="fill:none;stroke:#414042;stroke-miterlimit:10;stroke-width:1.5px"/><line x1="201.35" y1="3.1" x2="196.87" y2="3.1" style="fill:none;stroke:#414042;stroke-miterlimit:10;stroke-width:1.5px"/><line x1="199.11" y1="5.34" x2="199.11" y2="0.85" style="fill:none;stroke:#414042;stroke-miterlimit:10;stroke-width:1.5px"/><line x1="290.94" y1="74.01" x2="288.54" y2="74.01" style="fill:none;stroke:#414042;stroke-miterlimit:10;stroke-width:1.5px"/><line x1="318.69" y1="74.01" x2="292.54" y2="74.01" style="fill:none;stroke:#414042;stroke-miterlimit:10;stroke-width:1.5px"/><line x1="311" y1="117.21" x2="308.61" y2="117.21" style="fill:none;stroke:#414042;stroke-miterlimit:10;stroke-width:1.5px"/><line x1="338.75" y1="117.21" x2="312.61" y2="117.21" style="fill:none;stroke:#414042;stroke-miterlimit:10;stroke-width:1.5px"/><line x1="284.42" y1="74.01" x2="286.66" y2="74.01" style="fill:none;stroke:#414042;stroke-miterlimit:10;stroke-width:1.5px"/><line x1="10.65" y1="109.71" x2="5.51" y2="109.71" style="fill:none;stroke:#414042;stroke-miterlimit:10;stroke-width:1.5px"/><line x1="8.08" y1="112.28" x2="8.08" y2="107.14" style="fill:none;stroke:#414042;stroke-miterlimit:10;stroke-width:1.5px"/><line x1="18.79" y1="109.42" x2="16.39" y2="109.42" style="fill:none;stroke:#414042;stroke-miterlimit:10;stroke-width:1.5px"/><line x1="46.53" y1="109.42" x2="20.39" y2="109.42" style="fill:none;stroke:#414042;stroke-miterlimit:10;stroke-width:1.5px"/><line x1="108.99" y1="22.13" x2="72.49" y2="22.13" style="fill:none;stroke:#414042;stroke-miterlimit:10;stroke-width:1.5px"/><line x1="305.67" y1="34.54" x2="269.17" y2="34.54" style="fill:none;stroke:#414042;stroke-miterlimit:10;stroke-width:1.5px"/><line x1="12.26" y1="109.42" x2="14.5" y2="109.42" style="fill:none;stroke:#414042;stroke-miterlimit:10;stroke-width:1.5px"/><line x1="241.64" y1="59.32" x2="239.25" y2="59.32" style="fill:none;stroke:#414042;stroke-miterlimit:10;stroke-width:1.5px"/><line x1="269.39" y1="59.32" x2="243.25" y2="59.32" style="fill:none;stroke:#414042;stroke-miterlimit:10;stroke-width:1.5px"/><line x1="317.19" y1="110.11" x2="291.04" y2="110.11" style="fill:none;stroke:#414042;stroke-miterlimit:10;stroke-width:1.5px"/><line x1="235.12" y1="59.32" x2="237.36" y2="59.32" style="fill:none;stroke:#414042;stroke-miterlimit:10;stroke-width:1.5px"/><line x1="214.33" y1="74.73" x2="211.94" y2="74.73" style="fill:none;stroke:#414042;stroke-miterlimit:10;stroke-width:1.5px"/><line x1="242.08" y1="74.73" x2="215.94" y2="74.73" style="fill:none;stroke:#414042;stroke-miterlimit:10;stroke-width:1.5px"/><line x1="207.81" y1="74.73" x2="210.05" y2="74.73" style="fill:none;stroke:#414042;stroke-miterlimit:10;stroke-width:1.5px"/><line x1="134.52" y1="30.54" x2="136.92" y2="30.54" style="fill:none;stroke:#414042;stroke-miterlimit:10;stroke-width:1.5px"/><line x1="106.77" y1="30.54" x2="132.92" y2="30.54" style="fill:none;stroke:#414042;stroke-miterlimit:10;stroke-width:1.5px"/><line x1="141.04" y1="30.54" x2="138.8" y2="30.54" style="fill:none;stroke:#414042;stroke-miterlimit:10;stroke-width:1.5px"/><circle cx="115.32" cy="22.2" r="1.81" style="fill:none;stroke:#414042;stroke-miterlimit:10;stroke-width:1.5px"/><circle cx="274.97" cy="59.32" r="1.81" style="fill:none;stroke:#414042;stroke-miterlimit:10;stroke-width:1.5px"/><circle cx="12.26" cy="72.05" r="1.81" style="fill:none;stroke:#414042;stroke-miterlimit:10;stroke-width:1.5px"/><circle cx="284.42" cy="110.13" r="1.81" style="fill:none;stroke:#414042;stroke-miterlimit:10;stroke-width:1.5px"/></svg>