<svg xmlns="http://www.w3.org/2000/svg" viewBox="0 0 363 247.26"><title>our-team</title><path d="M318.76,240l3.37-28.14-3.23-.33-3.37,28.14,1.08,3.88a.1.1,0,0,0,.17,0Z" style="fill:#fff"/><polygon points="318.76 240.04 322.13 211.91 318.89 211.57 315.52 239.71 318.76 240.04" style="fill:#f1b8a4"/><polygon points="317.14 239.88 320.51 211.74 318.89 211.57 315.52 239.71 317.14 239.88" style="fill:#e78967"/><polygon points="321.8 215.4 322.22 211.91 318.81 211.56 318.39 215.05 321.8 215.4" style="fill:#fff"/><path d="M318.76,240l3.37-28.14-3.23-.33-3.37,28.14,1.08,3.88a.1.1,0,0,0,.17,0Z" style="fill:none;stroke:#414042;stroke-miterlimit:10;stroke-width:1.5px"/><line x1="318.48" y1="215.06" x2="321.3" y2="215.35" style="fill:none;stroke:#414042;stroke-miterlimit:10;stroke-width:1.5px"/><line x1="315.73" y1="239.73" x2="318.55" y2="240.02" style="fill:none;stroke:#414042;stroke-miterlimit:10;stroke-width:1.5px"/><path d="M312.39,240.51l3.72-33.6-3.57-.4-3.72,33.6,1.2,4.63a.1.1,0,0,0,.19,0Z" style="fill:#fff"/><rect x="295.57" y="221.72" width="33.81" height="3.59" transform="translate(569.04 -62.44) rotate(96.32)" style="fill:#f1b8a4"/><rect x="294.68" y="222.52" width="33.81" height="1.8" transform="translate(567.95 -61.66) rotate(96.32)" style="fill:#e78967"/><rect x="312.01" y="206.9" width="4.19" height="3.79" transform="translate(556.22 -80.4) rotate(96.32)" style="fill:#fff"/><path d="M312.39,240.51l3.72-33.6-3.57-.4-3.72,33.6,1.2,4.63a.1.1,0,0,0,.19,0Z" style="fill:none;stroke:#414042;stroke-miterlimit:10;stroke-width:1.5px"/><line x1="312.09" y1="210.68" x2="315.21" y2="211.03" style="fill:none;stroke:#414042;stroke-miterlimit:10;stroke-width:1.5px"/><line x1="309.05" y1="240.14" x2="312.17" y2="240.49" style="fill:none;stroke:#414042;stroke-miterlimit:10;stroke-width:1.5px"/><path d="M318.26,239.65l-10.37-31.06-3.42,1.06,10.37,31.07,3,3.6a.1.1,0,0,0,.18-.06Z" style="fill:#fff"/><polygon points="318.26 239.65 307.89 208.59 304.47 209.65 314.84 240.72 318.26 239.65" style="fill:#f1b8a4"/><polygon points="316.55 240.19 306.18 209.12 304.47 209.65 314.84 240.72 316.55 240.19" style="fill:#e78967"/><polygon points="309.27 212.41 307.98 208.55 304.37 209.68 305.66 213.53 309.27 212.41" style="fill:#fff"/><path d="M318.26,239.65l-10.37-31.06-3.42,1.06,10.37,31.07,3,3.6a.1.1,0,0,0,.18-.06Z" style="fill:none;stroke:#414042;stroke-miterlimit:10;stroke-width:1.5px"/><line x1="305.75" y1="213.5" x2="308.74" y2="212.57" style="fill:none;stroke:#414042;stroke-miterlimit:10;stroke-width:1.5px"/><line x1="315.05" y1="240.65" x2="318.04" y2="239.72" style="fill:none;stroke:#414042;stroke-miterlimit:10;stroke-width:1.5px"/><polygon points="320.45 246.51 304.7 246.51 302.48 218.41 322.68 218.41 320.45 246.51" style="fill:#535151"/><polygon points="322.26 223.61 322.56 219.88 302.6 219.88 302.89 223.61 322.26 223.61" style="fill:#231f20;opacity:0.30000000000000004"/><polygon points="320.45 246.51 304.7 246.51 302.48 218.41 322.68 218.41 320.45 246.51" style="fill:none;stroke:#414042;stroke-miterlimit:10;stroke-width:1.5px"/><rect x="300.58" y="217.66" width="24" height="3.74" rx="0.43" ry="0.43" style="fill:#535151"/><rect x="300.58" y="217.66" width="24" height="1.74" rx="0.43" ry="0.43" style="fill:#757474"/><rect x="300.58" y="217.66" width="24" height="3.74" rx="0.43" ry="0.43" style="fill:none;stroke:#414042;stroke-miterlimit:10;stroke-width:1.5px"/><path d="M29.92,213.41v-8a3.62,3.62,0,0,0-3.62-3.62H24.54a3.62,3.62,0,0,0-3.62,3.62v8h0a5.38,5.38,0,0,0-5.38,5.38v27.72H35.29V218.79a5.38,5.38,0,0,0-5.38-5.38Z" style="fill:#e6e7e8"/><path d="M27.92,213.41v-8a3.44,3.44,0,0,0-5.5-2.92,3.59,3.59,0,0,1,1.5,2.92v8a5.38,5.38,0,0,1,5.38,5.38v27.72h4V218.79A5.38,5.38,0,0,0,27.92,213.41Z" style="fill:#fff"/><rect x="20.92" y="211.07" width="9" height="2.34" style="fill:#e78967"/><path d="M29.92,213.41v-8a3.62,3.62,0,0,0-3.62-3.62H24.54a3.62,3.62,0,0,0-3.62,3.62v8h0a5.38,5.38,0,0,0-5.38,5.38v27.72H35.29V218.79a5.38,5.38,0,0,0-5.38-5.38Z" style="fill:none;stroke:#414042;stroke-miterlimit:10;stroke-width:1.5px"/><rect x="20.25" y="204.79" width="10.3" height="5.16" style="fill:#e78967"/><rect x="20.25" y="204.79" width="10.3" height="5.16" rx="0.84" ry="0.84" style="fill:none;stroke:#414042;stroke-miterlimit:10;stroke-width:1.5px"/><path d="M69.33,223.81H47.49v6.64a18.82,18.82,0,0,0,5,12.75h0v3.31h11.9v-3.31h0a18.82,18.82,0,0,0,5-12.75Z" style="fill:#aca39e"/><path d="M64.84,223.81v6.64a18.82,18.82,0,0,1-5,12.74h0v3.31h2.57v-3.31h0a18.82,18.82,0,0,0,5-12.74v-6.64Z" style="fill:#dedad8"/><path d="M69.33,223.81H47.49v6.64a18.82,18.82,0,0,0,5,12.75h0v3.31h11.9v-3.31h0a18.82,18.82,0,0,0,5-12.75Z" style="fill:none;stroke:#414042;stroke-miterlimit:10;stroke-width:1.5px"/><path d="M48.6,236.37H45a4.68,4.68,0,0,1-4.67-4.67h0A4.68,4.68,0,0,1,45,227h2.31" style="fill:none;stroke:#414042;stroke-miterlimit:10;stroke-width:1.5px"/><path d="M55.65,221.44v-1.3a3.5,3.5,0,0,1,3.5-3.5h3.23a1.26,1.26,0,0,0,1.26-1.26h0a1.26,1.26,0,0,0-1.26-1.26H52.23A1.15,1.15,0,0,1,51.08,213h0a1.15,1.15,0,0,1,1.15-1.15H56.5" style="fill:none;stroke:#414042;stroke-miterlimit:10;stroke-width:1.5px"/><path d="M58.25,212.06h3.67a1.29,1.29,0,0,0,1.29-1.29h0a1.29,1.29,0,0,0-1.29-1.29H52.48a1.4,1.4,0,0,1-1.4-1.4h0a1.4,1.4,0,0,1,1.4-1.4H66.2" style="fill:none;stroke:#414042;stroke-miterlimit:10;stroke-width:1.5px"/><path d="M194.92,89.12h-.81a2.93,2.93,0,0,1-2.93-2.93l-1-30.71a11,11,0,0,1,4.11-8.57L197.9,44A14.45,14.45,0,0,1,191,28.6c4.31,6.47,27.81,6.38,41.47,8.48a7.35,7.35,0,0,1,6.18,6.32L239,46h0a4.85,4.85,0,0,1,4.85,4.85l-1,35.38a2.93,2.93,0,0,1-2.93,2.93Z" style="fill:#e78967"/><path d="M191,31.6c4.31,6.47,27.81,6.38,41.47,8.48,3.24.5,4.84,2.13,5.26,5.38l.33,2.56c2.45,0,5.37,2.77,5.69,5.13l.07-2.34A4.85,4.85,0,0,0,239,46l-.33-2.56a7.35,7.35,0,0,0-6.18-6.32c-13.66-2.1-37.16-2-41.47-8.48a13.89,13.89,0,0,0-.22,4.39A10.52,10.52,0,0,1,191,31.6Z" style="fill:#ad674d"/><path d="M194.92,89.12H194a2.81,2.81,0,0,1-2.81-2.81l-1-30.83a11,11,0,0,1,4.11-8.57L197.9,44A14.45,14.45,0,0,1,191,28.67s0,0,.06,0c4.43,6.4,27.81,6.32,41.43,8.41a7.35,7.35,0,0,1,6.18,6.32L239,46h0a4.85,4.85,0,0,1,4.85,4.85l-1,35.5A2.81,2.81,0,0,1,240,89.12Z" style="fill:none;stroke:#414042;stroke-miterlimit:10;stroke-width:1.5px"/><path d="M243.76,79.22a3.1,3.1,0,0,1-3.1,3.09h0a3.1,3.1,0,0,1-3.1-3.09v-3a3.09,3.09,0,0,1,3.1-3.09h0a3.1,3.1,0,0,1,3.1,3.09Z" style="fill:#fedac6"/><path d="M243.76,79.22a3.1,3.1,0,0,1-3.1,3.09h0a3.1,3.1,0,0,1-3.1-3.09v-3a3.09,3.09,0,0,1,3.1-3.09h0a3.1,3.1,0,0,1,3.1,3.09Z" style="fill:none;stroke:#414042;stroke-miterlimit:10;stroke-width:1.5px"/><path d="M196.76,79.22a3.1,3.1,0,0,1-3.1,3.09h0a3.1,3.1,0,0,1-3.1-3.09v-3a3.09,3.09,0,0,1,3.1-3.09h0a3.1,3.1,0,0,1,3.1,3.09Z" style="fill:#fedac6"/><path d="M196.76,79.22a3.1,3.1,0,0,1-3.1,3.09h0a3.1,3.1,0,0,1-3.1-3.09v-3a3.09,3.09,0,0,1,3.1-3.09h0a3.1,3.1,0,0,1,3.1,3.09Z" style="fill:none;stroke:#414042;stroke-miterlimit:10;stroke-width:1.5px"/><path d="M245.25,246.51V136.1a28.45,28.45,0,0,0-28.37-28.37h0a28.45,28.45,0,0,0-28.37,28.37V246.51Z" style="fill:#d0ccce"/><path d="M216.89,107.73a28.45,28.45,0,0,0-28.37,28.37v6.2a28.37,28.37,0,1,1,56.74,0v-6.2A28.45,28.45,0,0,0,216.89,107.73Z" style="fill:#ecebeb"/><path d="M188.52,246.51V136.1a28.45,28.45,0,0,1,28.37-28.37h0a28.45,28.45,0,0,1,28.37,28.37V246.51" style="fill:none;stroke:#414042;stroke-miterlimit:10;stroke-width:1.5px"/><line x1="203.22" y1="134.13" x2="203.22" y2="246.51" style="fill:none;stroke:#414042;stroke-miterlimit:10;stroke-width:1.5px"/><line x1="232.17" y1="134.13" x2="232.17" y2="246.51" style="fill:none;stroke:#414042;stroke-miterlimit:10;stroke-width:1.5px"/><rect x="210.19" y="93.77" width="12.37" height="25.43" rx="4.46" ry="4.46" style="fill:#fedac6"/><rect x="210.19" y="93.77" width="12.37" height="25.43" rx="4.46" ry="4.46" style="fill:none;stroke:#414042;stroke-miterlimit:10;stroke-width:1.5px"/><path d="M216.89,107h0a23.59,23.59,0,0,1-23.52-23.52V67.54A23.59,23.59,0,0,1,216.89,44h0A23.59,23.59,0,0,1,240.4,67.54V83.48A23.59,23.59,0,0,1,216.89,107Z" style="fill:#fedac6"/><path d="M216.89,44h0c-.67,0-1.34,0-2,.09A23.59,23.59,0,0,1,236.4,67.54V83.48a23.59,23.59,0,0,1-21.52,23.43c.66.06,1.33.09,2,.09h0A23.59,23.59,0,0,0,240.4,83.48V67.54A23.59,23.59,0,0,0,216.89,44Z" style="fill:#ffe6d9"/><path d="M218.39,106.95a23.62,23.62,0,0,0,20.86-16.23c-5.17-.3-13.72,2.33-13.72,2.33V91.87a2.66,2.66,0,0,0-2.66-2.66H209.74a2.66,2.66,0,0,0-2.66,2.66v1.19s-7.68-2.4-12.52-2.25a23.62,23.62,0,0,0,20.83,16.14l.44,0,1.07,0h0l1.07,0Z" style="fill:#58595b;opacity:0.30000000000000004"/><path d="M216.89,107h0a23.59,23.59,0,0,1-23.52-23.52V67.54A23.59,23.59,0,0,1,216.89,44h0A23.59,23.59,0,0,1,240.4,67.54V83.48A23.59,23.59,0,0,1,216.89,107Z" style="fill:none;stroke:#414042;stroke-miterlimit:10;stroke-width:1.5px"/><path d="M226.37,41.23s-14.61-4.1-29.48,7.06l-5.84,12.06s27.5,8.55,43.57-14.16C239.25,39.63,226.37,41.23,226.37,41.23Z" style="fill:#e78967"/><path d="M230.15,46.9s-3.79,14.79,12.52,18.22V57.9l-.95-6.07Z" style="fill:#e78967"/><path d="M241.72,51.83,233,48.1c.56-.61,1.12-1.24,1.66-1.92,5.56-7-8.25-5-8.25-5s-14.61-4.1-29.48,7.06l-5.84,12.05s21.58,6.13,38.73-9.11c.18,4.65,2.29,11.66,12.88,13.89V57.9Z" style="fill:#e78967"/><path d="M231.55,50.25A1.66,1.66,0,0,0,229,49.11c-16,10-31.56,12.62-36.24,11.64h0a41.63,41.63,0,0,0,37-9.52c.18,4.65.58,11.24,11.18,13.47h0A21.1,21.1,0,0,1,231.55,50.25Z" style="fill:#eca185"/><path d="M192,60.56s20.16,5.61,37.47-9.18a.2.2,0,0,1,.34.14c.21,4.63,1.62,11.21,12,13.39" style="fill:none;stroke:#414042;stroke-miterlimit:10;stroke-width:1.5px"/><rect x="193.57" y="66.61" width="20.72" height="14.31" rx="2" ry="2" style="fill:none;stroke:#414042;stroke-miterlimit:10;stroke-width:1.5px"/><rect x="219.46" y="66.61" width="20.72" height="14.31" rx="2" ry="2" style="fill:none;stroke:#414042;stroke-miterlimit:10;stroke-width:1.5px"/><path d="M202.14,71.73a2.44,2.44,0,1,0,3.59,0Z" style="fill:#414042"/><path d="M228.61,71.73a2.44,2.44,0,1,0,3.59,0Z" style="fill:#414042"/><line x1="214.3" y1="73.77" x2="218.88" y2="73.77" style="fill:none;stroke:#414042;stroke-miterlimit:10;stroke-width:1.5px"/><path d="M216.77,78.76v5h1.42a1.73,1.73,0,0,1,1.73,1.73v.16a1.73,1.73,0,0,1-1.73,1.73h-2.81" style="fill:none;stroke:#414042;stroke-miterlimit:10;stroke-width:1.5px"/><path d="M223.19,93.29a6.18,6.18,0,0,1-12.37,0Z" style="fill:#fffffe"/><path d="M223.19,93.29a6.18,6.18,0,0,1-12.37,0Z" style="fill:none;stroke:#414042;stroke-miterlimit:10;stroke-width:1.5px"/><path d="M246,246.51V136.1a29.18,29.18,0,0,0-.37-4.59h-.95a24.64,24.64,0,0,0-24.61,24.61v13.2a3.82,3.82,0,0,0-1.24,2.81v3a3.84,3.84,0,0,0,3.42,3.8,24.65,24.65,0,0,0,17.63,22.14V203a29.17,29.17,0,0,0-21.67,28.15v15.41H246Z" style="fill:#231f20;opacity:0.30000000000000004"/><path d="M288.51,194.57h-30.4V136.42a12.2,12.2,0,0,1,12.2-12.2h0a12.2,12.2,0,0,1,12.2,12.2v52.27A5.72,5.72,0,0,0,288.51,194.57Z" style="fill:#535151"/><path d="M288.51,194.57h-30.4V136.42a12.2,12.2,0,0,1,12.2-12.2h0a12.2,12.2,0,0,1,12.2,12.2v52.27A5.72,5.72,0,0,0,288.51,194.57Z" style="fill:none;stroke:#414042;stroke-miterlimit:10;stroke-width:1.5px"/><path d="M275.82,171.47V156.12A23.93,23.93,0,0,0,252,132.27h-4.27a23.93,23.93,0,0,0-23.86,23.86v15.34Z" style="fill:#535151"/><path d="M275.82,171.47V156.12A23.93,23.93,0,0,0,252,132.27h-4.27a23.93,23.93,0,0,0-23.86,23.86v15.34Z" style="fill:none;stroke:#414042;stroke-miterlimit:10;stroke-width:1.5px"/><path d="M276.78,175.13a3.09,3.09,0,0,1-3.09,3.09h0a3.09,3.09,0,0,1-3.09-3.09v-3a3.09,3.09,0,0,1,3.09-3.09h0a3.09,3.09,0,0,1,3.09,3.09Z" style="fill:#fedac6"/><path d="M276.78,175.13a3.09,3.09,0,0,1-3.09,3.09h0a3.09,3.09,0,0,1-3.09-3.09v-3a3.09,3.09,0,0,1,3.09-3.09h0a3.09,3.09,0,0,1,3.09,3.09Z" style="fill:none;stroke:#414042;stroke-miterlimit:10;stroke-width:1.5px"/><path d="M228.78,175.13a3.09,3.09,0,0,1-3.09,3.09h0a3.09,3.09,0,0,1-3.09-3.09v-3a3.09,3.09,0,0,1,3.09-3.09h0a3.09,3.09,0,0,1,3.09,3.09Z" style="fill:#fedac6"/><path d="M228.78,175.13a3.09,3.09,0,0,1-3.09,3.09h0a3.09,3.09,0,0,1-3.09-3.09v-3a3.09,3.09,0,0,1,3.09-3.09h0a3.09,3.09,0,0,1,3.09,3.09Z" style="fill:none;stroke:#414042;stroke-miterlimit:10;stroke-width:1.5px"/><path d="M278.7,246.51V231.1a28.45,28.45,0,0,0-28.37-28.37h0A28.45,28.45,0,0,0,222,231.1v15.41Z" style="fill:#e78967"/><path d="M250.33,202.73A28.45,28.45,0,0,0,222,231.1v6.2a28.37,28.37,0,1,1,56.74,0v-6.2A28.45,28.45,0,0,0,250.33,202.73Z" style="fill:#eca185"/><path d="M222,246.51V231.1a28.45,28.45,0,0,1,28.37-28.37h0A28.45,28.45,0,0,1,278.7,231.1v15.41" style="fill:none;stroke:#414042;stroke-miterlimit:10;stroke-width:1.5px"/><line x1="236.67" y1="229.13" x2="236.67" y2="246.51" style="fill:none;stroke:#414042;stroke-miterlimit:10;stroke-width:1.5px"/><line x1="265.62" y1="229.13" x2="265.62" y2="246.51" style="fill:none;stroke:#414042;stroke-miterlimit:10;stroke-width:1.5px"/><rect x="243.64" y="188.77" width="12.37" height="25.43" rx="4.46" ry="4.46" style="fill:#fedac6"/><rect x="243.64" y="188.77" width="12.37" height="25.43" rx="4.46" ry="4.46" style="fill:none;stroke:#414042;stroke-miterlimit:10;stroke-width:1.5px"/><path d="M273.68,161.8v15.67a23.93,23.93,0,0,1-23.86,23.86h0A23.93,23.93,0,0,1,226,177.47V161.8c11.8,0,21.06-10,23.65-13.1a1,1,0,0,1,1.45,0C253.67,151.79,263,161.8,273.68,161.8Z" style="fill:#fedac6"/><path d="M251.06,148.7a1,1,0,0,0-1.45,0c-.42.5-1,1.19-1.77,2,3.89,4.1,11.85,11.12,20.84,11.12v15.67a23.94,23.94,0,0,1-21.36,23.73,23.85,23.85,0,0,0,26.36-23.73V161.8C263,161.8,253.67,151.79,251.06,148.7Z" style="fill:#ffe6d9"/><path d="M273.68,161.8v15.67a23.93,23.93,0,0,1-23.86,23.86h0A23.93,23.93,0,0,1,226,177.47V161.8c11.8,0,21.06-10,23.65-13.1a1,1,0,0,1,1.45,0C253.67,151.79,263,161.8,273.68,161.8Z" style="fill:none;stroke:#414042;stroke-miterlimit:10;stroke-width:1.5px"/><path d="M250.59,172.22v5H251a1.73,1.73,0,0,1,1.73,1.73v.16a1.73,1.73,0,0,1-1.73,1.73H249.2" style="fill:none;stroke:#414042;stroke-miterlimit:10;stroke-width:1.5px"/><path d="M256,186.74a6.18,6.18,0,0,1-12.37,0Z" style="fill:#fff"/><path d="M256,186.74a6.18,6.18,0,0,1-12.37,0Z" style="fill:none;stroke:#414042;stroke-miterlimit:10;stroke-width:1.5px"/><path d="M238,181.79h-2.75a2,2,0,0,1-2-2h0a2,2,0,0,1,2-2H238a2,2,0,0,1,2,2h0A2,2,0,0,1,238,181.79Z" style="fill:#f9bda9"/><path d="M262.86,182.86h-2.75a2,2,0,0,1-2-2h0a2,2,0,0,1,2-2h2.75a2,2,0,0,1,2,2h0A2,2,0,0,1,262.86,182.86Z" style="fill:#f9bda9"/><circle cx="239.1" cy="169.75" r="1.79" style="fill:#414042"/><circle cx="260.55" cy="169.75" r="1.79" style="fill:#414042"/><line x1="234.78" y1="166.29" x2="242.1" y2="164.29" style="fill:none;stroke:#414042;stroke-miterlimit:10;stroke-width:1.5px"/><line x1="265.1" y1="166.29" x2="257.78" y2="164.29" style="fill:none;stroke:#414042;stroke-miterlimit:10;stroke-width:1.5px"/><rect x="252.93" y="130.21" width="15.23" height="5.17" rx="2" ry="2" transform="translate(69.82 -88.89) rotate(22.29)" style="fill:#fde99d"/><rect x="252.93" y="130.21" width="15.23" height="5.17" rx="2" ry="2" transform="translate(69.82 -88.89) rotate(22.29)" style="fill:none;stroke:#414042;stroke-miterlimit:10;stroke-width:1.5px"/><rect x="256.45" y="233.93" width="60.61" height="12.58" style="fill:#fde99d"/><rect x="256.45" y="233.93" width="60.61" height="5.6" style="fill:#fef6d8"/><line x1="267.59" y1="233.93" x2="267.59" y2="237.79" style="fill:none;stroke:#414042;stroke-miterlimit:10;stroke-width:1.5px"/><line x1="259.86" y1="233.93" x2="259.86" y2="237.79" style="fill:none;stroke:#414042;stroke-miterlimit:10;stroke-width:1.5px"/><line x1="275.32" y1="233.93" x2="275.32" y2="237.79" style="fill:none;stroke:#414042;stroke-miterlimit:10;stroke-width:1.5px"/><line x1="283.05" y1="233.93" x2="283.05" y2="237.79" style="fill:none;stroke:#414042;stroke-miterlimit:10;stroke-width:1.5px"/><line x1="290.78" y1="233.93" x2="290.78" y2="237.79" style="fill:none;stroke:#414042;stroke-miterlimit:10;stroke-width:1.5px"/><line x1="306.24" y1="233.93" x2="306.24" y2="237.79" style="fill:none;stroke:#414042;stroke-miterlimit:10;stroke-width:1.5px"/><line x1="298.51" y1="233.93" x2="298.51" y2="237.79" style="fill:none;stroke:#414042;stroke-miterlimit:10;stroke-width:1.5px"/><line x1="313.97" y1="233.93" x2="313.97" y2="237.79" style="fill:none;stroke:#414042;stroke-miterlimit:10;stroke-width:1.5px"/><rect x="256.45" y="233.93" width="60.61" height="12.58" rx="0.89" ry="0.89" style="fill:none;stroke:#414042;stroke-miterlimit:10;stroke-width:1.5px"/><path d="M176.39,111c-4.89-11.2-1.64-31.75-1.64-31.75A29.34,29.34,0,0,0,145.4,49.86h0A29.34,29.34,0,0,0,116.06,79.2s3.9,20.28-1.41,31.68a4.72,4.72,0,0,0,3.07,6.64l28.43,7.08,27.14-7.06A4.76,4.76,0,0,0,176.39,111Z" style="fill:#fde99d"/><path d="M120.34,117.52a4.72,4.72,0,0,1-3.07-6.63c5.31-11.4,1.41-31.68,1.41-31.68a29.34,29.34,0,0,1,28-29.31c-.43,0-.87,0-1.31,0A29.34,29.34,0,0,0,116.06,79.2s3.9,20.28-1.41,31.68a4.72,4.72,0,0,0,3.07,6.63l28.43,7.08,1.28-.33Z" style="fill:#beaf76"/><path d="M176.37,110.92c-4.87-11.21-1.63-31.72-1.63-31.72A29.34,29.34,0,0,0,145.4,49.86h0A29.34,29.34,0,0,0,116.06,79.2s3.77,19.57-1.13,31.06a5.49,5.49,0,0,0,3.72,7.49l27.51,6.85,26.86-7A4.94,4.94,0,0,0,176.37,110.92Z" style="fill:none;stroke:#414042;stroke-miterlimit:10;stroke-width:1.5px"/><path d="M174.12,246.51V147.1a28.45,28.45,0,0,0-28.37-28.37h0a28.45,28.45,0,0,0-28.37,28.37v99.41Z" style="fill:#e78967"/><line x1="132.08" y1="145.13" x2="132.08" y2="246.51" style="fill:none;stroke:#414042;stroke-miterlimit:10;stroke-width:1.5px"/><line x1="161.03" y1="145.13" x2="161.03" y2="246.51" style="fill:none;stroke:#414042;stroke-miterlimit:10;stroke-width:1.5px"/><path d="M134.78,134.78l1.6,1a18.14,18.14,0,0,0,19.81-.38h0a12.9,12.9,0,0,0,5.65-10.67v-.94a28.18,28.18,0,0,0-32.21,0v1.71A10.94,10.94,0,0,0,134.78,134.78Z" style="fill:#fedac6"/><path d="M129.65,123.84v1.66h0a10.94,10.94,0,0,0,5.14,9.27l1.6,1a18.14,18.14,0,0,0,19.81-.38h0a12.9,12.9,0,0,0,5.65-10.67h0v-1" style="fill:none;stroke:#414042;stroke-miterlimit:10;stroke-width:1.5px"/><line x1="146.42" y1="134.37" x2="146.42" y2="139.3" style="fill:none;stroke:#414042;stroke-miterlimit:10;stroke-width:1.5px"/><path d="M117.38,246.51V147.1a28.45,28.45,0,0,1,28.37-28.37h0a28.45,28.45,0,0,1,28.37,28.37v99.41" style="fill:none;stroke:#414042;stroke-miterlimit:10;stroke-width:1.5px"/><rect x="139.56" y="100.71" width="12.37" height="25.43" rx="4.46" ry="4.46" style="fill:#fedac6"/><path d="M139.56,121.68V105.17a4.46,4.46,0,0,1,4.46-4.46h3.45a4.46,4.46,0,0,1,4.46,4.46v16.51" style="fill:none;stroke:#414042;stroke-miterlimit:10;stroke-width:1.5px"/><circle cx="123.44" cy="90.04" r="4.34" style="fill:#fedac6"/><circle cx="123.44" cy="89.31" r="4.34" style="fill:none;stroke:#414042;stroke-miterlimit:10;stroke-width:1.5px"/><circle cx="169.44" cy="90.04" r="4.34" style="fill:#fedac6"/><circle cx="169.44" cy="89.31" r="4.34" style="fill:none;stroke:#414042;stroke-miterlimit:10;stroke-width:1.5px"/><path d="M138.11,67.62a15.17,15.17,0,0,0-15.17,15.17v9.29a23.36,23.36,0,0,0,23.36,23.36h0a23.36,23.36,0,0,0,23.36-23.36V82.27c0-8.44-5.94-14.65-6.81-14.65Z" style="fill:#fedac6"/><path d="M162.85,67.62h-2.79a20.75,20.75,0,0,1,4.6,12.65v9.81a23.36,23.36,0,0,1-29.5,22.54,23.37,23.37,0,0,0,34.5-20.54V82.27C169.67,73.83,163.73,67.62,162.85,67.62Z" style="fill:#ffe6d9"/><path d="M137.07,67.62a14.13,14.13,0,0,0-14.13,14.13V92.08a23.36,23.36,0,0,0,23.36,23.36h0a23.36,23.36,0,0,0,23.36-23.36V84.42c.14-15.16-7.52-16.8-16.8-16.8H137.07Z" style="fill:none;stroke:#414042;stroke-miterlimit:10;stroke-width:1.5px"/><line x1="145.02" y1="109.78" x2="148.24" y2="109.78" style="fill:none;stroke:#414042;stroke-miterlimit:10;stroke-width:1.5px"/><path d="M125.87,64.72s23.54,18.85,44.79,11.1V67.64l-16-10.1L128.8,59.27Z" style="fill:#fde99d"/><path d="M126.18,63.27l-.31.58.07.06Z" style="fill:#fef6d8"/><path d="M128,65.4c5.65,3.93,21.78,13.81,37.74,10.89a7.44,7.44,0,0,0,5.89-5.77h0C155.27,78.37,134.46,68.72,128,65.4Z" style="fill:#fef6d8"/><path d="M134.37,70A13.14,13.14,0,0,1,121,80.36l-1.16-5,4.6-11.51Z" style="fill:#fde99d"/><path d="M134.37,70A13.14,13.14,0,0,1,121,80.36" style="fill:none;stroke:#414042;stroke-miterlimit:10;stroke-width:1.5px"/><path d="M126.74,65.37s23.62,17.84,44.87,10.09" style="fill:none;stroke:#414042;stroke-miterlimit:10;stroke-width:1.5px"/><circle cx="134.37" cy="97.98" r="3.15" style="fill:#f9bda9"/><circle cx="159.29" cy="97.98" r="3.15" style="fill:#f9bda9"/><path d="M151.1,87.35a2.77,2.77,0,1,1,5.53,0" style="fill:none;stroke:#414042;stroke-miterlimit:10;stroke-width:1.5px"/><path d="M135.8,87.35a2.77,2.77,0,1,1,5.53,0" style="fill:none;stroke:#414042;stroke-miterlimit:10;stroke-width:1.5px"/><path d="M152.91,101.07a6.28,6.28,0,1,1-12.56,0Z" style="fill:#fff"/><path d="M152.91,101.07a6.28,6.28,0,1,1-12.56,0Z" style="fill:none;stroke:#414042;stroke-miterlimit:10;stroke-width:1.5px"/><path d="M146.63,88.35v4.12h.18a1.59,1.59,0,0,1,1.59,1.59h0a1.59,1.59,0,0,1-1.59,1.59H145.5" style="fill:none;stroke:#414042;stroke-miterlimit:10;stroke-width:1.5px"/><path d="M136.2,246.51V228.1a29.14,29.14,0,0,0-15.32-25.63,23.26,23.26,0,0,0,8.8-18.22V172.57a3.67,3.67,0,0,0,3-3.59v-2.59a5.87,5.87,0,0,0,.74-.58,5.77,5.77,0,0,0,1.83-4.25V141.81a8.91,8.91,0,0,0-8.9-8.9h-6a28.89,28.89,0,0,0-3.72,14.19v99.41H136.2Z" style="fill:#231f20;opacity:0.30000000000000004"/><path d="M132.45,246.51V228.1a28.45,28.45,0,0,0-28.37-28.37h0A28.45,28.45,0,0,0,75.71,228.1v18.41Z" style="fill:#fde99d"/><path d="M75.71,246.51V228.1a28.45,28.45,0,0,1,28.37-28.37h0a28.45,28.45,0,0,1,28.37,28.37v18.41" style="fill:none;stroke:#414042;stroke-miterlimit:10;stroke-width:1.5px"/><line x1="90.41" y1="226.13" x2="90.41" y2="246.51" style="fill:none;stroke:#414042;stroke-miterlimit:10;stroke-width:1.5px"/><line x1="119.36" y1="226.13" x2="119.36" y2="246.51" style="fill:none;stroke:#414042;stroke-miterlimit:10;stroke-width:1.5px"/><rect x="97.39" y="185.77" width="12.37" height="25.43" rx="4.46" ry="4.46" style="fill:#ccb5aa"/><rect x="97.39" y="185.77" width="12.37" height="25.43" rx="4.46" ry="4.46" style="fill:none;stroke:#414042;stroke-miterlimit:10;stroke-width:1.5px"/><path d="M128.89,169a2.91,2.91,0,0,1-2.91,2.91h0a2.91,2.91,0,0,1-2.91-2.91v-2.82a2.91,2.91,0,0,1,2.91-2.91h0a2.91,2.91,0,0,1,2.91,2.91Z" style="fill:#ffe6d9"/><path d="M128.89,169a2.91,2.91,0,0,1-2.91,2.91h0a2.91,2.91,0,0,1-2.91-2.91v-2.82a2.91,2.91,0,0,1,2.91-2.91h0a2.91,2.91,0,0,1,2.91,2.91Z" style="fill:none;stroke:#414042;stroke-miterlimit:10;stroke-width:1.5px"/><path d="M83.71,169a2.91,2.91,0,0,1-2.91,2.91h0A2.91,2.91,0,0,1,77.89,169v-2.82a2.91,2.91,0,0,1,2.91-2.91h0a2.91,2.91,0,0,1,2.91,2.91Z" style="fill:#ffe6d9"/><path d="M83.71,169a2.91,2.91,0,0,1-2.91,2.91h0A2.91,2.91,0,0,1,77.89,169v-2.82a2.91,2.91,0,0,1,2.91-2.91h0a2.91,2.91,0,0,1,2.91,2.91Z" style="fill:none;stroke:#414042;stroke-miterlimit:10;stroke-width:1.5px"/><path d="M103.38,206.8h0a22.62,22.62,0,0,1-22.55-22.55v-25.9a22.62,22.62,0,0,1,22.55-22.55h0a22.62,22.62,0,0,1,22.55,22.55v25.9A22.62,22.62,0,0,1,103.38,206.8Z" style="fill:#535151"/><path d="M114.77,138.92a22.49,22.49,0,0,1,7.15,16.43v25.9A22.62,22.62,0,0,1,99.38,203.8h0A22.35,22.35,0,0,1,88,200.68a22.46,22.46,0,0,0,15.4,6.12h0a22.62,22.62,0,0,0,22.55-22.55v-25.9A22.59,22.59,0,0,0,114.77,138.92Z" style="fill:#414042;opacity:0.46"/><path d="M103.38,206.8h0a22.62,22.62,0,0,1-22.55-22.55v-25.9a22.62,22.62,0,0,1,22.55-22.55h0a22.62,22.62,0,0,1,22.55,22.55v25.9A22.62,22.62,0,0,1,103.38,206.8Z" style="fill:none;stroke:#414042;stroke-miterlimit:10;stroke-width:1.5px"/><path d="M103.38,177.55h0c-10.31,0-20.63,8.07-20.63-2.25V162.1c0-10.31-1-20.63,9.34-20.63h20.71c10.31,0,11.22,10.32,11.22,20.63v13.21C124,185.62,113.69,177.55,103.38,177.55Z" style="fill:#ccb5aa"/><path d="M110,184.25a6.6,6.6,0,0,1-13.2,0Z" style="fill:#fff"/><path d="M110,184.25a6.6,6.6,0,0,1-13.2,0Z" style="fill:none;stroke:#414042;stroke-miterlimit:10;stroke-width:1.5px"/><line x1="89.69" y1="164.1" x2="97.16" y2="163.1" style="fill:none;stroke:#414042;stroke-miterlimit:10;stroke-width:1.5px"/><line x1="109.69" y1="163.1" x2="117.16" y2="164.1" style="fill:none;stroke:#414042;stroke-miterlimit:10;stroke-width:1.5px"/><circle cx="94.43" cy="167.62" r="1.89" style="fill:#414042"/><path d="M103.25,165.86v6.66h1.34a1.63,1.63,0,0,1,1.63,1.63v1.78h-4.27" style="fill:none;stroke:#414042;stroke-miterlimit:10;stroke-width:1.5px"/><path d="M80.6,167.23h0a5.47,5.47,0,0,1-5.47-5.47V148.6a8.2,8.2,0,0,1,8.2-8.2h0a6.74,6.74,0,0,1,6.74-6.74h33.25a8.15,8.15,0,0,1,8.15,8.15v19.76a5.08,5.08,0,0,1-5.39,5.07h0v-13s-3.75,6.13-15.58,6.12a41.87,41.87,0,0,1-23.57-7.07,12.09,12.09,0,0,1-2.79,3.63,3.88,3.88,0,0,1-3.54,1Z" style="fill:#535151"/><path d="M80.6,167.23v-10a3.88,3.88,0,0,0,3.54-1,12.09,12.09,0,0,0,2.79-3.63s18.78,9.85,30,6.21c-12.15-5.23-27.89-8.4-30.51-24.08a6.73,6.73,0,0,0-3,5.63,8.2,8.2,0,0,0-8.2,8.2v13.16A5.47,5.47,0,0,0,80.6,167.23Z" style="fill:#414042;opacity:0.46"/><path d="M126.07,153.58v13h0a5.08,5.08,0,0,0,5.39-5.07V141.81a8.15,8.15,0,0,0-8.15-8.15H90.07a6.74,6.74,0,0,0-6.74,6.74h0a8.2,8.2,0,0,0-8.2,8.2v13.16a5.47,5.47,0,0,0,5.47,5.47h0v-10a3.88,3.88,0,0,0,3.54-1,12.09,12.09,0,0,0,2.79-3.63" style="fill:none;stroke:#414042;stroke-miterlimit:10;stroke-width:1.5px"/><path d="M83.72,150.45s12.49,9.24,26.78,9.26c11.82,0,17.19-8.12,17.19-8.12" style="fill:none;stroke:#414042;stroke-miterlimit:10;stroke-width:1.5px"/><path d="M109.59,169.51a2.74,2.74,0,1,1,5.49,0" style="fill:none;stroke:#414042;stroke-miterlimit:10;stroke-width:1.5px"/><path d="M168.5,122.54A10.51,10.51,0,0,0,158,132.08c-2.22-.4-5.59,0-6.8,3.57l0,18.75a1.72,1.72,0,0,0,.71,1.39,3.82,3.82,0,0,0-1.39,2.94v3a3.85,3.85,0,0,0,3.84,3.84,3.81,3.81,0,0,0,.6-.06,24.71,24.71,0,0,0,18,22.81v2.51A29.17,29.17,0,0,0,151.28,219v8.41h58.23V219a29.16,29.16,0,0,0-22.69-28.39v-2.42a24.71,24.71,0,0,0,17.44-22.78,3.79,3.79,0,0,0,1.13.19,3.85,3.85,0,0,0,3.85-3.84v-3a3.85,3.85,0,0,0-3.85-3.84,3.79,3.79,0,0,0-1.11.18V143.71a10.5,10.5,0,0,0,8.58-10.31V122.54Z" style="fill:#231f20;opacity:0.30000000000000004"/><path d="M210.77,227.39V219a28.45,28.45,0,0,0-28.37-28.37h0A28.45,28.45,0,0,0,154,219v8.41Z" style="fill:#e78967"/><path d="M182.4,190.61A28.45,28.45,0,0,0,154,219v6.2a28.37,28.37,0,1,1,56.74,0V219A28.45,28.45,0,0,0,182.4,190.61Z" style="fill:#eca185"/><path d="M154,227.39V219a28.45,28.45,0,0,1,28.37-28.37h0A28.45,28.45,0,0,1,210.77,219v8.41" style="fill:none;stroke:#414042;stroke-miterlimit:10;stroke-width:1.5px"/><line x1="168.74" y1="217.01" x2="168.74" y2="227.39" style="fill:none;stroke:#414042;stroke-miterlimit:10;stroke-width:1.5px"/><line x1="197.69" y1="217.01" x2="197.69" y2="227.39" style="fill:none;stroke:#414042;stroke-miterlimit:10;stroke-width:1.5px"/><rect x="175.71" y="176.65" width="12.37" height="25.43" rx="4.46" ry="4.46" style="fill:#fedac6"/><rect x="175.71" y="176.65" width="12.37" height="25.43" rx="4.46" ry="4.46" style="fill:none;stroke:#414042;stroke-miterlimit:10;stroke-width:1.5px"/><path d="M159.46,161.73a3.09,3.09,0,0,1-3.09,3.09h0a3.09,3.09,0,0,1-3.09-3.09v-3a3.09,3.09,0,0,1,3.09-3.09h0a3.09,3.09,0,0,1,3.09,3.09Z" style="fill:#ffe6d9"/><path d="M159.46,161.73a3.09,3.09,0,0,1-3.09,3.09h0a3.09,3.09,0,0,1-3.09-3.09v-3a3.09,3.09,0,0,1,3.09-3.09h0a3.09,3.09,0,0,1,3.09,3.09Z" style="fill:none;stroke:#414042;stroke-miterlimit:10;stroke-width:1.5px"/><path d="M210.49,161.73a3.1,3.1,0,0,1-3.1,3.09h0a3.1,3.1,0,0,1-3.1-3.09v-3a3.09,3.09,0,0,1,3.1-3.09h0a3.1,3.1,0,0,1,3.1,3.09Z" style="fill:#ffe6d9"/><path d="M210.49,161.73a3.1,3.1,0,0,1-3.1,3.09h0a3.1,3.1,0,0,1-3.1-3.09v-3a3.09,3.09,0,0,1,3.1-3.09h0a3.1,3.1,0,0,1,3.1,3.09Z" style="fill:none;stroke:#414042;stroke-miterlimit:10;stroke-width:1.5px"/><path d="M205.54,139.53v25a23.92,23.92,0,0,1-23.92,23.92h0a23.92,23.92,0,0,1-23.92-23.92v-25Z" style="fill:#fedac6"/><path d="M198.1,139.53v23.81a23.92,23.92,0,0,1-23.92,23.92H174a23.89,23.89,0,0,0,31.5-22.67v-25Z" style="fill:#ffe6d9"/><path d="M205.54,139.53v25a23.92,23.92,0,0,1-23.92,23.92h0a23.92,23.92,0,0,1-23.92-23.92v-25Z" style="fill:none;stroke:#414042;stroke-miterlimit:10;stroke-width:1.5px"/><path d="M214.12,123.29v10.12a9.74,9.74,0,0,1-9.74,9.74H165.62a4.87,4.87,0,0,0-4.87,4.87v6.38a1,1,0,0,1-1,1h-4.85a1,1,0,0,1-1-1V135.89c1.53-4.58,6.8-2.86,6.8-2.86a9.74,9.74,0,0,1,9.74-9.74Z" style="fill:#535151"/><path d="M203.35,139.15a10.55,10.55,0,0,0,10.55-10.54v-5.32H170.5a9.74,9.74,0,0,0-9.74,9.74s-5.27-1.72-6.8,2.86v19h2.13a1.06,1.06,0,0,0,1.06-1.06v-9.4a5.28,5.28,0,0,1,5.27-5.27Z" style="fill:#aca39e"/><path d="M214.12,123.29v10.12a9.74,9.74,0,0,1-9.74,9.74H165.62a4.87,4.87,0,0,0-4.87,4.87v6.38a1,1,0,0,1-1,1h-4.85a1,1,0,0,1-1-1V135.89c1.53-4.58,6.8-2.86,6.8-2.86a9.74,9.74,0,0,1,9.74-9.74Z" style="fill:none;stroke:#414042;stroke-miterlimit:10;stroke-width:1.5px"/><path d="M181.66,161.11v5h1.42a1.73,1.73,0,0,1,1.73,1.73V168a1.73,1.73,0,0,1-1.73,1.73h-2.81" style="fill:none;stroke:#414042;stroke-miterlimit:10;stroke-width:1.5px"/><line x1="168.7" y1="153.79" x2="176.64" y2="153.79" style="fill:none;stroke:#414042;stroke-miterlimit:10;stroke-width:1.5px"/><line x1="187.72" y1="153.79" x2="195.66" y2="153.79" style="fill:none;stroke:#414042;stroke-miterlimit:10;stroke-width:1.5px"/><circle cx="172.67" cy="157.53" r="2.01" style="fill:#414042"/><circle cx="191.69" cy="157.53" r="2.01" style="fill:#414042"/><path d="M188.08,175.63a6.18,6.18,0,0,1-12.37,0Z" style="fill:#fff"/><path d="M188.08,175.63a6.18,6.18,0,0,1-12.37,0Z" style="fill:none;stroke:#414042;stroke-miterlimit:10;stroke-width:1.5px"/><line x1="179.52" y1="184.57" x2="184.26" y2="184.57" style="fill:none;stroke:#414042;stroke-miterlimit:10;stroke-width:1.5px"/><rect x="109.67" y="236.56" width="34.82" height="9.94" style="fill:#fedac6"/><rect x="109.67" y="236.56" width="34.82" height="9.94" style="fill:none;stroke:#414042;stroke-miterlimit:10;stroke-width:1.5px"/><path d="M97.14,246.51h0A2.17,2.17,0,0,1,95,244.34v-3a2.17,2.17,0,0,1,2.16-2.16h0a2.17,2.17,0,0,1,2.16,2.16v3A2.17,2.17,0,0,1,97.14,246.51Z" style="fill:#fedac6"/><path d="M97.14,246.51h0A2.17,2.17,0,0,1,95,244.34v-3a2.17,2.17,0,0,1,2.16-2.16h0a2.17,2.17,0,0,1,2.16,2.16v3A2.17,2.17,0,0,1,97.14,246.51Z" style="fill:none;stroke:#414042;stroke-miterlimit:10;stroke-width:1.5px"/><path d="M115.14,246.51h0a2.17,2.17,0,0,1-2.16-2.16v-3a2.17,2.17,0,0,1,2.16-2.16h0a2.17,2.17,0,0,1,2.16,2.16v3A2.17,2.17,0,0,1,115.14,246.51Z" style="fill:#fedac6"/><path d="M115.14,246.51h0a2.17,2.17,0,0,1-2.16-2.16v-3a2.17,2.17,0,0,1,2.16-2.16h0a2.17,2.17,0,0,1,2.16,2.16v3A2.17,2.17,0,0,1,115.14,246.51Z" style="fill:none;stroke:#414042;stroke-miterlimit:10;stroke-width:1.5px"/><path d="M115.07,246.51v-3.34a8.65,8.65,0,0,0-8.62-8.62h0a8.65,8.65,0,0,0-8.62,8.62v3.34Z" style="fill:#fffffe"/><path d="M115.07,246.51v-3.34a8.65,8.65,0,0,0-8.62-8.62h0a8.65,8.65,0,0,0-8.62,8.62v3.34Z" style="fill:none;stroke:#414042;stroke-miterlimit:10;stroke-width:1.5px"/><path d="M111.27,241.74h0a2.39,2.39,0,0,1-2.38-2.38V236a2.39,2.39,0,0,1,2.38-2.38h0a2.39,2.39,0,0,1,2.38,2.38v3.34A2.39,2.39,0,0,1,111.27,241.74Z" style="fill:#fedac6"/><path d="M111.27,241.74h0a2.39,2.39,0,0,1-2.38-2.38V236a2.39,2.39,0,0,1,2.38-2.38h0a2.39,2.39,0,0,1,2.38,2.38v3.34A2.39,2.39,0,0,1,111.27,241.74Z" style="fill:none;stroke:#414042;stroke-miterlimit:10;stroke-width:1.5px"/><rect x="103.4" y="232.49" width="4.76" height="8.11" rx="2.38" ry="2.38" style="fill:#fedac6"/><rect x="103.4" y="232.49" width="4.76" height="8.11" rx="2.38" ry="2.38" style="fill:none;stroke:#414042;stroke-miterlimit:10;stroke-width:1.5px"/><path d="M100.3,242h0a2.39,2.39,0,0,1-2.38-2.38v-3.34a2.39,2.39,0,0,1,2.38-2.38h0a2.39,2.39,0,0,1,2.38,2.38v3.34A2.39,2.39,0,0,1,100.3,242Z" style="fill:#fedac6"/><path d="M100.3,242h0a2.39,2.39,0,0,1-2.38-2.38v-3.34a2.39,2.39,0,0,1,2.38-2.38h0a2.39,2.39,0,0,1,2.38,2.38v3.34A2.39,2.39,0,0,1,100.3,242Z" style="fill:none;stroke:#414042;stroke-miterlimit:10;stroke-width:1.5px"/><path d="M224.51,246.51h-86a6.93,6.93,0,0,1-6.27-4L130.1,238H232.91l-2.13,4.53A6.93,6.93,0,0,1,224.51,246.51Z" style="fill:#e6e7e8"/><path d="M224.51,246.51h-86a6.93,6.93,0,0,1-6.27-4L130.56,239a.69.69,0,0,1,.63-1H231.82a.69.69,0,0,1,.63,1l-1.66,3.55A6.93,6.93,0,0,1,224.51,246.51Z" style="fill:none;stroke:#414042;stroke-miterlimit:10;stroke-width:1.5px"/><rect x="137.21" y="184.47" width="88.59" height="57.07" rx="3.19" ry="3.19" style="fill:#fffffe"/><rect x="137.21" y="184.47" width="88.59" height="57.07" rx="3.19" ry="3.19" style="fill:none;stroke:#414042;stroke-miterlimit:10;stroke-width:1.5px"/><circle cx="181.5" cy="213.01" r="6.88" style="fill:#e6e7e8"/><line x1="266.16" y1="104.21" x2="263.77" y2="104.21" style="fill:none;stroke:#414042;stroke-miterlimit:10;stroke-width:1.5px"/><line x1="293.91" y1="104.21" x2="267.77" y2="104.21" style="fill:none;stroke:#414042;stroke-miterlimit:10;stroke-width:1.5px"/><line x1="303.91" y1="148.36" x2="301.51" y2="148.36" style="fill:none;stroke:#414042;stroke-miterlimit:10;stroke-width:1.5px"/><line x1="331.66" y1="148.36" x2="305.51" y2="148.36" style="fill:none;stroke:#414042;stroke-miterlimit:10;stroke-width:1.5px"/><line x1="134.37" y1="44.03" x2="103.8" y2="44.03" style="fill:none;stroke:#414042;stroke-miterlimit:10;stroke-width:1.5px"/><line x1="50.58" y1="156.53" x2="20.01" y2="156.53" style="fill:none;stroke:#414042;stroke-miterlimit:10;stroke-width:1.5px"/><line x1="72.08" y1="75.18" x2="41.51" y2="75.18" style="fill:none;stroke:#414042;stroke-miterlimit:10;stroke-width:1.5px"/><line x1="75.08" y1="75.18" x2="78.71" y2="75.18" style="fill:none;stroke:#414042;stroke-miterlimit:10;stroke-width:1.5px"/><line x1="313.47" y1="73.13" x2="282.9" y2="73.13" style="fill:none;stroke:#414042;stroke-miterlimit:10;stroke-width:1.5px"/><line x1="315.47" y1="73.13" x2="320.6" y2="73.13" style="fill:none;stroke:#414042;stroke-miterlimit:10;stroke-width:1.5px"/><line x1="259.64" y1="104.21" x2="261.88" y2="104.21" style="fill:none;stroke:#414042;stroke-miterlimit:10;stroke-width:1.5px"/><line x1="155.64" y1="35.27" x2="158.03" y2="35.27" style="fill:none;stroke:#414042;stroke-miterlimit:10;stroke-width:1.5px"/><line x1="127.89" y1="35.27" x2="154.03" y2="35.27" style="fill:none;stroke:#414042;stroke-miterlimit:10;stroke-width:1.5px"/><line x1="162.16" y1="35.27" x2="159.92" y2="35.27" style="fill:none;stroke:#414042;stroke-miterlimit:10;stroke-width:1.5px"/><line x1="67.27" y1="115.44" x2="64.88" y2="115.44" style="fill:none;stroke:#414042;stroke-miterlimit:10;stroke-width:1.5px"/><line x1="95.02" y1="115.44" x2="68.88" y2="115.44" style="fill:none;stroke:#414042;stroke-miterlimit:10;stroke-width:1.5px"/><line x1="254.77" y1="104.21" x2="249.63" y2="104.21" style="fill:none;stroke:#414042;stroke-miterlimit:10;stroke-width:1.5px"/><line x1="252.2" y1="106.77" x2="252.2" y2="101.64" style="fill:none;stroke:#414042;stroke-miterlimit:10;stroke-width:1.5px"/><line x1="61.93" y1="115.44" x2="56.79" y2="115.44" style="fill:none;stroke:#414042;stroke-miterlimit:10;stroke-width:1.5px"/><line x1="59.36" y1="118.01" x2="59.36" y2="112.88" style="fill:none;stroke:#414042;stroke-miterlimit:10;stroke-width:1.5px"/><line x1="173.23" y1="35.27" x2="168.09" y2="35.27" style="fill:none;stroke:#414042;stroke-miterlimit:10;stroke-width:1.5px"/><line x1="170.66" y1="37.84" x2="170.66" y2="32.7" style="fill:none;stroke:#414042;stroke-miterlimit:10;stroke-width:1.5px"/><line x1="86.29" y1="75.18" x2="81.16" y2="75.18" style="fill:none;stroke:#414042;stroke-miterlimit:10;stroke-width:1.5px"/><line x1="83.72" y1="77.75" x2="83.72" y2="72.61" style="fill:none;stroke:#414042;stroke-miterlimit:10;stroke-width:1.5px"/><rect x="275.15" y="72.37" width="2.8" height="2.8" transform="translate(28.84 217.16) rotate(-45)" style="fill:none;stroke:#414042;stroke-miterlimit:10;stroke-width:1.5px"/><rect x="293.57" y="146.96" width="2.8" height="2.8" transform="translate(-18.51 252.02) rotate(-45)" style="fill:none;stroke:#414042;stroke-miterlimit:10;stroke-width:1.5px"/><rect x="57.01" y="156.13" width="2.8" height="2.8" transform="translate(-94.28 87.44) rotate(-45)" style="fill:none;stroke:#414042;stroke-miterlimit:10;stroke-width:1.5px"/><path d="M350.92,225.81q-.48,1.67-1,3.32-.75,2.41-1.56,4.79" style="fill:none;stroke:#414042;stroke-miterlimit:10;stroke-width:1.5px"/><path d="M6.69,199.74q-.25-2-.46-3.91a178.27,178.27,0,0,1-1-18.81A176.26,176.26,0,1,1,355.9,202.73q-.3,2.08-.66,4.14" style="fill:none;stroke:#414042;stroke-miterlimit:10;stroke-width:1.5px"/><path d="M10.37,219.4Q10,218,9.71,216.63q-.42-1.84-.81-3.7" style="fill:none;stroke:#414042;stroke-miterlimit:10;stroke-width:1.5px"/><line x1="12.56" y1="246.51" x2="354.83" y2="246.51" style="fill:none;stroke:#414042;stroke-miterlimit:10;stroke-width:1.5px"/><line x1="357.99" y1="246.51" x2="363" y2="246.51" style="fill:none;stroke:#414042;stroke-miterlimit:10;stroke-width:1.5px"/><line x1="8.5" y1="246.51" y2="246.51" style="fill:none;stroke:#414042;stroke-miterlimit:10;stroke-width:1.5px"/></svg>