<svg xmlns="http://www.w3.org/2000/svg" viewBox="0 0 346.17 250.81"><title>web-development</title><path d="M176.68,67.38V60a4.14,4.14,0,0,0-4.13-4.13h0A4.14,4.14,0,0,0,168.42,60v7.4Z" style="fill:#d0ccce"/><path d="M176.68,67.38V60a4.14,4.14,0,0,0-4.13-4.13h0A4.14,4.14,0,0,0,168.42,60v7.4Z" style="fill:none;stroke:#414042;stroke-miterlimit:10;stroke-width:1.5px"/><path d="M187.67,87.73a15,15,0,1,1-22.18-13.09v-6h14.45v6A14.94,14.94,0,0,1,187.67,87.73Z" style="fill:#fde99d"/><path d="M172.72,98.69a15,15,0,0,1-14.81-13,15,15,0,1,0,29.62,0A15,15,0,0,1,172.72,98.69Z" style="fill:#beaf76"/><path d="M187.67,87.73a15,15,0,1,1-22.18-13.09v-6h14.45v6A14.94,14.94,0,0,1,187.67,87.73Z" style="fill:none;stroke:#414042;stroke-miterlimit:10;stroke-width:1.5px"/><rect x="165.4" y="65.37" width="14.78" height="4.07" style="fill:#d0ccce"/><rect x="165.4" y="65.37" width="14.78" height="4.07" style="fill:none;stroke:#414042;stroke-miterlimit:10;stroke-width:1.5px"/><line x1="168.87" y1="63" x2="173.54" y2="63" style="fill:none;stroke:#414042;stroke-miterlimit:10;stroke-width:1.5px"/><line x1="172.55" y1="60.6" x2="177.22" y2="60.6" style="fill:none;stroke:#414042;stroke-miterlimit:10;stroke-width:1.5px"/><line x1="173.08" y1="109.94" x2="172.95" y2="105.42" style="fill:none;stroke:#414042;stroke-miterlimit:10;stroke-width:1.5px"/><line x1="176.9" y1="107.68" x2="175.99" y2="105.12" style="fill:none;stroke:#414042;stroke-miterlimit:10;stroke-width:1.5px"/><line x1="180.58" y1="108.5" x2="178.93" y2="104.29" style="fill:none;stroke:#414042;stroke-miterlimit:10;stroke-width:1.5px"/><line x1="182.86" y1="104.91" x2="181.68" y2="102.98" style="fill:none;stroke:#414042;stroke-miterlimit:10;stroke-width:1.5px"/><line x1="187.15" y1="104.61" x2="184.17" y2="101.21" style="fill:none;stroke:#414042;stroke-miterlimit:10;stroke-width:1.5px"/><line x1="188.46" y1="100.77" x2="186.31" y2="99.04" style="fill:none;stroke:#414042;stroke-miterlimit:10;stroke-width:1.5px"/><line x1="192.01" y1="98.72" x2="188.05" y2="96.53" style="fill:none;stroke:#414042;stroke-miterlimit:10;stroke-width:1.5px"/><line x1="191.48" y1="94.5" x2="189.34" y2="93.76" style="fill:none;stroke:#414042;stroke-miterlimit:10;stroke-width:1.5px"/><line x1="194.59" y1="91.54" x2="190.12" y2="90.82" style="fill:none;stroke:#414042;stroke-miterlimit:10;stroke-width:1.5px"/><line x1="192.66" y1="87.72" x2="190.4" y2="87.78" style="fill:none;stroke:#414042;stroke-miterlimit:10;stroke-width:1.5px"/><line x1="194.58" y1="83.9" x2="190.14" y2="84.74" style="fill:none;stroke:#414042;stroke-miterlimit:10;stroke-width:1.5px"/><line x1="191.53" y1="80.76" x2="189.37" y2="81.79" style="fill:none;stroke:#414042;stroke-miterlimit:10;stroke-width:1.5px"/><line x1="191.99" y1="76.72" x2="188.1" y2="79.01" style="fill:none;stroke:#414042;stroke-miterlimit:10;stroke-width:1.5px"/><line x1="188.05" y1="75.07" x2="186.37" y2="76.5" style="fill:none;stroke:#414042;stroke-miterlimit:10;stroke-width:1.5px"/><line x1="187.13" y1="70.84" x2="184.23" y2="74.32" style="fill:none;stroke:#414042;stroke-miterlimit:10;stroke-width:1.5px"/><line x1="182.88" y1="70.84" x2="181.76" y2="72.53" style="fill:none;stroke:#414042;stroke-miterlimit:10;stroke-width:1.5px"/><line x1="163.12" y1="70.24" x2="164.24" y2="72.2" style="fill:none;stroke:#414042;stroke-miterlimit:10;stroke-width:1.5px"/><line x1="158.82" y1="70.4" x2="161.69" y2="73.89" style="fill:none;stroke:#414042;stroke-miterlimit:10;stroke-width:1.5px"/><line x1="157.53" y1="74.32" x2="159.48" y2="75.99" style="fill:none;stroke:#414042;stroke-miterlimit:10;stroke-width:1.5px"/><line x1="153.77" y1="76.12" x2="157.66" y2="78.44" style="fill:none;stroke:#414042;stroke-miterlimit:10;stroke-width:1.5px"/><line x1="154.17" y1="80.35" x2="156.28" y2="81.16" style="fill:none;stroke:#414042;stroke-miterlimit:10;stroke-width:1.5px"/><line x1="150.96" y1="83.22" x2="155.4" y2="84.08" style="fill:none;stroke:#414042;stroke-miterlimit:10;stroke-width:1.5px"/><line x1="152.77" y1="87.11" x2="155.03" y2="87.11" style="fill:none;stroke:#414042;stroke-miterlimit:10;stroke-width:1.5px"/><line x1="150.71" y1="90.85" x2="155.18" y2="90.16" style="fill:none;stroke:#414042;stroke-miterlimit:10;stroke-width:1.5px"/><line x1="154.17" y1="93.86" x2="155.86" y2="93.13" style="fill:none;stroke:#414042;stroke-miterlimit:10;stroke-width:1.5px"/><line x1="153.07" y1="98.11" x2="157.04" y2="95.95" style="fill:none;stroke:#414042;stroke-miterlimit:10;stroke-width:1.5px"/><line x1="156.91" y1="99.92" x2="158.68" y2="98.52" style="fill:none;stroke:#414042;stroke-miterlimit:10;stroke-width:1.5px"/><line x1="157.74" y1="104.15" x2="160.75" y2="100.77" style="fill:none;stroke:#414042;stroke-miterlimit:10;stroke-width:1.5px"/><line x1="161.97" y1="104.91" x2="163.16" y2="102.63" style="fill:none;stroke:#414042;stroke-miterlimit:10;stroke-width:1.5px"/><line x1="164.18" y1="108.24" x2="165.87" y2="104.05" style="fill:none;stroke:#414042;stroke-miterlimit:10;stroke-width:1.5px"/><line x1="168.42" y1="107.33" x2="168.77" y2="104.98" style="fill:none;stroke:#414042;stroke-miterlimit:10;stroke-width:1.5px"/><line x1="172.55" y1="23.8" x2="172.55" y2="55.85" style="fill:none;stroke:#414042;stroke-miterlimit:10;stroke-width:1.5px"/><path d="M66.72,136.2s-1.21-2-3.09-2A5,5,0,0,0,59.77,136c-.65.72-2.12-1.28-4-2-1.22-.47-2.44,2.22-3.86,2.22S49.47,134,48.27,134c-1.54,0-2.69,1.82-4,1.82S41.34,134,40.34,134c-2,0-3.86,2.46-3.86,2.46,0-8.17,7.27-15,15.44-15A14.8,14.8,0,0,1,66.72,136.2Z" style="fill:#e78967"/><path d="M66.72,136.2s-1.21-2-3.09-2c-1.31,0-2.31.5-3.87,1.82-.74.63-1.64-1.79-4-2-1.3-.12-2.44,2.22-3.86,2.22S49.47,134,48.27,134c-1.54,0-2.72,2.08-4,1.82-.74-.15,1.94-14.48,7.66-14.4A14.87,14.87,0,0,1,66.72,136.2Z" style="fill:#fff"/><path d="M66.72,136.2s-1.21-2-3.09-2c-1.31,0-2.1.37-3.9,1.31-.86.45-2.09-.77-4-1.49-1.22-.47-2.44,2.22-3.86,2.22V121.4A14.87,14.87,0,0,1,66.72,136.2Z" style="fill:#e78967"/><path d="M67.36,136.2s-3.64-5-7.15-.32c-.73,1-.61-4.46-4.23-10.93-.94-1.68-4.05-3.55-4.05-3.55C60.1,121.51,67.36,128,67.36,136.2Z" style="fill:#fff"/><path d="M36.48,137.63c0-8.53,6.91-16.23,15.44-16.23a15.45,15.45,0,0,1,15.45,15.45m-23.17,1a3.86,3.86,0,1,0-7.73,0m7.73,0a3.86,3.86,0,1,1,7.72,0m0,0a3.86,3.86,0,1,1,7.72,0m0,0A3.86,3.86,0,0,1,63.51,134a3.6,3.6,0,0,1,3.85,3.55" style="fill:none;stroke:#414042;stroke-linecap:round;stroke-miterlimit:10;stroke-width:1.5px"/><line x1="51.83" y1="121.41" x2="51.83" y2="136.62" style="fill:none;stroke:#414042;stroke-linecap:round;stroke-miterlimit:10;stroke-width:1.5px"/><path d="M51.83,121.4s-7.17,1.81-7.57,14.4" style="fill:none;stroke:#414042;stroke-linecap:round;stroke-miterlimit:10;stroke-width:1.5px"/><path d="M51.77,121.4s7.83,5.47,7.83,14.51" style="fill:none;stroke:#414042;stroke-linecap:round;stroke-miterlimit:10;stroke-width:1.5px"/><line x1="36.48" y1="137.84" x2="51.93" y2="159.51" style="fill:none;stroke:#414042;stroke-linecap:round;stroke-miterlimit:10;stroke-width:1.5px"/><line x1="44.2" y1="137.84" x2="51.93" y2="159.51" style="fill:none;stroke:#414042;stroke-linecap:round;stroke-miterlimit:10;stroke-width:1.5px"/><line x1="59.64" y1="137.63" x2="51.97" y2="159.51" style="fill:none;stroke:#414042;stroke-linecap:round;stroke-miterlimit:10;stroke-width:1.5px"/><line x1="67.46" y1="137.31" x2="52.01" y2="159.51" style="fill:none;stroke:#414042;stroke-linecap:round;stroke-miterlimit:10;stroke-width:1.5px"/><line x1="51.94" y1="137.14" x2="51.85" y2="159.63" style="fill:none;stroke:#414042;stroke-linecap:round;stroke-miterlimit:10;stroke-width:1.5px"/><rect x="43.43" y="156.57" width="17.42" height="17.42" style="fill:#535151"/><polygon points="60.85 161.38 43.43 162.97 43.43 156.57 60.85 156.57 60.85 161.38" style="fill:#3e3d3d"/><rect x="43.43" y="156.57" width="17.42" height="17.42" style="fill:none;stroke:#414042;stroke-linecap:round;stroke-miterlimit:10;stroke-width:1.5px"/><rect x="42.32" y="155.78" width="19.65" height="3.86" style="fill:#535151"/><rect x="42.32" y="155.78" width="19.65" height="3.86" style="fill:none;stroke:#414042;stroke-linecap:round;stroke-miterlimit:10;stroke-width:1.5px"/><rect x="42.32" y="170.84" width="19.65" height="3.85" style="fill:#535151"/><rect x="42.32" y="170.84" width="19.65" height="3.85" style="fill:none;stroke:#414042;stroke-linecap:round;stroke-miterlimit:10;stroke-width:1.5px"/><path d="M241.88,115.08h58.66a3.5,3.5,0,0,1,3.5,3.5V249.66a0,0,0,0,1,0,0H238.38a0,0,0,0,1,0,0V118.59A3.5,3.5,0,0,1,241.88,115.08Z" style="fill:#535151"/><path d="M241.88,115.08h58.66a3.5,3.5,0,0,1,3.5,3.5v4.07a0,0,0,0,1,0,0H238.38a0,0,0,0,1,0,0v-4.07A3.5,3.5,0,0,1,241.88,115.08Z" style="fill:#e3e0e2"/><path d="M242,115.08h58.46a3.6,3.6,0,0,1,3.6,3.6v131a0,0,0,0,1,0,0H238.38a0,0,0,0,1,0,0v-131A3.6,3.6,0,0,1,242,115.08Z" style="fill:none;stroke:#414042;stroke-miterlimit:10;stroke-width:1.5px"/><circle cx="244.17" cy="118.87" r="1.05" style="fill:#e78967"/><circle cx="247.58" cy="118.87" r="1.05" style="fill:#fde99d"/><circle cx="250.99" cy="118.87" r="1.05" style="fill:#aca39e"/><line x1="238.68" y1="122.66" x2="304.04" y2="122.66" style="fill:none;stroke:#414042;stroke-miterlimit:10;stroke-width:1.5px"/><rect x="247.58" y="131.39" width="5.42" height="1.05" style="fill:#e78967"/><rect x="250.29" y="134.98" width="10.72" height="1.05" style="fill:#fde99d"/><rect x="262.29" y="134.98" width="30.4" height="1.05" style="fill:#fffffe"/><rect x="256.01" y="139.04" width="7.45" height="1.05" style="fill:#fffffe"/><rect x="254.58" y="144.34" width="27.78" height="1.05" style="fill:#fffffe"/><rect x="254.03" y="149.39" width="18.99" height="1.05" style="fill:#fffffe"/><rect x="259.01" y="154.44" width="13.84" height="1.05" style="fill:#fffffe"/><rect x="274.01" y="154.44" width="8.69" height="1.05" style="fill:#e78967"/><rect x="268.47" y="159.48" width="24.23" height="1.05" style="fill:#fffffe"/><rect x="263.93" y="159.48" width="2.54" height="1.05" transform="translate(530.4 320.02) rotate(180)" style="fill:#fde99d"/><rect x="254.03" y="164.53" width="8.26" height="1.05" style="fill:#fffffe"/><rect x="264.03" y="164.53" width="8.26" height="1.05" style="fill:#fde99d"/><rect x="274.03" y="164.53" width="13.56" height="1.05" style="fill:#fffffe"/><rect x="268.47" y="169.58" width="24.23" height="1.05" style="fill:#fffffe"/><rect x="254.03" y="174.62" width="8.26" height="1.05" style="fill:#e78967"/><rect x="264.03" y="174.62" width="8.26" height="1.05" style="fill:#fffffe"/><rect x="273.57" y="174.62" width="7.78" height="1.05" style="fill:#fffffe"/><rect x="261.01" y="179.67" width="27.69" height="1.05" style="fill:#fffffe"/><rect x="254.03" y="184.72" width="6.98" height="1.05" style="fill:#fffffe"/><rect x="263.29" y="184.72" width="7.83" height="1.05" style="fill:#fde99d"/><rect x="272.85" y="184.72" width="11.28" height="1.05" style="fill:#fffffe"/><rect x="254.03" y="189.77" width="20.83" height="1.05" style="fill:#fffffe"/><rect x="259.73" y="194.81" width="31.61" height="1.05" style="fill:#fffffe"/><rect x="254.03" y="199.86" width="6.98" height="1.05" style="fill:#fffffe"/><rect x="263.03" y="199.86" width="6.98" height="1.05" style="fill:#e78967"/><rect x="267.21" y="204.91" width="21.49" height="1.05" style="fill:#fffffe"/><rect x="262.44" y="204.91" width="2.77" height="1.05" transform="translate(527.65 410.86) rotate(180)" style="fill:#fffffe"/><rect x="254.03" y="209.95" width="5.7" height="1.05" style="fill:#fde99d"/><rect x="262.03" y="209.95" width="12.98" height="1.05" style="fill:#fff"/><rect x="277.03" y="209.95" width="6.49" height="1.05" style="fill:#e78967"/><rect x="254.03" y="215" width="15.98" height="1.05" style="fill:#fffffe"/><rect x="254.03" y="220.05" width="8.41" height="1.05" style="fill:#e78967"/><rect x="264.03" y="220.05" width="21.22" height="1.05" style="fill:#fffffe"/><rect x="254.03" y="225.09" width="12.44" height="1.05" style="fill:#fffffe"/><rect x="269.03" y="225.09" width="12.44" height="1.05" style="fill:#fffffe"/><rect x="254.03" y="230.14" width="19.55" height="1.05" style="fill:#fffffe"/><rect x="275.03" y="230.14" width="4.33" height="1.05" style="fill:#fde99d"/><rect x="257.03" y="235.19" width="10" height="1.05" style="fill:#e78967"/><rect x="269.03" y="235.19" width="4.55" height="1.05" style="fill:#e78967"/><rect x="254.03" y="240.24" width="21.51" height="1.05" style="fill:#fffffe"/><rect x="277.03" y="240.24" width="15.67" height="1.05" style="fill:#fffffe"/><rect x="285.25" y="144.34" width="4.67" height="1.05" transform="translate(575.17 289.74) rotate(180)" style="fill:#fffffe"/><rect x="254.58" y="131.39" width="22" height="1.05" style="fill:#fffffe"/><path d="M300.44,114.33H287.26a13.82,13.82,0,0,0,17.53,19.28V118.69A4.36,4.36,0,0,0,300.44,114.33Z" style="fill:#231f20;opacity:0.30000000000000004"/><circle cx="301.44" cy="118.87" r="13.07" style="fill:#e78967"/><path d="M301.44,105.8a13,13,0,0,0-8.67,3.31,13.06,13.06,0,0,1,14.34,21.53,13.06,13.06,0,0,0-5.67-24.84Z" style="fill:#ad674d"/><circle cx="301.44" cy="118.87" r="13.07" style="fill:none;stroke:#414042;stroke-miterlimit:10;stroke-width:1.5px"/><polygon points="299.83 124.83 294.71 119.72 296.84 117.6 299.83 120.59 306.44 113.97 308.57 116.09 299.83 124.83" style="fill:#fff"/><line x1="301.44" y1="97.78" x2="301.44" y2="103.79" style="fill:none;stroke:#414042;stroke-miterlimit:10;stroke-width:1.5px"/><line x1="307.6" y1="101.94" x2="306.6" y2="104.7" style="fill:none;stroke:#414042;stroke-miterlimit:10;stroke-width:1.5px"/><line x1="315" y1="102.72" x2="311.14" y2="107.32" style="fill:none;stroke:#414042;stroke-miterlimit:10;stroke-width:1.5px"/><line x1="317.09" y1="109.84" x2="314.5" y2="111.33" style="fill:none;stroke:#414042;stroke-miterlimit:10;stroke-width:1.5px"/><line x1="322.21" y1="115.22" x2="316.29" y2="116.26" style="fill:none;stroke:#414042;stroke-miterlimit:10;stroke-width:1.5px"/><line x1="319.25" y1="122.03" x2="316.29" y2="121.5" style="fill:none;stroke:#414042;stroke-miterlimit:10;stroke-width:1.5px"/><line x1="319.69" y1="129.43" x2="314.49" y2="126.42" style="fill:none;stroke:#414042;stroke-miterlimit:10;stroke-width:1.5px"/><line x1="312.8" y1="132.44" x2="311.12" y2="130.44" style="fill:none;stroke:#414042;stroke-miterlimit:10;stroke-width:1.5px"/><line x1="308.62" y1="138.7" x2="306.58" y2="133.05" style="fill:none;stroke:#414042;stroke-miterlimit:10;stroke-width:1.5px"/><line x1="285.8" y1="109.83" x2="288.39" y2="111.3" style="fill:none;stroke:#414042;stroke-miterlimit:10;stroke-width:1.5px"/><line x1="287.92" y1="102.68" x2="291.77" y2="107.29" style="fill:none;stroke:#414042;stroke-miterlimit:10;stroke-width:1.5px"/><line x1="295.3" y1="101.88" x2="296.32" y2="104.68" style="fill:none;stroke:#414042;stroke-miterlimit:10;stroke-width:1.5px"/><rect x="189.19" y="235.21" width="88.2" height="14.44" style="fill:#fde99d"/><rect x="189.19" y="235.21" width="88.2" height="6.43" style="fill:#fef6d8"/><line x1="203.84" y1="235.21" x2="203.84" y2="239.59" style="fill:none;stroke:#414042;stroke-miterlimit:10;stroke-width:2px"/><line x1="192.15" y1="235.21" x2="192.15" y2="239.59" style="fill:none;stroke:#414042;stroke-miterlimit:10;stroke-width:2px"/><line x1="215.53" y1="235.21" x2="215.53" y2="239.59" style="fill:none;stroke:#414042;stroke-miterlimit:10;stroke-width:2px"/><line x1="227.22" y1="235.21" x2="227.22" y2="239.59" style="fill:none;stroke:#414042;stroke-miterlimit:10;stroke-width:2px"/><line x1="238.91" y1="235.21" x2="238.91" y2="239.59" style="fill:none;stroke:#414042;stroke-miterlimit:10;stroke-width:2px"/><line x1="262.29" y1="235.21" x2="262.29" y2="239.59" style="fill:none;stroke:#414042;stroke-miterlimit:10;stroke-width:2px"/><line x1="250.6" y1="235.21" x2="250.6" y2="239.59" style="fill:none;stroke:#414042;stroke-miterlimit:10;stroke-width:2px"/><line x1="273.97" y1="235.21" x2="273.97" y2="239.59" style="fill:none;stroke:#414042;stroke-miterlimit:10;stroke-width:2px"/><rect x="189.19" y="235.21" width="88.2" height="14.44" rx="0.99" ry="0.99" style="fill:none;stroke:#414042;stroke-miterlimit:10;stroke-width:2px"/><polygon points="304.8 247.68 304.8 228.66 288.69 228.66 286.36 236.14 301.19 250.41 302.01 250.41 304.8 247.68" style="fill:#231f20;opacity:0.30000000000000004"/><polygon points="304.79 249.43 312.58 235.92 304.79 249.43 304.79 249.43" style="fill:#bcbec0"/><polygon points="318.74 235.92 312.58 235.92 304.79 249.43 318.74 235.92" style="fill:#e78967"/><polygon points="296.46 235.92 290.21 235.92 304.47 249.74 304.47 249.55 296.46 235.92" style="fill:#f1b8a4"/><polygon points="304.47 235.92 296.46 235.92 304.47 249.55 304.47 235.92" style="fill:#e78967"/><polygon points="304.47 249.55 296.46 235.92 304.47 249.55 304.47 249.55" style="fill:#bcbec0"/><polygon points="304.54 249.65 304.55 249.67 304.79 249.43 312.58 235.92 304.47 235.92 304.47 249.55 304.54 249.65" style="fill:#f1b8a4"/><polygon points="292.24 229.41 290.21 235.92 296.46 235.92 298.5 229.41 292.24 229.41" style="fill:#e78967"/><polygon points="304.47 229.41 298.5 229.41 296.46 235.92 304.47 235.92 304.47 229.41" style="fill:#f1b8a4"/><polygon points="312.58 235.92 310.57 229.41 304.47 229.41 304.47 235.92 312.58 235.92" style="fill:#e78967"/><polygon points="318.74 235.92 316.71 229.41 310.57 229.41 312.58 235.92 318.74 235.92" style="fill:#f1b8a4"/><polygon points="290.21 235.92 292.24 229.41 316.71 229.41 318.74 235.92 304.6 249.76 290.21 235.92" style="fill:none;stroke:#414042;stroke-miterlimit:10;stroke-width:1.5px"/><line x1="290.21" y1="235.92" x2="318.74" y2="235.92" style="fill:none;stroke:#414042;stroke-miterlimit:10;stroke-width:1.5px"/><line x1="304.47" y1="249.55" x2="304.47" y2="229.41" style="fill:none;stroke:#414042;stroke-miterlimit:10;stroke-width:1.5px"/><line x1="296.46" y1="235.92" x2="304.06" y2="248.85" style="fill:none;stroke:#414042;stroke-miterlimit:10;stroke-width:1.5px"/><line x1="312.5" y1="235.92" x2="304.9" y2="248.85" style="fill:none;stroke:#414042;stroke-miterlimit:10;stroke-width:1.5px"/><line x1="298.5" y1="229.41" x2="296.46" y2="235.92" style="fill:none;stroke:#414042;stroke-miterlimit:10;stroke-width:1.5px"/><line x1="310.33" y1="229.41" x2="312.36" y2="235.92" style="fill:none;stroke:#414042;stroke-miterlimit:10;stroke-width:1.5px"/><path d="M69.92,249.66H13.87a9.29,9.29,0,0,1-9.26-9.26h0a9.29,9.29,0,0,1,9.26-9.26H69.92a9.29,9.29,0,0,1,9.26,9.26h0A9.29,9.29,0,0,1,69.92,249.66Z" style="fill:#d0ccce"/><path d="M13.87,235.14H69.92a9.29,9.29,0,0,1,9,7.26,9.18,9.18,0,0,0,.23-2,9.29,9.29,0,0,0-9.26-9.26H13.87a9.29,9.29,0,0,0-9.26,9.26,9.18,9.18,0,0,0,.23,2A9.29,9.29,0,0,1,13.87,235.14Z" style="fill:#9c999b"/><path d="M69.92,249.66H13.87a9.29,9.29,0,0,1-9.26-9.26h0a9.29,9.29,0,0,1,9.26-9.26H69.92a9.29,9.29,0,0,1,9.26,9.26h0A9.29,9.29,0,0,1,69.92,249.66Z" style="fill:none;stroke:#414042;stroke-miterlimit:10;stroke-width:1.5px"/><circle cx="15.79" cy="240.4" r="5.92" style="fill:#e78967"/><circle cx="15.79" cy="240.4" r="2.89" style="fill:#fff"/><circle cx="41.89" cy="240.4" r="5.92" style="fill:#e78967"/><circle cx="41.89" cy="240.4" r="2.89" style="fill:#fff"/><circle cx="68" cy="240.4" r="5.92" style="fill:#e78967"/><circle cx="15.79" cy="240.4" r="5.92" style="fill:none;stroke:#414042;stroke-miterlimit:10;stroke-width:1.5px"/><circle cx="41.89" cy="240.4" r="5.92" style="fill:none;stroke:#414042;stroke-miterlimit:10;stroke-width:1.5px"/><circle cx="68" cy="240.4" r="5.92" style="fill:none;stroke:#414042;stroke-miterlimit:10;stroke-width:1.5px"/><circle cx="68" cy="240.4" r="2.89" style="fill:#fff"/><circle cx="51.97" cy="219.54" r="10.37" style="fill:#535151"/><circle cx="51.97" cy="219.54" r="10.37" style="fill:none;stroke:#414042;stroke-miterlimit:10;stroke-width:1.5px"/><polygon points="51 222.78 47.64 219.42 48.83 218.24 51 220.41 55.11 216.3 56.3 217.49 51 222.78" style="fill:#fff"/><path d="M41.6,219.54a10.35,10.35,0,0,0,3.92,8.11,10.56,10.56,0,0,0,0-16.24A10.35,10.35,0,0,0,41.6,219.54Z" style="fill:#231f20;opacity:0.30000000000000004"/><circle cx="36.8" cy="219.52" r="10.59" transform="translate(-176.84 157.05) rotate(-64.18)" style="fill:#e78967"/><circle cx="36.8" cy="219.52" r="10.59" transform="translate(-176.84 157.05) rotate(-64.18)" style="fill:none;stroke:#414042;stroke-miterlimit:10;stroke-width:1.5px"/><path d="M36.26,218.18l1.12-2.32,1.89.91-1.12,2.32,2.32,1.12L39.63,222l-2.32-1.12-1.13,2.34-1.89-.91,1.13-2.34-2.29-1.11.84-1.73Z" style="fill:#fff"/><path d="M32.15,210.3a11,11,0,0,0-4.77,4.61c-2.64,4.95-.65,10.84,4.41,13.64a10.27,10.27,0,0,0,.37-18.25Z" style="fill:#231f20;opacity:0.30000000000000004"/><circle cx="24.23" cy="219.32" r="10.79" style="fill:#fde99d"/><circle cx="24.23" cy="219.32" r="10.79" style="fill:none;stroke:#414042;stroke-miterlimit:10;stroke-width:1.5px"/><path d="M20.79,221.55v.07l-1,1L17,219.76v-.19l2.86-2.83,1,1v.07l-2,1.89Z" style="fill:#fff"/><path d="M27.1,214.06,23,224.59H21.38l4.14-10.54Z" style="fill:#fff"/><path d="M29.62,219.67l-2-1.89v-.07l1-1,2.86,2.83v.19l-2.86,2.83-1-1v-.07Z" style="fill:#fff"/><path d="M259.49,228.17V143.41a3.08,3.08,0,0,0-3.08-3.08H237.63v90.91h18.79A3.08,3.08,0,0,0,259.49,228.17Z" style="fill:#231f20;opacity:0.30000000000000004"/><polygon points="213.85 244.36 150.51 244.36 158.64 220.75 206.01 220.75 213.85 244.36" style="fill:#fffffe"/><polygon points="151.65 241.25 211.39 237.34 206.3 222.04 158.07 222.04 151.65 241.25" style="fill:#bcbec0"/><polyline points="150.51 244.36 158.64 220.75 206.01 220.75 213.85 244.36" style="fill:none;stroke:#414042;stroke-miterlimit:10;stroke-width:1.5px"/><rect x="108.63" y="141.08" width="147.11" height="78.83" rx="2.33" ry="2.33" style="fill:#817a77"/><path d="M255.74,215.74v10c0,3.19-.78,4.77-4.21,4.77H113.84c-3.43,0-5.21-.58-5.21-3.77v-11Z" style="fill:#fffffe"/><rect x="114.07" y="146.44" width="136.22" height="64.01" style="fill:#ecebeb"/><rect x="145.47" y="244.36" width="73.43" height="5.3" style="fill:#f1f2f2"/><path d="M209.44,244.36h6.81A2.65,2.65,0,0,1,218.9,247h0a2.65,2.65,0,0,1-2.65,2.65H148.12a2.65,2.65,0,0,1-2.65-2.65h0a2.65,2.65,0,0,1,2.65-2.65h26.47" style="fill:none;stroke:#414042;stroke-miterlimit:10;stroke-width:1.5px"/><rect x="108.63" y="141.08" width="147.11" height="89.41" rx="2.33" ry="2.33" style="fill:none;stroke:#414042;stroke-miterlimit:10;stroke-width:1.5px"/><line x1="108.63" y1="215.72" x2="255.74" y2="215.72" style="fill:none;stroke:#414042;stroke-miterlimit:10;stroke-width:1.5px"/><path d="M130.19,223.27a2.82,2.82,0,0,0-2.81-2.81h-7.55l-.45-2.26a4.56,4.56,0,0,0-4.46-3.67h-8.6c-.15,0-.3,0-.44,0v13.6a3.08,3.08,0,0,0,3.08,3.08h21.23Z" style="fill:#231f20;opacity:0.30000000000000004"/><rect x="86.47" y="219.32" width="7.49" height="2.31" style="fill:#414042"/><path d="M117.25,226.51H97.91l1.6-8.1a3.89,3.89,0,0,1,3.82-3.14h8.6a3.8,3.8,0,0,1,3.73,3.06Z" style="fill:#535151"/><polygon points="97.91 225.78 117.25 225.78 115.94 219.88 99.22 219.88 97.91 225.78" style="fill:#231f20;opacity:0.30000000000000004"/><path d="M117.25,226.51H97.91l1.6-8.1a3.89,3.89,0,0,1,3.82-3.14h8.6a3.8,3.8,0,0,1,3.73,3.06Z" style="fill:none;stroke:#414042;stroke-miterlimit:10;stroke-width:1.5px"/><rect x="82.25" y="221.21" width="44.19" height="28.45" rx="2.06" ry="2.06" style="fill:#757474"/><rect x="82.25" y="221.21" width="44.19" height="28.45" rx="2.06" ry="2.06" style="fill:none;stroke:#414042;stroke-miterlimit:10;stroke-width:1.5px"/><circle cx="107.44" cy="237.42" r="12.03" style="fill:#231f20;opacity:0.30000000000000004"/><rect x="102.73" y="217.21" width="9.7" height="2.21" style="fill:#fff"/><rect x="86.84" y="225.17" width="7.49" height="3.16" style="fill:#e78967"/><polygon points="94.33 228.33 90.21 228.33 92.04 225.16 94.33 225.16 94.33 228.33" style="fill:#eca185"/><circle cx="107.44" cy="234.99" r="4.11" style="fill:#fad79e"/><circle cx="107.44" cy="234.99" r="12.03" style="fill:#d9d6d8"/><circle cx="107.44" cy="234.99" r="12.03" style="fill:none;stroke:#414042;stroke-miterlimit:10;stroke-width:1.5px"/><circle cx="107.44" cy="234.99" r="10.12" style="fill:none;stroke:#414042;stroke-miterlimit:10;stroke-width:1.5px"/><circle cx="107.44" cy="234.99" r="4.11" style="fill:#d0ccce"/><circle cx="107.44" cy="234.99" r="4.11" style="fill:none;stroke:#414042;stroke-miterlimit:10;stroke-width:2px"/><ellipse cx="106.35" cy="233.36" rx="1.26" ry="0.89" transform="translate(-135.07 146.84) rotate(-45.78)" style="fill:#fff"/><rect x="114.07" y="150.11" width="136.22" height="60.33" style="fill:#fffffe"/><rect x="114.07" y="146.44" width="136.22" height="5.59" style="fill:#d0ccce"/><rect x="154.32" y="148.04" width="82.85" height="2.28" style="fill:#fff"/><rect x="221.71" y="159.92" width="19.74" height="21.3" style="fill:#fde99d"/><rect x="221.71" y="159.92" width="19.74" height="21.3" style="fill:none;stroke:#414042;stroke-miterlimit:10;stroke-width:1.5px"/><rect x="146.63" y="159.92" width="60.82" height="25.75" style="fill:#f1f2f2"/><rect x="146.63" y="159.92" width="60.82" height="25.75" style="fill:none;stroke:#414042;stroke-miterlimit:10;stroke-width:1.5px"/><rect x="221.71" y="185.79" width="19.74" height="18.7" style="fill:#fec1a0"/><rect x="221.71" y="185.79" width="19.74" height="18.7" style="fill:none;stroke:#414042;stroke-miterlimit:10;stroke-width:1.5px"/><rect x="146.63" y="191.01" width="13.47" height="13.47" style="fill:#fde99d"/><rect x="146.63" y="191.01" width="13.47" height="13.47" style="fill:none;stroke:#414042;stroke-miterlimit:10;stroke-width:1.5px"/><rect x="170.16" y="191.01" width="13.47" height="13.47" style="fill:#aca39e"/><rect x="170.16" y="191.01" width="13.47" height="13.47" style="fill:#e78967;stroke:#414042;stroke-miterlimit:10;stroke-width:1.5px"/><rect x="193.7" y="191.01" width="13.47" height="13.47" style="fill:#d0ccce"/><rect x="193.7" y="191.01" width="13.47" height="13.47" style="fill:none;stroke:#414042;stroke-miterlimit:10;stroke-width:1.5px"/><line x1="120.35" y1="189.63" x2="140.09" y2="189.63" style="fill:none;stroke:#414042;stroke-miterlimit:10;stroke-width:1.5px"/><line x1="120.35" y1="182.94" x2="140.09" y2="182.94" style="fill:none;stroke:#414042;stroke-miterlimit:10;stroke-width:1.5px"/><line x1="120.35" y1="176.24" x2="140.09" y2="176.24" style="fill:none;stroke:#414042;stroke-miterlimit:10;stroke-width:1.5px"/><line x1="120.35" y1="169.54" x2="140.09" y2="169.54" style="fill:none;stroke:#414042;stroke-miterlimit:10;stroke-width:1.5px"/><line x1="120.35" y1="162.84" x2="140.09" y2="162.84" style="fill:none;stroke:#414042;stroke-miterlimit:10;stroke-width:1.5px"/><line x1="120.35" y1="196.49" x2="140.09" y2="196.49" style="fill:none;stroke:#414042;stroke-miterlimit:10;stroke-width:1.5px"/><line x1="120.35" y1="203.35" x2="129.3" y2="203.35" style="fill:none;stroke:#414042;stroke-miterlimit:10;stroke-width:1.5px"/><rect x="153.01" y="153.82" width="40.65" height="25.31" rx="1.88" ry="1.88" style="fill:#fff"/><rect x="153.01" y="153.82" width="40.65" height="25.31" rx="1.28" ry="1.28" style="fill:none;stroke:#414042;stroke-miterlimit:10;stroke-width:1.5px"/><rect x="156.63" y="157.41" width="33.42" height="18.34" style="fill:#e78967"/><polygon points="174.52 175.39 166.4 164.94 157.82 175.39 174.52 175.39" style="fill:#535151"/><polyline points="170.46 170.16 166.4 164.94 157.82 175.39" style="fill:none;stroke:#414042;stroke-miterlimit:10;stroke-width:1.5px"/><polygon points="186.02 175.18 175.58 161.75 164.56 175.18 186.02 175.18" style="fill:#757474"/><line x1="156.57" y1="175.44" x2="190.11" y2="175.44" style="fill:none;stroke:#414042;stroke-miterlimit:10;stroke-width:1.5px"/><path d="M188.2,165.34a.43.43,0,0,0-.43-.43.42.42,0,0,0-.18,0,.6.6,0,0,0-.42-.32.67.67,0,0,0,0-.13A.7.7,0,0,0,186,164a1.29,1.29,0,0,0-2.54-.26l-.18,0a.89.89,0,0,0-.86.67.81.81,0,0,0-1.11.75.79.79,0,0,0,.13.41h6.69A.41.41,0,0,0,188.2,165.34Z" style="fill:#fff"/><path d="M162.73,166.21a.24.24,0,0,0-.24-.24l-.1,0a.33.33,0,0,0-.24-.18.38.38,0,0,0,0-.07.4.4,0,0,0-.4-.4.39.39,0,0,0-.27.11.73.73,0,0,0-1.43-.14H160a.5.5,0,0,0-.48.37.45.45,0,0,0-.62.42.44.44,0,0,0,.07.23h3.76A.23.23,0,0,0,162.73,166.21Z" style="fill:#fff"/><path d="M172.11,162.47a.37.37,0,0,0-.37-.37.36.36,0,0,0-.16,0,.51.51,0,0,0-.36-.28.58.58,0,0,0,0-.11.61.61,0,0,0-.61-.61.61.61,0,0,0-.41.17,1.12,1.12,0,0,0-2.19-.22l-.15,0a.77.77,0,0,0-.74.58.7.7,0,0,0-1,.65.68.68,0,0,0,.11.35h5.77A.36.36,0,0,0,172.11,162.47Z" style="fill:#fff"/><polyline points="164.56 175.18 175.58 161.75 186.02 175.18" style="fill:none;stroke:#414042;stroke-miterlimit:10;stroke-width:1.5px"/><path d="M130.17,171.91H136a6.22,6.22,0,0,0,10.2-.93h.35v2l2.83,1.53v10.95h4.33v-.06h3.39l8-1.64-.3-1.47-7.86,1.61h-3.24V154.59h3.24l7.86,1.61.3-1.47-7.93-1.63h-3.47v-1.66h-4.33v9.81l-2.83,1.53v2.07h-.35a6.22,6.22,0,0,0-10.07-1.07h-5.92v-2.59H108.49c-.1-.11-.19-.22-.3-.33l-.31-.28v14.36l.31-.31.26-.29h21.72Z" style="fill:#231f20;opacity:0.30000000000000004"/><rect x="108.58" y="161.78" width="28.32" height="6.13" style="fill:#58595b"/><rect x="138.8" y="161.84" width="8.3" height="6.13" style="fill:#414042"/><rect x="108.58" y="161.78" width="28.32" height="6.13" style="fill:none;stroke:#414042;stroke-miterlimit:10;stroke-width:2px"/><rect x="100.18" y="158.93" width="26.24" height="11.65" style="fill:#fde99d"/><rect x="100.18" y="158.93" width="26.24" height="5.32" style="fill:#fbe69a"/><rect x="100.18" y="158.93" width="26.24" height="11.65" style="fill:none;stroke:#414042;stroke-miterlimit:10;stroke-width:1.5px"/><rect x="69.4" y="218.72" width="13.48" height="12.98" style="fill:#535151"/><rect x="67.16" y="223.57" width="17.97" height="26.09" style="fill:#fef2c4"/><rect x="76.99" y="223.57" width="8.14" height="26.09" style="fill:#fde99d"/><path d="M68,223.57h16.2a.88.88,0,0,1,.88.88v25.21a0,0,0,0,1,0,0h-18a0,0,0,0,1,0,0V224.45A.88.88,0,0,1,68,223.57Z" style="fill:none;stroke:#414042;stroke-miterlimit:10;stroke-width:1.5px"/><path d="M76.14,178.45h0a9,9,0,0,1,9,9v32a0,0,0,0,1,0,0h-18a0,0,0,0,1,0,0v-32a9,9,0,0,1,9-9Z" style="fill:#fef2c4"/><path d="M77,178.46v41h8.14V186.72A8.26,8.26,0,0,0,77,178.46Z" style="fill:#fde99d"/><path d="M76.14,178.45h0a9,9,0,0,1,9,9v31.28a.74.74,0,0,1-.74.74H67.89a.74.74,0,0,1-.74-.74V187.44A9,9,0,0,1,76.14,178.45Z" style="fill:none;stroke:#414042;stroke-miterlimit:10;stroke-width:1.5px"/><path d="M85.12,186.72a8.27,8.27,0,0,0-8.27-8.27H75.42l-.5,0-5.64,5.64a8.22,8.22,0,0,0-2.12,3.67v4.35a8.22,8.22,0,0,0,2.12,3.67l1,1a8.27,8.27,0,0,0,11.69,0l3.14-3.14Z" style="fill:#231f20;opacity:0.30000000000000004"/><path d="M98.45,158.43v11.65h11.48v-8.66a8.23,8.23,0,0,0-.56-3Z" style="fill:#231f20;opacity:0.30000000000000004"/><path d="M104.66,158.38h0a9,9,0,0,1,0,12.71L82.49,193.25a9,9,0,0,1-12.7,0h0a9,9,0,0,1,0-12.71L92,158.38A9,9,0,0,1,104.66,158.38Z" style="fill:#fde99d"/><path d="M74.89,195.29l-1-1a8.27,8.27,0,0,1,0-11.69l23.18-23.18a8.24,8.24,0,0,1,6-2.41,8.26,8.26,0,0,0-10.64.88L69.28,181.06a8.27,8.27,0,0,0,0,11.69l1,1a8.23,8.23,0,0,0,5.65,2.41A8.29,8.29,0,0,1,74.89,195.29Z" style="fill:#fef2c4"/><path d="M104.66,158.38h0a9,9,0,0,1,0,12.71L82.49,193.25a9,9,0,0,1-12.7,0h0a9,9,0,0,1,0-12.71L92,158.38A9,9,0,0,1,104.66,158.38Z" style="fill:none;stroke:#414042;stroke-miterlimit:10;stroke-width:1.5px"/><circle cx="76.14" cy="186.9" r="6.55" transform="translate(-109.86 108.58) rotate(-45)" style="fill:#535151"/><circle cx="98.37" cy="164.93" r="6.55" transform="translate(-87.81 117.86) rotate(-45)" style="fill:#535151"/><circle cx="76.14" cy="186.9" r="3.44" transform="translate(-109.86 108.58) rotate(-45)" style="fill:#6d6e71"/><circle cx="76.14" cy="186.9" r="2.97" transform="translate(-109.86 108.58) rotate(-45)" style="fill:#f1f2f2"/><circle cx="98.37" cy="164.93" r="3.44" transform="translate(-87.81 117.86) rotate(-45)" style="fill:#6d6e71"/><circle cx="98.37" cy="164.93" r="2.97" transform="translate(-87.81 117.86) rotate(-45)" style="fill:#f1f2f2"/><rect x="75.65" y="172.72" width="12.96" height="1.59" transform="translate(-98.64 108.9) rotate(-45)" style="fill:#e78967"/><rect x="87.88" y="165.94" width="2.07" height="1.59" transform="translate(269.69 221.76) rotate(135)" style="fill:#535151"/><circle cx="137.75" cy="164.91" r="5.48" style="fill:#535151"/><circle cx="137.75" cy="164.91" r="5.48" style="fill:none;stroke:#414042;stroke-miterlimit:10;stroke-width:1.5px"/><circle cx="137.75" cy="164.91" r="2.88" style="fill:#6d6e71"/><circle cx="137.75" cy="164.91" r="2.48" style="fill:#f1f2f2"/><polygon points="147.1 158.69 147.1 171.08 144.27 169.55 144.27 160.22 147.1 158.69" style="fill:#fef2c4"/><rect x="132.24" y="164.04" width="32.55" height="2.83" transform="translate(-16.94 313.96) rotate(-90)" style="fill:#f9d657"/><polygon points="147.1 158.69 147.1 171.08 144.27 169.55 144.27 160.22 147.1 158.69" style="fill:none;stroke:#414042;stroke-miterlimit:10;stroke-width:1.5px"/><rect x="132.24" y="164.04" width="32.55" height="2.83" transform="translate(-16.94 313.96) rotate(-90)" style="fill:#fde99d;stroke:#414042;stroke-miterlimit:10;stroke-width:1.5px"/><polyline points="149.93 181.66 153.99 181.66 161.93 180.03" style="fill:none;stroke:#414042;stroke-miterlimit:10;stroke-width:1.5px"/><polyline points="149.93 150.84 153.99 150.84 161.93 152.47" style="fill:none;stroke:#414042;stroke-miterlimit:10;stroke-width:1.5px"/><path d="M90.91,139.26a5.27,5.27,0,0,0-.69.05,3.29,3.29,0,0,0-5.44-2.25,4.92,4.92,0,0,0-8.82,4.3,3.36,3.36,0,0,0-2.15,3.14H96.15A5.24,5.24,0,0,0,90.91,139.26Z" style="fill:#fff"/><path d="M90.91,139.26a5.27,5.27,0,0,0-.69.05,3.29,3.29,0,0,0-5.44-2.25,4.92,4.92,0,0,0-8.82,4.3,3.36,3.36,0,0,0-2.15,3.14H96.15A5.24,5.24,0,0,0,90.91,139.26Z" style="fill:none;stroke:#414042;stroke-miterlimit:10;stroke-width:1.5px"/><path d="M84.46,140.58a3,3,0,0,1,.84-3.9" style="fill:none;stroke:#414042;stroke-miterlimit:10;stroke-width:1.5px"/><path d="M304.79,149.21a5.67,5.67,0,0,0-9.2,4.44,5.6,5.6,0,0,0,.18,1.41,4.08,4.08,0,0,0-2,3.52v.75h11Z" style="fill:#231f20;opacity:0.30000000000000004"/><path d="M314.64,152.34a5.27,5.27,0,0,0-.69.05,3.29,3.29,0,0,0-5.44-2.25,4.92,4.92,0,0,0-8.82,4.3,3.36,3.36,0,0,0-2.15,3.14h22.34A5.24,5.24,0,0,0,314.64,152.34Z" style="fill:#fff"/><path d="M314.64,152.34a5.27,5.27,0,0,0-.69.05,3.29,3.29,0,0,0-5.44-2.25,4.92,4.92,0,0,0-8.82,4.3,3.36,3.36,0,0,0-2.15,3.14h22.34A5.24,5.24,0,0,0,314.64,152.34Z" style="fill:none;stroke:#414042;stroke-miterlimit:10;stroke-width:1.5px"/><path d="M308.18,153.67a3,3,0,0,1,.84-3.9" style="fill:none;stroke:#414042;stroke-miterlimit:10;stroke-width:1.5px"/><path d="M237.63,124.71v14.41h14.31v-.75a9,9,0,0,0-9-9h-.45A6,6,0,0,0,237.63,124.71Z" style="fill:#231f20;opacity:0.30000000000000004"/><path d="M240.93,128.11a8.3,8.3,0,0,0-1.09.08,5.18,5.18,0,0,0-8.57-3.54,7.76,7.76,0,0,0-13.91,6.78,5.3,5.3,0,0,0-3.39,4.94h35.21A8.25,8.25,0,0,0,240.93,128.11Z" style="fill:#fff"/><path d="M240.93,128.11a8.3,8.3,0,0,0-1.09.08,5.18,5.18,0,0,0-8.57-3.54,7.76,7.76,0,0,0-13.91,6.78,5.3,5.3,0,0,0-3.39,4.94h35.21A8.25,8.25,0,0,0,240.93,128.11Z" style="fill:none;stroke:#414042;stroke-miterlimit:10;stroke-width:1.5px"/><path d="M230.75,130.2a4.76,4.76,0,0,1,1.33-6.15" style="fill:none;stroke:#414042;stroke-miterlimit:10;stroke-width:1.5px"/><path d="M256.77,45.27a6.57,6.57,0,0,0-.86.06,4.11,4.11,0,0,0-6.79-2.81,6.15,6.15,0,0,0-11,5.37,4.2,4.2,0,0,0-2.69,3.92h27.91A6.54,6.54,0,0,0,256.77,45.27Z" style="fill:#fff"/><path d="M256.77,45.27a6.57,6.57,0,0,0-.86.06,4.11,4.11,0,0,0-6.79-2.81,6.15,6.15,0,0,0-11,5.37,4.2,4.2,0,0,0-2.69,3.92h27.91A6.54,6.54,0,0,0,256.77,45.27Z" style="fill:none;stroke:#414042;stroke-miterlimit:10;stroke-width:1.5px"/><path d="M248.7,46.93a3.78,3.78,0,0,1,1.05-4.87" style="fill:none;stroke:#414042;stroke-miterlimit:10;stroke-width:1.5px"/><path d="M72.25,103.58l5.18,0a4.4,4.4,0,0,1,8.75-.65.15.15,0,0,0,.27,0A3.47,3.47,0,0,1,93,104.54h3.22" style="fill:none;stroke:#414042;stroke-miterlimit:10;stroke-width:1.5px"/><path d="M5.66,155.83l7,0A5.91,5.91,0,0,1,24.38,155a.19.19,0,0,0,.37,0,4.66,4.66,0,0,1,8.84,2.08h4.32" style="fill:none;stroke:#414042;stroke-miterlimit:10;stroke-width:1.5px"/><path d="M223.11,91.4l6.07,0a5.16,5.16,0,0,1,10.26-.77.17.17,0,0,0,.32,0,4.06,4.06,0,0,1,7.71,1.81h3.77" style="fill:none;stroke:#414042;stroke-miterlimit:10;stroke-width:1.5px"/><path d="M141.72,77.43a5.11,5.11,0,0,0-2.51.68,3.37,3.37,0,0,0,0-.44,3.42,3.42,0,0,0-3.42-3.42,3.38,3.38,0,0,0-.44,0,4.43,4.43,0,0,0-7-1.71,6.64,6.64,0,0,0-11.89,5.8,4.53,4.53,0,0,0-2.9,4.23h33.33A5.16,5.16,0,0,0,141.72,77.43Z" style="fill:#fff"/><path d="M141.72,77.43a5.17,5.17,0,0,0-2.51.68,3.37,3.37,0,0,0,0-.44,3.42,3.42,0,0,0-3.42-3.42,3.38,3.38,0,0,0-.44,0,4.43,4.43,0,0,0-7-1.71,6.64,6.64,0,0,0-11.89,5.8,4.53,4.53,0,0,0-2.9,4.23h33.33A5.16,5.16,0,0,0,141.72,77.43Z" style="fill:none;stroke:#414042;stroke-miterlimit:10;stroke-width:1.5px"/><path d="M341.46,210a171,171,0,0,1-6.88,23.41" style="fill:none;stroke:#414042;stroke-miterlimit:10;stroke-width:1.5px"/><path d="M1,182.37q-.24-4.61-.25-9.29a173.5,173.5,0,0,1,2.39-28.74q.6-3.55,1.34-7.06a172.37,172.37,0,0,1,338.29,66.07" style="fill:none;stroke:#414042;stroke-miterlimit:10;stroke-width:1.5px"/><path d="M5,211.41A171.91,171.91,0,0,1,1.6,190.29" style="fill:none;stroke:#414042;stroke-miterlimit:10;stroke-width:1.5px"/><path d="M8.91,225.62q-1-3.12-1.88-6.3" style="fill:none;stroke:#414042;stroke-miterlimit:10;stroke-width:1.5px"/><path d="M331.24,241.64q-1.18,2.71-2.44,5.37" style="fill:none;stroke:#414042;stroke-miterlimit:10;stroke-width:1.5px"/><line x1="81.52" y1="82.6" x2="76.39" y2="82.6" style="fill:none;stroke:#414042;stroke-miterlimit:10;stroke-width:1.5px"/><line x1="78.95" y1="85.16" x2="78.95" y2="80.03" style="fill:none;stroke:#414042;stroke-miterlimit:10;stroke-width:1.5px"/><line x1="67.67" y1="103.16" x2="62.54" y2="103.16" style="fill:none;stroke:#414042;stroke-miterlimit:10;stroke-width:1.5px"/><line x1="65.11" y1="105.73" x2="65.11" y2="100.59" style="fill:none;stroke:#414042;stroke-miterlimit:10;stroke-width:1.5px"/><line x1="90.41" y1="82.6" x2="88.01" y2="82.6" style="fill:none;stroke:#414042;stroke-miterlimit:10;stroke-width:1.5px"/><line x1="107.24" y1="82.6" x2="92.01" y2="82.6" style="fill:none;stroke:#414042;stroke-miterlimit:10;stroke-width:1.5px"/><line x1="122.05" y1="124.76" x2="106.82" y2="124.76" style="fill:none;stroke:#414042;stroke-miterlimit:10;stroke-width:1.5px"/><line x1="189.65" y1="124.76" x2="148.95" y2="124.76" style="fill:none;stroke:#414042;stroke-miterlimit:10;stroke-width:1.5px"/><line x1="116.68" y1="39.5" x2="75.98" y2="39.5" style="fill:none;stroke:#414042;stroke-miterlimit:10;stroke-width:1.5px"/><line x1="214.79" y1="52.31" x2="199.56" y2="52.31" style="fill:none;stroke:#414042;stroke-miterlimit:10;stroke-width:1.5px"/><line x1="219.9" y1="52.31" x2="216.56" y2="52.31" style="fill:none;stroke:#414042;stroke-miterlimit:10;stroke-width:1.5px"/><line x1="83.89" y1="82.6" x2="86.13" y2="82.6" style="fill:none;stroke:#414042;stroke-miterlimit:10;stroke-width:1.5px"/><line x1="21.58" y1="189.63" x2="16.44" y2="189.63" style="fill:none;stroke:#414042;stroke-miterlimit:10;stroke-width:1.5px"/><line x1="19.01" y1="192.2" x2="19.01" y2="187.07" style="fill:none;stroke:#414042;stroke-miterlimit:10;stroke-width:1.5px"/><line x1="30.46" y1="189.63" x2="28.06" y2="189.63" style="fill:none;stroke:#414042;stroke-miterlimit:10;stroke-width:1.5px"/><line x1="47.3" y1="189.63" x2="32.06" y2="189.63" style="fill:none;stroke:#414042;stroke-miterlimit:10;stroke-width:1.5px"/><line x1="23.94" y1="189.63" x2="26.18" y2="189.63" style="fill:none;stroke:#414042;stroke-miterlimit:10;stroke-width:1.5px"/><line x1="317.05" y1="186.9" x2="314.65" y2="186.9" style="fill:none;stroke:#414042;stroke-miterlimit:10;stroke-width:1.5px"/><line x1="333.89" y1="186.9" x2="318.65" y2="186.9" style="fill:none;stroke:#414042;stroke-miterlimit:10;stroke-width:1.5px"/><line x1="310.53" y1="186.9" x2="312.77" y2="186.9" style="fill:none;stroke:#414042;stroke-miterlimit:10;stroke-width:1.5px"/><line x1="200.44" y1="131.8" x2="200.44" y2="136.15" style="fill:none;stroke:#414042;stroke-linecap:round;stroke-miterlimit:10;stroke-width:1.5px"/><line x1="198.26" y1="133.97" x2="202.61" y2="133.97" style="fill:none;stroke:#414042;stroke-linecap:round;stroke-miterlimit:10;stroke-width:1.5px"/><path d="M201.95,134.42a1.93,1.93,0,0,0-1.06,1.06.5.5,0,0,1-.9,0,1.93,1.93,0,0,0-1.06-1.06.5.5,0,0,1,0-.9,1.93,1.93,0,0,0,1.06-1.06.5.5,0,0,1,.9,0,1.93,1.93,0,0,0,1.06,1.06A.5.5,0,0,1,201.95,134.42Z" style="fill:#414042"/><line x1="226.12" y1="50.14" x2="226.12" y2="54.48" style="fill:none;stroke:#414042;stroke-linecap:round;stroke-miterlimit:10;stroke-width:1.5px"/><line x1="223.94" y1="52.31" x2="228.29" y2="52.31" style="fill:none;stroke:#414042;stroke-linecap:round;stroke-miterlimit:10;stroke-width:1.5px"/><path d="M227.63,52.76a1.93,1.93,0,0,0-1.06,1.06.5.5,0,0,1-.9,0,1.93,1.93,0,0,0-1.06-1.06.5.5,0,0,1,0-.9,1.93,1.93,0,0,0,1.06-1.06.5.5,0,0,1,.9,0,1.93,1.93,0,0,0,1.06,1.06A.5.5,0,0,1,227.63,52.76Z" style="fill:#414042"/><line x1="218.9" y1="108.98" x2="218.9" y2="113.61" style="fill:none;stroke:#414042;stroke-linecap:round;stroke-miterlimit:10;stroke-width:1.5px"/><line x1="216.58" y1="111.3" x2="221.22" y2="111.3" style="fill:none;stroke:#414042;stroke-linecap:round;stroke-miterlimit:10;stroke-width:1.5px"/><path d="M220.51,111.78a2.05,2.05,0,0,0-1.13,1.13.53.53,0,0,1-1,0,2.05,2.05,0,0,0-1.13-1.13.53.53,0,0,1,0-1,2.06,2.06,0,0,0,1.13-1.13.53.53,0,0,1,1,0,2.06,2.06,0,0,0,1.13,1.13A.53.53,0,0,1,220.51,111.78Z" style="fill:#414042"/><line x1="129.3" y1="122.44" x2="129.3" y2="127.08" style="fill:none;stroke:#414042;stroke-linecap:round;stroke-miterlimit:10;stroke-width:1.5px"/><line x1="126.98" y1="124.76" x2="131.61" y2="124.76" style="fill:none;stroke:#414042;stroke-linecap:round;stroke-miterlimit:10;stroke-width:1.5px"/><path d="M130.91,125.24a2.05,2.05,0,0,0-1.13,1.13.53.53,0,0,1-1,0,2.05,2.05,0,0,0-1.13-1.13.53.53,0,0,1,0-1,2.05,2.05,0,0,0,1.13-1.13.53.53,0,0,1,1,0,2.05,2.05,0,0,0,1.13,1.13A.53.53,0,0,1,130.91,125.24Z" style="fill:#414042"/><circle cx="141.32" cy="46.62" r="1.46" style="fill:none;stroke:#414042;stroke-miterlimit:10;stroke-width:1.5px"/><circle cx="277.19" cy="83.61" r="1.46" style="fill:none;stroke:#414042;stroke-miterlimit:10;stroke-width:1.5px"/><circle cx="29.26" cy="112.82" r="1.46" style="fill:none;stroke:#414042;stroke-miterlimit:10;stroke-width:1.5px"/></svg>