<svg xmlns="http://www.w3.org/2000/svg" viewBox="0 0 353.62 175.27"><title>video-marketing</title><line x1="247.55" y1="40.28" x2="245.15" y2="40.28" style="fill:none;stroke:#414042;stroke-miterlimit:10;stroke-width:1.5px"/><line x1="275.29" y1="40.28" x2="249.15" y2="40.28" style="fill:none;stroke:#414042;stroke-miterlimit:10;stroke-width:1.5px"/><line x1="307.05" y1="31.78" x2="261.21" y2="31.78" style="fill:none;stroke:#414042;stroke-miterlimit:10;stroke-width:1.5px"/><line x1="136.75" y1="21.18" x2="99.1" y2="21.18" style="fill:none;stroke:#414042;stroke-miterlimit:10;stroke-width:1.5px"/><line x1="109.62" y1="13.8" x2="71.97" y2="13.8" style="fill:none;stroke:#414042;stroke-miterlimit:10;stroke-width:1.5px"/><line x1="86.86" y1="21.18" x2="96.1" y2="21.18" style="fill:none;stroke:#414042;stroke-miterlimit:10;stroke-width:1.5px"/><line x1="241.02" y1="40.28" x2="243.26" y2="40.28" style="fill:none;stroke:#414042;stroke-miterlimit:10;stroke-width:1.5px"/><line x1="322.02" y1="97.86" x2="319.63" y2="97.86" style="fill:none;stroke:#414042;stroke-miterlimit:10;stroke-width:1.5px"/><line x1="341.95" y1="97.86" x2="323.63" y2="97.86" style="fill:none;stroke:#414042;stroke-miterlimit:10;stroke-width:1.5px"/><line x1="315.5" y1="97.86" x2="317.74" y2="97.86" style="fill:none;stroke:#414042;stroke-miterlimit:10;stroke-width:1.5px"/><line x1="40.62" y1="63.97" x2="43.01" y2="63.97" style="fill:none;stroke:#414042;stroke-miterlimit:10;stroke-width:1.5px"/><line x1="20.69" y1="63.97" x2="39.01" y2="63.97" style="fill:none;stroke:#414042;stroke-miterlimit:10;stroke-width:1.5px"/><line x1="11.53" y1="96.62" x2="29.85" y2="96.62" style="fill:none;stroke:#414042;stroke-miterlimit:10;stroke-width:1.5px"/><line x1="47.14" y1="63.97" x2="44.9" y2="63.97" style="fill:none;stroke:#414042;stroke-miterlimit:10;stroke-width:1.5px"/><line x1="221.84" y1="11.31" x2="224.24" y2="11.31" style="fill:none;stroke:#414042;stroke-miterlimit:10;stroke-width:1.5px"/><line x1="201.91" y1="11.31" x2="220.24" y2="11.31" style="fill:none;stroke:#414042;stroke-miterlimit:10;stroke-width:1.5px"/><line x1="228.36" y1="11.31" x2="226.12" y2="11.31" style="fill:none;stroke:#414042;stroke-miterlimit:10;stroke-width:1.5px"/><line x1="54.29" y1="63.97" x2="49.32" y2="63.97" style="fill:none;stroke:#414042;stroke-miterlimit:10;stroke-width:1.5px"/><line x1="51.8" y1="66.45" x2="51.8" y2="61.48" style="fill:none;stroke:#414042;stroke-miterlimit:10;stroke-width:1.5px"/><line x1="238.22" y1="40.17" x2="233.25" y2="40.17" style="fill:none;stroke:#414042;stroke-miterlimit:10;stroke-width:1.5px"/><line x1="235.73" y1="42.65" x2="235.73" y2="37.69" style="fill:none;stroke:#414042;stroke-miterlimit:10;stroke-width:1.5px"/><line x1="117.29" y1="13.8" x2="112.33" y2="13.8" style="fill:none;stroke:#414042;stroke-miterlimit:10;stroke-width:1.5px"/><line x1="114.81" y1="16.28" x2="114.81" y2="11.31" style="fill:none;stroke:#414042;stroke-miterlimit:10;stroke-width:1.5px"/><line x1="312.23" y1="97.86" x2="307.26" y2="97.86" style="fill:none;stroke:#414042;stroke-miterlimit:10;stroke-width:1.5px"/><line x1="309.74" y1="100.34" x2="309.74" y2="95.38" style="fill:none;stroke:#414042;stroke-miterlimit:10;stroke-width:1.5px"/><rect x="55.27" y="9.67" width="3.29" height="3.29" transform="translate(8.67 43.56) rotate(-45)" style="fill:none;stroke:#414042;stroke-miterlimit:10;stroke-width:1.5px"/><rect x="348.58" y="111.39" width="3.29" height="3.29" transform="translate(22.65 280.76) rotate(-45)" style="fill:none;stroke:#414042;stroke-miterlimit:10;stroke-width:1.5px"/><rect x="235.65" y="9.67" width="3.29" height="3.29" transform="translate(61.5 171.11) rotate(-45)" style="fill:none;stroke:#414042;stroke-miterlimit:10;stroke-width:1.5px"/><rect x="1.74" y="94.98" width="3.29" height="3.29" transform="translate(-67.33 30.7) rotate(-45)" style="fill:none;stroke:#414042;stroke-miterlimit:10;stroke-width:1.5px"/><path d="M190.28,19.49a1.34,1.34,0,0,1,0,1.62c-2.15,2.84-9.9,12.15-19.13,12.15s-17-9.31-19.13-12.15a1.34,1.34,0,0,1,0-1.62c2.15-2.84,9.9-12.15,19.13-12.15S188.13,16.65,190.28,19.49Z" style="fill:#fff"/><path d="M190.28,19.49a1.34,1.34,0,0,1,0,1.62c-2.15,2.84-9.9,12.15-19.13,12.15s-17-9.31-19.13-12.15a1.34,1.34,0,0,1,0-1.62c2.15-2.84,9.9-12.15,19.13-12.15S188.13,16.65,190.28,19.49Z" style="fill:none;stroke:#414042;stroke-miterlimit:10;stroke-width:1.5px"/><circle cx="171.15" cy="20.3" r="9.26" style="fill:#d0ccce"/><circle cx="171.15" cy="20.3" r="9.26" style="fill:none;stroke:#414042;stroke-miterlimit:10;stroke-width:1.5px"/><line x1="171.15" x2="171.15" y2="5.25" style="fill:none;stroke:#414042;stroke-miterlimit:10;stroke-width:1.5px"/><line x1="175.71" y1="3.22" x2="175.03" y2="5.76" style="fill:none;stroke:#414042;stroke-miterlimit:10;stroke-width:1.5px"/><line x1="181.27" y1="2.7" x2="178.65" y2="7.25" style="fill:none;stroke:#414042;stroke-miterlimit:10;stroke-width:1.5px"/><line x1="183.62" y1="7.77" x2="181.76" y2="9.63" style="fill:none;stroke:#414042;stroke-miterlimit:10;stroke-width:1.5px"/><line x1="183.75" y1="32.7" x2="181.88" y2="30.86" style="fill:none;stroke:#414042;stroke-miterlimit:10;stroke-width:1.5px"/><line x1="181.46" y1="37.79" x2="178.79" y2="33.27" style="fill:none;stroke:#414042;stroke-miterlimit:10;stroke-width:1.5px"/><line x1="175.89" y1="37.33" x2="175.19" y2="34.8" style="fill:none;stroke:#414042;stroke-miterlimit:10;stroke-width:1.5px"/><line x1="171.37" y1="40.6" x2="171.31" y2="35.35" style="fill:none;stroke:#414042;stroke-miterlimit:10;stroke-width:1.5px"/><line x1="166.44" y1="37.33" x2="167.43" y2="34.88" style="fill:none;stroke:#414042;stroke-miterlimit:10;stroke-width:1.5px"/><line x1="161.22" y1="38.01" x2="163.79" y2="33.43" style="fill:none;stroke:#414042;stroke-miterlimit:10;stroke-width:1.5px"/><line x1="158.82" y1="32.97" x2="160.65" y2="31.09" style="fill:none;stroke:#414042;stroke-miterlimit:10;stroke-width:1.5px"/><line x1="158.13" y1="7.77" x2="160.31" y2="9.86" style="fill:none;stroke:#414042;stroke-miterlimit:10;stroke-width:1.5px"/><line x1="160.65" y1="2.92" x2="163.37" y2="7.42" style="fill:none;stroke:#414042;stroke-miterlimit:10;stroke-width:1.5px"/><line x1="166.13" y1="3.22" x2="166.95" y2="5.85" style="fill:none;stroke:#414042;stroke-miterlimit:10;stroke-width:1.5px"/><path d="M177.51,19.15a3.7,3.7,0,0,0-6.36-2.57,3.7,3.7,0,0,0-5.32,5.14l5.32,5.15,0,0,5.39-5.3.17-.2,0-.06h0A3.67,3.67,0,0,0,177.51,19.15Z" style="fill:#e78967"/><ellipse cx="166.97" cy="15.76" rx="2.69" ry="1.18" transform="translate(29.86 112.34) rotate(-40.55)" style="fill:#fff"/><polygon points="202.93 169.32 140.69 169.32 148.68 146.12 195.22 146.12 202.93 169.32" style="fill:#fffffe"/><polygon points="141.8 164.34 200.5 160.88 195.51 147.38 148.11 147.38 141.8 164.34" style="fill:#bcbec0"/><polyline points="140.69 169.32 148.68 146.12 195.22 146.12 202.93 169.32" style="fill:none;stroke:#414042;stroke-miterlimit:10;stroke-width:1.5px"/><rect x="99.53" y="67.84" width="144.56" height="77.46" rx="2.29" ry="2.29" style="fill:#535151"/><path d="M244.09,141.19V150a5.89,5.89,0,0,1-6.1,5.66H105.63a5.89,5.89,0,0,1-6.1-5.66v-8.82Z" style="fill:#fffffe"/><rect x="104.88" y="73.1" width="133.85" height="62.89" style="fill:#fde99d"/><rect x="135.73" y="169.32" width="72.16" height="5.21" style="fill:#f1f2f2"/><path d="M198.59,169.32h6.69a2.6,2.6,0,0,1,2.6,2.6h0a2.6,2.6,0,0,1-2.6,2.6h-67a2.6,2.6,0,0,1-2.6-2.6h0a2.6,2.6,0,0,1,2.6-2.6h26" style="fill:none;stroke:#414042;stroke-miterlimit:10;stroke-width:1.5px"/><rect x="99.53" y="67.84" width="144.56" height="87.86" rx="2.29" ry="2.29" style="fill:none;stroke:#414042;stroke-miterlimit:10;stroke-width:1.5px"/><line x1="99.53" y1="141.18" x2="244.09" y2="141.18" style="fill:none;stroke:#414042;stroke-miterlimit:10;stroke-width:1.5px"/><g style="opacity:0.30000000000000004"><path d="M108.91,124.8l.42.17.71-.48V110.3l0-.45-.74-.45-6.07,2.88H99.55v-4.62a2.47,2.47,0,0,0-.77-1.79V136.6a2.47,2.47,0,0,0,.77-1.79V122.1h3.66Z" style="fill:#231f20"/><path d="M98.78,84.87v8.56a12.25,12.25,0,0,0,0-8.56Z" style="fill:#231f20"/></g><polygon points="218.81 135.99 124.81 135.99 118.81 67.84 224.81 67.84 218.81 135.99" style="fill:#231f20;opacity:0.30000000000000004"/><path d="M128.71,43.17H214.9a3.91,3.91,0,0,1,3.91,3.91V136a0,0,0,0,1,0,0h-94a0,0,0,0,1,0,0V47.08A3.91,3.91,0,0,1,128.71,43.17Z" style="fill:#fff"/><path d="M128.71,43.17H214.9a3.91,3.91,0,0,1,3.91,3.91V51a0,0,0,0,1,0,0h-94a0,0,0,0,1,0,0V47.08A3.91,3.91,0,0,1,128.71,43.17Z" style="fill:#d0ccce"/><circle cx="131.91" cy="47.08" r="1.02" style="fill:#e78967"/><circle cx="135.73" cy="47.08" r="1.02" style="fill:#fde99d"/><circle cx="139.55" cy="47.08" r="1.02" style="fill:#535151"/><rect x="125.65" y="50.99" width="92.47" height="5.88" style="fill:#e3e0e2"/><path d="M160.47,52.85H141.8l1.39-4.71a2.87,2.87,0,0,1,2.75-2.06h10.38a2.87,2.87,0,0,1,2.75,2.06Z" style="fill:#e3e0e2"/><path d="M124.81,136V47.08a3.91,3.91,0,0,1,3.91-3.91H214.9a3.91,3.91,0,0,1,3.91,3.91V136" style="fill:none;stroke:#414042;stroke-miterlimit:10;stroke-width:1.5px"/><rect x="143.83" y="52.77" width="66.02" height="2.31" style="fill:#fffffe"/><rect x="131.91" y="68.77" width="53.68" height="33.51" style="fill:#fec1a0"/><rect x="131.91" y="102.29" width="53.68" height="5.23" style="fill:#535151"/><polygon points="162.91 85.53 154.59 80.72 154.59 90.34 162.91 85.53" style="fill:#fff"/><polygon points="136.75 104.56 134.71 103.39 134.71 105.74 136.75 104.56" style="fill:#fff"/><rect x="138.53" y="104.56" width="42.13" height="0.34" style="fill:#fff"/><rect x="138.53" y="104.56" width="21.94" height="0.34" style="fill:#e78967"/><line x1="125.65" y1="56.87" x2="218.12" y2="56.87" style="fill:none;stroke:#414042;stroke-miterlimit:10;stroke-width:1.5px"/><rect x="188.6" y="68.77" width="10.64" height="10.64" style="fill:#fec1a0"/><rect x="188.6" y="84.26" width="10.64" height="10.64" style="fill:#fec1a0"/><rect x="188.6" y="99.75" width="10.64" height="10.64" style="fill:#fec1a0"/><rect x="188.6" y="115.24" width="10.64" height="10.64" style="fill:#fec1a0"/><rect x="202.93" y="70.36" width="13.59" height="1.06" style="fill:#e6e7e8"/><rect x="202.93" y="73.56" width="13.59" height="1.06" style="fill:#e6e7e8"/><rect x="202.93" y="76.76" width="6.8" height="1.06" style="fill:#e6e7e8"/><rect x="202.93" y="85.85" width="13.59" height="1.06" style="fill:#e6e7e8"/><rect x="202.93" y="89.05" width="13.59" height="1.06" style="fill:#e6e7e8"/><rect x="202.93" y="92.25" width="6.8" height="1.06" style="fill:#e6e7e8"/><rect x="202.93" y="101.34" width="13.59" height="1.06" style="fill:#e6e7e8"/><rect x="202.93" y="104.54" width="13.59" height="1.06" style="fill:#e6e7e8"/><rect x="202.93" y="107.74" width="6.8" height="1.06" style="fill:#e6e7e8"/><rect x="202.93" y="116.83" width="13.59" height="1.06" style="fill:#e6e7e8"/><rect x="202.93" y="120.03" width="13.59" height="1.06" style="fill:#e6e7e8"/><rect x="202.93" y="123.23" width="6.8" height="1.06" style="fill:#e6e7e8"/><rect x="132.93" y="112.98" width="43.91" height="2.27" style="fill:#e6e7e8"/><rect x="132.93" y="119.46" width="29.99" height="1.13" style="fill:#e6e7e8"/><rect x="134.51" y="125.88" width="20.08" height="1.13" style="fill:#e6e7e8"/><rect x="142.83" y="130.79" width="34.01" height="1.13" style="fill:#e6e7e8"/><rect x="157.59" y="125.88" width="2.79" height="1.13" transform="translate(317.96 252.9) rotate(180)" style="fill:#e6e7e8"/><path d="M246.84,130.38h-.39V118.84a3.3,3.3,0,0,0-3.3-3.3H214.69a3.3,3.3,0,0,0-3.3,3.3v8.81h-.51v6h.51v1.18h-.51v6h.51v15.59H243.8a3,3,0,0,0,2.64-1.57V140.52h.39Zm-1.5,23a1.54,1.54,0,0,1-1.54,1.54H243a5.92,5.92,0,0,0,2.36-2.21Z" style="fill:#231f20;opacity:0.30000000000000004"/><path d="M251.44,172V150.11h-7v25.16h3.75A3.3,3.3,0,0,0,251.44,172Z" style="fill:#231f20;opacity:0.30000000000000004"/><rect x="215.14" y="116.29" width="33.55" height="58.23" rx="2.87" ry="2.87" style="fill:#535151"/><path d="M231,174.52h15.29a2.41,2.41,0,0,0,2.41-2.41V118.71a2.41,2.41,0,0,0-2.41-2.41H231Z" style="fill:#636363"/><rect x="215.14" y="116.29" width="33.55" height="58.23" rx="2.55" ry="2.55" style="fill:none;stroke:#414042;stroke-miterlimit:10;stroke-width:1.5px"/><rect x="217.02" y="121.96" width="29.79" height="46.9" style="fill:#fff"/><line x1="228.91" y1="119.48" x2="234.92" y2="119.48" style="fill:none;stroke:#414042;stroke-miterlimit:10;stroke-width:1.5px"/><line x1="214.63" y1="133.67" x2="214.63" y2="127.66" style="fill:none;stroke:#414042;stroke-miterlimit:10;stroke-width:1.5px"/><line x1="214.63" y1="140.85" x2="214.63" y2="134.84" style="fill:none;stroke:#414042;stroke-miterlimit:10;stroke-width:1.5px"/><line x1="249.19" y1="140.52" x2="249.19" y2="130.38" style="fill:none;stroke:#414042;stroke-miterlimit:10;stroke-width:1.5px"/><line x1="237.3" y1="119.48" x2="235.73" y2="119.48" style="fill:none;stroke:#414042;stroke-miterlimit:10;stroke-width:1.5px"/><rect x="218.33" y="123.58" width="27.17" height="17.27" style="fill:#fec1a0"/><rect x="218.33" y="144.16" width="23.72" height="1.77" style="fill:#e6e7e8"/><rect x="218.33" y="148.64" width="23.72" height="0.89" style="fill:#e6e7e8"/><rect x="218.33" y="151.08" width="23.72" height="0.89" style="fill:#e6e7e8"/><rect x="218.33" y="153.53" width="23.72" height="0.89" style="fill:#e6e7e8"/><rect x="218.33" y="155.98" width="14.78" height="0.89" style="fill:#e6e7e8"/><polygon points="235.73 132.12 230.49 129.09 230.49 135.15 235.73 132.12" style="fill:#fffffe"/><path d="M134.84,148.05v-6.68H98.92L134.09,134l-1.36-6.54-33.94,7.09v18.82a3,3,0,0,0,3,3h33Zm-34.56,5.35v-.67a5.92,5.92,0,0,0,2.36,2.21h-.82A1.54,1.54,0,0,1,100.28,153.41Z" style="fill:#231f20;opacity:0.30000000000000004"/><rect x="233.04" y="136.41" width="58.36" height="37.39" rx="2.23" ry="2.23" style="fill:#f0f1f1"/><rect x="233.04" y="136.41" width="58.36" height="37.39" rx="2.27" ry="2.27" style="fill:none;stroke:#3f3e40;stroke-miterlimit:10;stroke-width:1.5px"/><rect x="237.99" y="162.07" width="48.45" height="7.1" style="fill:#535050"/><rect x="237.99" y="140.87" width="48.45" height="28.47" style="fill:none;stroke:#3f3e40;stroke-miterlimit:10;stroke-width:1.5px"/><path d="M263.73,169.35v-4.12a6.34,6.34,0,0,0-6.32-6.32h0a6.34,6.34,0,0,0-6.32,6.32v4.1Z" style="fill:#ffe999"/><path d="M257.26,160.5h0a5,5,0,0,1-5-5v-5.77a5,5,0,0,1,5-5h0a5,5,0,0,1,5,5v5.77A5,5,0,0,1,257.26,160.5Z" style="fill:#535050"/><rect x="238.4" y="141.15" width="47.65" height="28.2" style="fill:#ff8965"/><polygon points="265.61 155.74 258.99 151.76 258.99 159.72 265.61 155.74" style="fill:#fff"/><rect x="53.95" y="129.24" width="68.68" height="38.55" style="fill:#e78967"/><rect x="53.95" y="167.79" width="68.68" height="6.02" style="fill:#535151"/><polygon points="89.61 148.52 80.03 142.99 80.03 154.05 89.61 148.52" style="fill:#fff"/><polygon points="59.51 170.41 57.17 169.06 57.17 171.77 59.51 170.41" style="fill:#fff"/><rect x="61.56" y="170.41" width="55.39" height="0.39" style="fill:#fff"/><rect x="61.56" y="170.41" width="25.23" height="0.39" style="fill:#e78967"/><rect x="53.95" y="129.24" width="68.68" height="44.57" style="fill:none;stroke:#414042;stroke-miterlimit:10;stroke-width:1.5px"/><line x1="53.87" y1="167.79" x2="122.63" y2="167.79" style="fill:none;stroke:#414042;stroke-miterlimit:10;stroke-width:1.5px"/></svg>