<svg xmlns="http://www.w3.org/2000/svg" viewBox="0 0 86.93 83.81"><title>texas</title><path d="M43.14,13.55q-.14.48-.26,1c.26.2.52.42.77.64" style="fill:none;stroke:#17a2b8;stroke-linecap:round;stroke-linejoin:round"/><path d="M45.17,16.31a3.83,3.83,0,0,0,.69.32c.28.1.62-.22.84-.1s.22.55.47.73a5.24,5.24,0,0,0,2.59,1,23.38,23.38,0,0,1,4.77,1.29c.75.35,1.47,1.23,2.17,1.5s.73-.19,1.51-.1c1.31.14,2,1.5,3.54,1.13.64-.15,1.12-.81,1.72-.94.84-.18,1.27.32,2,.63s.79.53,1.49.38.75-.7,1.38-1.16c1.16-.83,3.29,0,4.78-.19s2.61-.37,4,.64c.83.6,1.27,1.2,1.82,1.56" style="fill:none;stroke:#17a2b8;stroke-linecap:round;stroke-linejoin:round;stroke-dasharray:1.9092999696731567,1.9092999696731567"/><path d="M79.83,23.29a3.52,3.52,0,0,0,1,0,2.31,2.31,0,0,1,.28,1" style="fill:none;stroke:#17a2b8;stroke-linecap:round;stroke-linejoin:round"/><path d="M81,26.17a5.26,5.26,0,0,0,0,.94,23.06,23.06,0,0,0,1.1,4.5c.47,1.68.17,3,1.06,4.52a25.38,25.38,0,0,1,1.75,3.62,29.54,29.54,0,0,1,1.47,3.76,7.43,7.43,0,0,1-.65,4c-.56,1.43-.7,3.51-1.78,4.63a7.36,7.36,0,0,1-2.38,1.52" style="fill:none;stroke:#17a2b8;stroke-linecap:round;stroke-linejoin:round;stroke-dasharray:1.951200008392334,1.951200008392334"/><path d="M80.61,53.93a2.91,2.91,0,0,1-1,.06c0-.36,0-.7,0-1" style="fill:none;stroke:#17a2b8;stroke-linecap:round;stroke-linejoin:round"/><path d="M78.08,52.1A2.27,2.27,0,0,0,77,53.41c-.49,1.71,1.74,1.9,1.11,3.47-.92,2.28-4.64,3.87-6.83,4.39a13.94,13.94,0,0,1-2.52.3" style="fill:none;stroke:#17a2b8;stroke-linecap:round;stroke-linejoin:round;stroke-dasharray:2.2054998874664307,2.2054998874664307"/><path d="M67.62,61.6l-1,0a2,2,0,0,1-.33.94" style="fill:none;stroke:#17a2b8;stroke-linecap:round;stroke-linejoin:round"/><path d="M64.71,64a2.07,2.07,0,0,0-.23.27c-.54.74-.48,2-1.12,2.64s-1,.2-1.38.5c-.75.58-.67,1.47-.87,2.48s-1.23,1.78-1.26,2.4c0,.23.6.27.65.48s-.13.5-.14.76c0,.53-.39.89-.38,1.39a14,14,0,0,0,1,2.62c.29,1,.48,2,.81,3a4.45,4.45,0,0,0,.28.67" style="fill:none;stroke:#17a2b8;stroke-linecap:round;stroke-linejoin:round;stroke-dasharray:2.0936999320983887,2.0936999320983887"/><path d="M62.69,82c.21.19.46.38.77.64a.89.89,0,0,1-.65.69" style="fill:none;stroke:#17a2b8;stroke-linecap:round;stroke-linejoin:round"/><path d="M60.87,83.2c-.8-.4-1.51-1.25-2.39-1.46s-1.33.37-2,.38c-1,0-1.1-.52-1.88-1-2.17-1.28-4-1.65-5.37-4-.83-1.43-1.07-3-2-4.38a13.48,13.48,0,0,1-.75-1.5,2.84,2.84,0,0,0-1.13-1.19c-1.42-1.08-1.76-2.33-2.28-4s-1.55-3-2.12-4.57c-1-2.91-3.06-4.87-5-7.15-.65-.77-.52-.95-1.5-1.25a15,15,0,0,0-2.36-.25l-2-.26c-.74-.1-.71-.28-1.47-.63-2.74-1.28-3.81,2.14-4.68,4a5.56,5.56,0,0,1-2.6,2.38c-1.31.32-2-1.15-2.87-1.79-2.42-1.72-5.15-3-5.88-6-.26-1.06-.62-2-.89-3.12-.16-.66,0-1.28-.36-1.91s-1.24-1-1.76-1.59c-1.78-1.86-4-3.35-5.72-5.25C3.2,38,1.8,37,1,36" style="fill:none;stroke:#17a2b8;stroke-linecap:round;stroke-linejoin:round;stroke-dasharray:1.9919999837875366,1.9919999837875366"/><path d="M.57,35.11a1.51,1.51,0,0,1,0-1l1,0" style="fill:none;stroke:#17a2b8;stroke-linecap:round;stroke-linejoin:round"/><line x1="3.52" y1="34.27" x2="21.76" y2="35.16" style="fill:none;stroke:#17a2b8;stroke-linecap:round;stroke-linejoin:round;stroke-dasharray:1.9228999614715576,1.9228999614715576"/><path d="M22.72,35.2l1,0a4.35,4.35,0,0,1,0-1" style="fill:none;stroke:#17a2b8;stroke-linecap:round;stroke-linejoin:round"/><path d="M23.7,32.34c.11-6.9.66-24.06.84-29.88" style="fill:none;stroke:#17a2b8;stroke-linecap:round;stroke-linejoin:round;stroke-dasharray:1.9277000427246094,1.9277000427246094"/><path d="M24.57,1.5c0-.65,0-1,0-1l1,0" style="fill:none;stroke:#17a2b8;stroke-linecap:round;stroke-linejoin:round"/><line x1="27.49" y1="0.56" x2="41.65" y2="0.84" style="fill:none;stroke:#17a2b8;stroke-linecap:round;stroke-linejoin:round;stroke-dasharray:1.889299988746643,1.889299988746643"/><path d="M42.6.86l1,0V1l0,.88" style="fill:none;stroke:#17a2b8;stroke-linecap:round;stroke-linejoin:round"/><line x1="43.5" y1="4.21" x2="43.25" y2="12.39" style="fill:none;stroke:#17a2b8;stroke-linecap:round;stroke-linejoin:round;stroke-dasharray:2.337599992752075,2.337599992752075"/></svg>